<?xml version="1.0" encoding="utf-8"?>
<!-- Generator: Adobe Illustrator 21.0.0, SVG Export Plug-In . SVG Version: 6.00 Build 0)  -->
<svg version="1.1" id="图层_3" xmlns="http://www.w3.org/2000/svg" xmlns:xlink="http://www.w3.org/1999/xlink" x="0px" y="0px"
	 viewBox="0 0 200 200" style="enable-background:new 0 0 200 200;" xml:space="preserve">
<style type="text/css">
	.st0{fill:#59D599;}
	.st1{fill:#1AAC8D;}
</style>
<path class="st0" d="M170.7,38.2L170.7,38.2c-6-7.1-14.8-13.9-25.1-19.3c-11-6.2-23.4-10.2-36.6-11.4c-0.4,0-0.8-0.1-1.2-0.1
	c-0.2,0-0.3,0-0.5,0c-2.2-0.2-4.4-0.3-6.7-0.3c-0.1,0-0.2,0-0.4,0c-0.1,0-0.2,0-0.4,0C48.3,7,6.3,49,6.3,100.7s42,93.7,93.7,93.7
	c0.1,0,0.2,0,0.3,0c0.2,0,0.3,0,0.5,0c25.1,0,47.9-9.8,64.8-25.7c1.8-2,5.8-5.5,3-9.8l-51.6-52.4l54.4-57.3
	C175.4,45.1,171.4,38.4,170.7,38.2z"/>
<circle class="st0" cx="172.6" cy="106.3" r="21.1"/>
<polygon class="st1" points="97.5,64.4 80.6,64.4 80.6,47.5 63.6,47.5 63.6,64.4 46.8,64.4 46.8,81.4 63.6,81.4 63.6,98.3 
	80.6,98.3 80.6,81.4 97.5,81.4 "/>
</svg>
