<?xml version="1.0" encoding="utf-8"?>
<!-- Generator: Adobe Illustrator 21.0.0, SVG Export Plug-In . SVG Version: 6.00 Build 0)  -->
<svg version="1.1" id="图层_1" xmlns="http://www.w3.org/2000/svg" xmlns:xlink="http://www.w3.org/1999/xlink" x="0px" y="0px"
	 viewBox="0 0 200 200" style="enable-background:new 0 0 200 200;" xml:space="preserve">
<style type="text/css">
	.st0{fill:#F77197;}
</style>
<path class="st0" d="M100.1,4.4C47.3,4.4,4.3,47.3,4.3,100s43,95.6,95.8,95.6s95.8-42.9,95.8-95.6S152.9,4.4,100.1,4.4z M131.6,90.6
	l-44.9,61.3c-1,1.5-3.3,0.5-3-1.2l5.4-36.5c0.1-0.8-0.6-1.6-1.4-1.6H68.5c-0.9,0-1.5-0.9-1.3-1.8l17.5-61.9c0.1-0.6,0.7-1,1.3-1
	h36.9c0.9,0,1.6,0.9,1.3,1.8l-10.9,37c-0.3,0.9,0.4,1.8,1.3,1.8h15.9C131.7,88.5,132.3,89.8,131.6,90.6z"/>
</svg>
