<?xml version="1.0" encoding="utf-8"?>
<!-- Generator: Adobe Illustrator 21.0.0, SVG Export Plug-In . SVG Version: 6.00 Build 0)  -->
<svg version="1.1" id="图层_4" xmlns="http://www.w3.org/2000/svg" xmlns:xlink="http://www.w3.org/1999/xlink" x="0px" y="0px"
	 viewBox="0 0 200 200" style="enable-background:new 0 0 200 200;" xml:space="preserve">
<style type="text/css">
	.st0{fill:#57D59B;}
</style>
<path class="st0" fill="#57D59B" d="M180.1,6.9h-27.9V26c0,3.1-2.5,5.6-5.6,5.6h-11.8c-3.1,0-5.6-2.5-5.6-5.6V6.9h-59V26c0,3.1-2.5,5.6-5.6,5.6
	H52.9c-3.1,0-5.6-2.5-5.6-5.6V6.9H19.4c-6.6,0-12,5.4-12,12V181c0,6.6,5.4,12,12,12h160.7c6.6,0,12-5.4,12-12V18.9
	C192.1,12.3,186.7,6.9,180.1,6.9z M128.1,109c0,6-4.9,10.8-10.8,10.8h-69c-6,0-10.8-4.9-10.8-10.8v0c0-6,4.9-10.8,10.8-10.8h69
	C123.2,98.2,128.1,103.1,128.1,109L128.1,109z M151.2,78.5h-103c-6,0-10.8-4.9-10.8-10.8c0-6,4.9-10.8,10.8-10.8h103
	c6,0,10.8,4.9,10.8,10.8C162.1,73.7,157.2,78.5,151.2,78.5z"/>
</svg>
