<?xml version="1.0" encoding="utf-8"?>
<!-- Generator: Adobe Illustrator 21.0.0, SVG Export Plug-In . SVG Version: 6.00 Build 0)  -->
<svg version="1.1" id="图层_2" xmlns="http://www.w3.org/2000/svg" xmlns:xlink="http://www.w3.org/1999/xlink" x="0px" y="0px"
	 viewBox="0 0 200 200" style="enable-background:new 0 0 200 200;" xml:space="preserve">
<style type="text/css">
	.st0{fill:#BBBBBB;}
</style>
<path class="st0" fill="#BBBBBB" d="M100,12.6c-48.3,0-87.4,39.1-87.4,87.4s39.1,87.4,87.4,87.4s87.4-39.1,87.4-87.4S148.3,12.6,100,12.6z
	 M112.9,117.3c-3.9,4.4-12,13.5-13,14.7c-1.1,1.2-5.9,25.7-17.2,34.4c-1.7,1.3-3.5,2.5-5.1,1l-3.8-5.6c-0.5-0.5-2.4-4.3-2.4-4.9
	l0-12.4c0-0.2-2.5-14.9-2.5-15.2c0.1-1.3-0.1-3.6-1.5-6.2c-0.6-1-4.3-7.2-7.6-7.6c-2.5-0.3-5.2-3.8-5.2-6.4L55,86.5
	c0-2.3-1.6-4.4-3.9-4.9l-18.7-4.1c-0.2-0.1-2.6-0.6-3.5-2.9c-0.8-2,0-3.8,0.1-4.1c1.2-2.6,2.4-5.1,3.6-7.7c2.3-4.6,6.1-11,12.4-17.4
	c6.7-6.8,13.6-10.9,18.3-13.2C67.5,30.1,71.7,28,76,26c0.5-0.2,1-0.5,1.6-0.7c3.1-1,6-0.5,7.7,0c1.3,0.2,2.7,0.3,4,0.5
	c2.1,0.2,10.2,1.3,10.8,4.7c0.1,0.6-0.1,1.2-0.2,1.5c-1.3,3.1-0.9,10-5.7,11c-1.5,0.3-31.5,17.3-35.3,19.8c-0.1,0.1-0.2,0.2-0.3,0.2
	c0,0-0.2,0.2-0.4,0.3c-6.5,6.2-6.8,10-6.8,10c-0.4,4,2.2,6.9,2.6,7.2c0,0,0.2,0.1,0.4,0.3c0.2,0.2,0.5,0.4,0.7,0.6l2.3,2.5
	c0.8,0.9,5.3-0.9,6.5-0.8C69.8,83.9,88,86,90.5,86c3,0,18.5,13,18.5,14c0,0.7,3,8,4.8,12.1C114.5,113.9,114.2,115.9,112.9,117.3z
	 M169,116.9c-1.8-0.4-2.8-2.1-3.2-2.9c-3.3-5.8-4.5-12.1-6.9-15.9c-4.3-6.8-14.7-8.5-21.3-9.6c-2.4-0.4-9-2.9-14.8-5.1
	c-1.4-0.6-1.1-4.4-1.2-6.4c-0.2-2.8,0-5.6,1-6c0.9-0.3,3.7-0.8,6.7-1.4c2.2-0.4,3-0.5,3-2.7l-2.2-3c-1.2-2.1-3.5-4.8-4.3-5.7
	L118,46.5c-1.6-2.6-1.6-4-1.6-7c0.7-2.2,2.5-3.9,4.7-4.4l4.3-1.1c0.8-0.2,1.6-0.2,2.4,0c0.4,0.1,0.7,0.3,0.8,0.3
	c14.5,3.3,26,13.8,26,13.8c9.6,8.3,13.3,18.7,15.1,23.9c5.2,14.8,4.2,37.6,2.9,44.1C172.2,117.3,170.5,117.2,169,116.9z"/>
</svg>
