<?xml version="1.0" encoding="utf-8"?>
<!-- Generator: Adobe Illustrator 21.0.0, SVG Export Plug-In . SVG Version: 6.00 Build 0)  -->
<svg version="1.1" id="图层_2" xmlns="http://www.w3.org/2000/svg" xmlns:xlink="http://www.w3.org/1999/xlink" x="0px" y="0px"
	 viewBox="0 0 200 200" style="enable-background:new 0 0 200 200;" xml:space="preserve">
<style type="text/css">
	.st0{fill:#CACACA;}
</style>
<g>
	<path class="st0" fill="#CACACA" d="M85.8,29.9h97.5c6.1,0,11.1,5,11.1,11.1s-5,11.1-11.1,11.1H85.8c-6.1,0-11.1-5-11.1-11.1S79.7,29.9,85.8,29.9z
		"/>
	<path class="st0" fill="#CACACA" d="M85.8,81.3h97.5c6.1,0,11.1,5,11.1,11.1s-5,11.1-11.1,11.1H85.8c-6.1,0-11.1-5-11.1-11.1S79.7,81.3,85.8,81.3z
		"/>
	<path class="st0" fill="#CACACA" d="M85.8,132.6h97.5c6.1,0,11.1,5,11.1,11.1s-5,11.1-11.1,11.1H85.8c-6.1,0-11.1-5-11.1-11.1
		S79.7,132.6,85.8,132.6z"/>
	<path class="st0" fill="#CACACA" d="M26,39.7c0-5.4,4.3-9.7,9.7-9.7s9.7,4.3,9.7,9.7v114.7c-0.1,1.3-0.6,2.6-1.5,3.6c-2.1,2.4-5.8,2.6-8.2,0.4
		L6.6,129.4c-0.9-1-1.4-2.3-1.5-3.6c-0.1-3.2,2.3-5.9,5.6-6.1h15.1L26,39.7z"/>
</g>
</svg>
