<?xml version="1.0" encoding="utf-8"?>
<!-- Generator: Adobe Illustrator 21.0.0, SVG Export Plug-In . SVG Version: 6.00 Build 0)  -->
<svg version="1.1" id="图层_2" xmlns="http://www.w3.org/2000/svg" xmlns:xlink="http://www.w3.org/1999/xlink" x="0px" y="0px"
	 viewBox="0 0 200 200" style="enable-background:new 0 0 200 200;" xml:space="preserve">
<style type="text/css">
	.st0{fill:#FB7299;}
</style>
<g>
	<path class="st0" d="M143.2,58.8c0-23.8-19.3-43.3-43.2-43.3S56.8,34.9,56.8,58.7S76.2,102,100,102S143.2,82.6,143.2,58.8z"/>
	<path class="st0" d="M52.6,97.9c-23.8,0-43.2,19.4-43.2,43.3c0,23.9,19.4,43.2,43.2,43.2c23.8,0,43.2-19.4,43.2-43.2
		C95.8,117.4,76.5,97.9,52.6,97.9z"/>
	<path class="st0" d="M147.4,97.9c-23.9,0-43.2,19.4-43.2,43.2c0,23.8,19.4,43.2,43.2,43.2c23.8,0,43.2-19.4,43.2-43.2
		C190.6,117.3,171.3,97.9,147.4,97.9z"/>
</g>
</svg>
