<?xml version="1.0" encoding="utf-8"?>
<!-- Generator: Adobe Illustrator 21.0.0, SVG Export Plug-In . SVG Version: 6.00 Build 0)  -->
<svg version="1.1" id="图层_1" xmlns="http://www.w3.org/2000/svg" xmlns:xlink="http://www.w3.org/1999/xlink" x="0px" y="0px"
	 viewBox="0 0 200 200" style="enable-background:new 0 0 200 200;" xml:space="preserve">
<style type="text/css">
	.st0{fill:#2FB9E8;}
</style>
<g id="图层_4">
	<g>
		<path class="st0" fill="#2FB9E8" d="M171.8,178.5l-19.7-0.7c-1.4,0-2.7,0.7-3.3,1.9l-9.2,17.4c-1.6,3.1-6,3.2-7.7,0.1l-21.5-37l44-25.5l21.4,37
			C177.6,174.8,175.3,178.6,171.8,178.5z"/>
		<path class="st0" fill="#2FB9E8" d="M29.8,178.5l19.7-0.7c1.4,0,2.7,0.7,3.3,1.9l9.2,17.4c1.6,3.1,6,3.2,7.7,0.1l21.6-37l-44-25.5l-21.4,37
			C24.1,174.8,26.4,178.6,29.8,178.5z"/>
	</g>
</g>
<g id="图层_3">
	<g>
		<g>
			<path class="st0" fill="#2FB9E8" d="M100.8,16.9c36,0,65.4,29.3,65.4,65.4s-29.3,65.4-65.4,65.4s-65.4-29.3-65.4-65.4S64.8,16.9,100.8,16.9
				 M100.8,1C55.9,1,19.4,37.4,19.4,82.4s36.4,81.4,81.4,81.4s81.4-36.4,81.4-81.4S145.8,1,100.8,1L100.8,1z"/>
		</g>
		<g>
			<circle class="st0" fill="#2FB9E8" cx="100.8" cy="82.4" r="37.5"/>
		</g>
	</g>
</g>
</svg>
