<?xml version="1.0" encoding="utf-8"?>
<!-- Generator: Adobe Illustrator 21.0.0, SVG Export Plug-In . SVG Version: 6.00 Build 0)  -->
<svg version="1.1" id="图层_1" xmlns="http://www.w3.org/2000/svg" xmlns:xlink="http://www.w3.org/1999/xlink" x="0px" y="0px"
	 viewBox="0 0 200 200" style="enable-background:new 0 0 200 200;" xml:space="preserve">
<style type="text/css">
	.st0{opacity:0.3;fill:#FFFFFF;enable-background:new    ;}
	.st1{fill:#F77197;}
</style>
<g id="图层_6">
	<path class="st0" d="M100,195c-52.9,0-96-43.1-96-96S47.1,3,100,3s96,43.1,96,96S152.9,195,100,195z"/>
	<path class="st1" d="M113.8,48.2c-1.3-4-5.6-6.1-9.5-4.8L77.9,83.9l14.2,43l45.3,16.8c4-1.3,6.1-5.6,4.8-9.5L113.8,48.2z"/>
	<path class="st1" d="M70.7,86.3L42,95.8c-15.8,5.2-19.6,12.8-14.4,28.6c4.4,13.4,10.9,19.5,28.4,13.7c0.1,0.2,0.1,0.5,0.2,0.7
		l7.1,21.5c1.3,4,5.6,6.1,9.5,4.8c0,0,3.6-1.2,1.1-0.7c3.3-1.2,4.8-4.9,3.7-8.9l-7-21.5l14.3-4.7L70.7,86.3z"/>
	<path class="st1" d="M131.6,62.2c2.8,1.7,6.5,0.7,8.2-2.1l10.7-18.3c1.7-2.8,0.7-6.5-2.1-8.2s-6.5-0.7-8.2,2.1L129.5,54
		C127.8,57,128.7,60.6,131.6,62.2z"/>
	<path class="st1" d="M151.4,89.9l20.2-6.7c3.1-1,4.8-4.4,3.8-7.5s-4.4-4.8-7.5-3.8l-20.2,6.7c-3.1,1-4.8,4.4-3.8,7.5
		S148.3,90.9,151.4,89.9z"/>
	<path class="st1" d="M175.4,118.3l-19.4-8.7c-3-1.4-6.5,0-7.9,3s0,6.5,3,7.9l19.4,8.7c3,1.4,6.5,0,7.9-3
		C179.7,123.2,178.4,119.6,175.4,118.3z"/>
</g>
</svg>
