<?xml version="1.0" encoding="utf-8"?>
<!-- Generator: Adobe Illustrator 21.0.0, SVG Export Plug-In . SVG Version: 6.00 Build 0)  -->
<svg version="1.1" id="图层_5" xmlns="http://www.w3.org/2000/svg" xmlns:xlink="http://www.w3.org/1999/xlink" x="0px" y="0px"
	 viewBox="0 0 200 200" style="enable-background:new 0 0 200 200;" xml:space="preserve">
<style type="text/css">
	.st0{fill:#999999;}
</style>
<path class="st0" fill="#999999" d="M100.5,159.5c0-28.7,23.3-52,52-52c4.5,0,8.8,0.6,13,1.6V33.5C165.5,17.8,152.7,5,137,5H42.4
	C26.7,5,13.9,17.8,13.9,33.5V146c0,15.7,12.8,28.5,28.5,28.5h60.3C101.3,169.7,100.5,164.7,100.5,159.5z M59.3,44.5h64
	c6.5,0,11.8,5.3,11.8,11.8S129.7,68,123.3,68h-64c-6.5,0-11.8-5.3-11.8-11.8S52.8,44.5,59.3,44.5z M59.3,113
	c-6.5,0-11.8-5.3-11.8-11.8s5.3-11.8,11.8-11.8h38c6.5,0,11.8,5.3,11.8,11.8S103.7,113,97.3,113H59.3z"/>
<path class="st0" fill="#999999" d="M152.5,121.5c-21,0-38,17-38,38s17,38,38,38s38-17,38-38S173.5,121.5,152.5,121.5z M172.4,151.4l-16.5,20.7
	c-0.2,0.2-0.4,0.5-0.7,0.7c-1,1.1-2.3,1.7-3.7,1.7c-1.1,0-2.2-0.3-3-1.1l-11.7-9.3c-2.1-1.7-2.5-4.8-0.8-6.9l0.3-0.3
	c1.7-2.1,4.8-2.5,6.9-0.8l7.5,6l13.7-17.1c1.7-2.1,4.8-2.5,6.9-0.8l0.3,0.3C173.7,146.2,174.1,149.3,172.4,151.4z"/>
</svg>
