<?xml version="1.0" encoding="utf-8"?>
<!-- Generator: Adobe Illustrator 21.0.0, SVG Export Plug-In . SVG Version: 6.00 Build 0)  -->
<svg version="1.1" id="图层_3" xmlns="http://www.w3.org/2000/svg" xmlns:xlink="http://www.w3.org/1999/xlink" x="0px" y="0px"
	 viewBox="0 0 200 200" style="enable-background:new 0 0 200 200;" xml:space="preserve">
<style type="text/css">
	.st0{fill:#999999;}
</style>
<path class="st0" fill="#999999" d="M182,6H18C11.4,6,6,11.4,6,18v164c0,6.6,5.4,12,12,12h164c6.6,0,12-5.4,12-12V18C194,11.4,188.6,6,182,6z
	 M110.1,166H51c-6.5,0-11.8-5.3-11.8-11.8V45.8C39.2,39.3,44.5,34,51,34h59.1c5.1,0,9.3,4.3,9,9.5c-0.3,4.8-4.5,8.4-9.3,8.4H61.4
	c-2.3,0-4.2,1.9-4.2,4.2v87.6c0,2.3,1.9,4.2,4.2,4.2c12.6,0,35.2,0,48.4,0c4.8,0,9,3.6,9.3,8.4C119.4,161.7,115.2,166,110.1,166z
	 M168,105.2l-27.6,28.6c-1.9,1.9-4.3,2.8-6.8,2.8c-2.4,0-4.9-0.9-6.8-2.8c-3.7-3.7-3.7-9.8,0-13.5l11.7-11.7H88.4
	c-5.3,0-9.5-4.3-9.5-9.5c0-5.3,4.3-9.5,9.5-9.5h50.8l-12-11.5c-3.8-3.6-3.9-9.7-0.3-13.5s9.7-3.9,13.5-0.3l27.6,27.4
	c1.9,1.8,2.9,4.2,2.9,6.8C170.9,100.9,169.9,103.3,168,105.2z"/>
</svg>
