<?xml version="1.0" standalone="no"?><!DOCTYPE svg PUBLIC "-//W3C//DTD SVG 1.1//EN" "http://www.w3.org/Graphics/SVG/1.1/DTD/svg11.dtd"><svg t="1560937612043" class="icon" style="" viewBox="0 0 1024 1024" version="1.1" xmlns="http://www.w3.org/2000/svg" p-id="1763" xmlns:xlink="http://www.w3.org/1999/xlink" width="32" height="32"><defs><style type="text/css"></style></defs><path d="M512 10.155c-277.247 0-502 224.753-502 502s224.753 502 502 502 502-224.753 502-502-224.753-502-502-502z m0 950c-247.424 0-448-200.576-448-448s200.576-448 448-448 448 200.576 448 448-200.576 448-448 448z" p-id="1764" fill="#cccccc"></path><path d="M750.95 614.816L540 493.025V201.487C540 185.202 527.741 172 512.619 172s-27.381 13.202-27.381 29.487v304.258c-0.821 5.812 0.186 11.604 2.821 16.472 3.973 8.664 11.78 14.916 21.036 16.198l214.473 123.826c11.995 6.925 27.848 1.923 35.409-11.173s3.967-29.326-8.027-36.252z" p-id="1765" fill="#cccccc"></path></svg>