<?xml version="1.0" encoding="utf-8"?>
<!-- Generator: Adobe Illustrator 21.0.0, SVG Export Plug-In . SVG Version: 6.00 Build 0)  -->
<svg version="1.1" id="图层_3" xmlns="http://www.w3.org/2000/svg" xmlns:xlink="http://www.w3.org/1999/xlink" x="0px" y="0px"
	 viewBox="0 0 200 200" style="enable-background:new 0 0 200 200;" xml:space="preserve">
<style type="text/css">
	.st0{fill:#999999;}
</style>
<g id="图层_4">
	<path class="st0" fill="#999999" d="M190,118.4l-11-6.4c-1.6-0.9-2.6-2.8-2.4-4.6c0.2-2.4,0.4-4.9,0.4-7.4s-0.1-5-0.4-7.4
		c-0.2-1.9,0.7-3.7,2.4-4.6l11-6.4c4.7-2.8,6.3-8.8,3.4-13.1L174.1,35c-2.8-5-8.8-6.3-13.1-3.4l-10.7,6.2c-1.6,0.9-3.7,0.8-5.2-0.3
		c-4.1-2.9-8.5-5.5-13.1-7.6c-1.7-0.8-2.8-2.5-2.8-4.4V12.8c0-5.3-4.4-9.7-9.7-9.7H80.6c-5.3,0-9.7,4.4-9.7,9.7v12.7
		c0,1.9-1.1,3.6-2.8,4.4c-4.6,2.1-9,4.7-13.1,7.6c-1.5,1.1-3.6,1.2-5.2,0.3l-10.7-6.2c-5-2.8-10.6-0.9-13.1,3.4L6.6,68.4
		c-2.8,5-0.9,10.6,3.4,13.1l11,6.4c1.6,0.9,2.6,2.8,2.4,4.6C23.1,95,23,97.5,23,100s0.1,5,0.4,7.4c0.2,1.9-0.7,3.7-2.4,4.6l-11,6.4
		c-4.7,2.8-6.3,8.8-3.4,13.1L25.9,165c2.8,4.7,8.8,6.3,13.1,3.4l10.7-6.2c1.6-0.9,3.7-0.8,5.2,0.3c4.1,2.9,8.5,5.5,13.1,7.6
		c1.7,0.8,2.8,2.5,2.8,4.4v12.7c0,5.3,4.4,9.7,9.7,9.7h38.8c5.3,0,9.7-4.4,9.7-9.7v-12.7c0-1.9,1.1-3.6,2.8-4.4
		c5.6-2.5,10.8-5.7,15.6-9.5l13.5,7.8c4.7,2.8,10.6,0.9,13.1-3.4l19.4-33.4C196.3,127.2,194.4,121.3,190,118.4z M100,131.3
		c-17.4,0-31.3-13.9-31.3-31.3S82.6,68.8,100,68.8s31.3,13.9,31.3,31.3S117.4,131.3,100,131.3z"/>
</g>
</svg>
