<?xml version="1.0" encoding="utf-8"?>
<!-- Generator: Adobe Illustrator 21.0.0, SVG Export Plug-In . SVG Version: 6.00 Build 0)  -->
<svg version="1.1" id="图层_5" xmlns="http://www.w3.org/2000/svg" xmlns:xlink="http://www.w3.org/1999/xlink" x="0px" y="0px"
	 viewBox="0 0 200 200" style="enable-background:new 0 0 200 200;" xml:space="preserve">
<style type="text/css">
	.st0{fill:#FB7098;}
	.st1{fill:#FFFFFF;}
</style>
<circle class="st0" cx="100" cy="100.7" r="93.7"/>
<path class="st1" d="M98,55.8c-27.1,0-49,20.1-49,45c0,10.7,4.1,20.6,11,28.3l-3.6,15.8c-0.3,1.3,0.9,2.3,2.1,2l18.2-5.6
	c6.5,2.9,13.7,4.5,21.3,4.5c27.1,0,49-20.1,49-44.9S125.1,55.8,98,55.8z"/>
<g>
	<path class="st0" d="M98.6,118.1c-3.4,0-6,2.6-6,5.8c0,2.1,1.1,4.1,3,5.1c1.7,1.1,4.1,1.1,5.8,0s3-3,3-5.1
		C104.3,120.6,101.8,118.1,98.6,118.1z"/>
	<path class="st0" d="M115,80.2c-2.8-5.5-8.1-9-15.8-9c-13.4,0-19.4,9-19.4,19.4c0,2.6,2.1,4.7,4.7,4.7s4.7-2.1,4.7-4.7
		c0-5.8,2.8-10.2,10.2-10.2c6.8,0,9.2,4.7,8.7,9.2c-0.2,2.6-0.6,3.8-3,5.3c0.2,0-6.4,4.7-7.9,6c-3,2.6-4.3,5.5-4.3,9.6
		c0,2.6,2.1,4.7,4.7,4.7s4.7-2.1,4.7-4.7c0-1.3,0.2-1.9,1.3-2.8c0.9-0.9,6.8-5.3,7.3-5.5c4.3-3.2,5.8-6.8,6.2-11.5
		C117.4,87.9,116.7,83.8,115,80.2z"/>
</g>
</svg>
