<?xml version="1.0" encoding="utf-8"?>
<!-- Generator: Adobe Illustrator 21.0.0, SVG Export Plug-In . SVG Version: 6.00 Build 0)  -->
<svg version="1.1" id="图层_1" xmlns="http://www.w3.org/2000/svg" xmlns:xlink="http://www.w3.org/1999/xlink" x="0px" y="0px"
	 viewBox="0 0 200 200" style="enable-background:new 0 0 200 200;" xml:space="preserve">
<style type="text/css">
	.st0{fill:#FB7299;}
</style>
<path class="st0" fill="#fb7299" d="M166.1,6.6H33.9c-8.1,0-14.7,6.5-14.7,14.6v163.9c0,3.3,2,6.4,5.1,7.7c3.1,1.3,5.8,0.5,9.1-1.7l61.9-35.4
	c2.7-1.6,6.1-1.6,8.8,0l64,36.6h0l0.4,0.2h0l0.4,0.2h0l0.4,0.2l0,0c0.1,0.1,0.2,0.1,0.3,0.1l0.1,0l0.3,0.1l0.1,0l0.3,0.1l0.2,0
	l0.2,0.1l0.2,0l0.2,0l0.2,0l0.2,0l0.2,0h0.8c0.1,0,0.2,0,0.2,0h0.1c0.1,0,0.2,0,0.3,0h0c1,0,2-0.3,2.8-0.8l1-0.6
	c0.1-0.1,0.2-0.1,0.3-0.2l0.1-0.1l0.2-0.1c0.1,0,0.1-0.1,0.2-0.1c0.1,0,0.1-0.1,0.1-0.1l0.2-0.1l0.2-0.1l0.1-0.1l0.2-0.2l0.1-0.1
	l0.2-0.2l0.1-0.1c0.1-0.1,0.1-0.2,0.2-0.3l0,0c0.5-0.7,0.9-1.4,1.2-2.2l0.1-0.4l0-0.1l0.1-0.3c0,0,0-0.1,0-0.1l0.1-0.3l0-0.2l0-0.2
	l0-0.2l0-0.2l0-0.2c0-0.1,0-0.1,0-0.2V21.2C180.8,13.1,174.2,6.6,166.1,6.6z M138,95.8h-25.2V121c0,6.6-5.4,12-12,12h0
	c-6.6,0-12-5.4-12-12V95.8H63.7c-6.6,0-12-5.4-12-12c0-6.6,5.4-12,12-12h25.2V46.7c0-6.6,5.4-12,12-12h0c6.6,0,12,5.4,12,12v25.2
	H138c6.6,0,12,5.4,12,12C150,90.4,144.6,95.8,138,95.8z"/>
</svg>
