<?xml version="1.0" encoding="utf-8"?>
<!-- Generator: Adobe Illustrator 21.0.0, SVG Export Plug-In . SVG Version: 6.00 Build 0)  -->
<svg version="1.1" id="图层_1" xmlns="http://www.w3.org/2000/svg" xmlns:xlink="http://www.w3.org/1999/xlink" x="0px" y="0px"
	 viewBox="0 0 200 200" style="enable-background:new 0 0 200 200;" xml:space="preserve">
<style type="text/css">
	.st0{fill:#999999;}
</style>
<g id="图层_3">
	<path class="st0" d="M100.1,195.6c-52.8,0-95.8-42.9-95.8-95.6s43-95.6,95.8-95.6s95.8,42.9,95.8,95.6S152.9,195.6,100.1,195.6z
		 M100.1,15.4c-46.8,0-84.8,38-84.8,84.6s38,84.6,84.8,84.6s84.8-38,84.8-84.6S146.9,15.4,100.1,15.4z"/>
	<path class="st0" d="M130.5,88.5h-15.9c-0.9,0-1.6-0.9-1.3-1.8l10.9-37c0.3-0.9-0.4-1.8-1.3-1.8H86c-0.6,0-1.2,0.4-1.3,1
		l-17.5,61.9c-0.2,0.9,0.4,1.8,1.3,1.8h19.2c0.8,0,1.5,0.8,1.4,1.6l-5.4,36.5c-0.3,1.7,2,2.7,3,1.2l44.9-61.3
		C132.3,89.8,131.7,88.5,130.5,88.5z"/>
</g>
</svg>
