<?xml version="1.0" encoding="utf-8"?>
<!-- Generator: Adobe Illustrator 21.0.0, SVG Export Plug-In . SVG Version: 6.00 Build 0)  -->
<svg version="1.1" id="图层_3" xmlns="http://www.w3.org/2000/svg" xmlns:xlink="http://www.w3.org/1999/xlink" x="0px" y="0px"
	 viewBox="0 0 200 200" style="enable-background:new 0 0 200 200;" xml:space="preserve">
<style type="text/css">
	.st0{fill:#BBBBBB;}
</style>
<path class="st0" fill="#BBBBBB" d="M189.4,85.3L102.3,13C94.6,8.6,85,14.2,85,23.1l0,39.7c0,1-0.7,1.8-1.7,1.9C70.5,66,61.1,69,54.6,71.9
	C24.5,85.4,6.3,123.1,6.4,168.4c0,2.6,3.3,3.7,4.9,1.7c8.4-10.6,23.1-25.6,45.7-34.3c9.6-3.7,18.5-3.8,26-4.3c1.1-0.1,2,0.8,2,1.9
	l0,34.2c0,8.9,9.6,14.4,17.3,10l87.1-72.2C197.1,100.8,197.1,89.7,189.4,85.3z"/>
</svg>
