<?xml version="1.0" standalone="no"?><!DOCTYPE svg PUBLIC "-//W3C//DTD SVG 1.1//EN" "http://www.w3.org/Graphics/SVG/1.1/DTD/svg11.dtd"><svg t="1560937733177" class="icon" style="" viewBox="0 0 1036 1024" version="1.1" xmlns="http://www.w3.org/2000/svg" p-id="2531" xmlns:xlink="http://www.w3.org/1999/xlink" width="32.375" height="32"><defs><style type="text/css"></style></defs><path d="M999.130255 332.574178 871.184023 332.574178 871.184023 876.854012C871.184023 957.915301 806.585252 1023.843587 727.166304 1023.843587L307.978157 1023.843587C228.520105 1023.843587 163.960438 957.915301 163.960438 876.854012L163.960438 332.574178 35.975102 332.574178C16.071486 332.574178 0 316.150762 0 295.817008 0 275.522358 16.071486 259.098942 35.975102 259.098942L325.379158 259.098942 325.379158 110.584336C325.379158 49.817696 373.828235 0.391034 433.382671 0.391034L601.76179 0.391034C661.316226 0.391034 709.765303 49.817696 709.765303 110.584336L709.765303 259.098942 999.130255 259.098942C1019.033872 259.098942 1035.144461 275.522358 1035.144461 295.817008 1035.144461 316.150762 1019.033872 332.574178 999.130255 332.574178ZM637.775996 110.584336C637.775996 90.328789 621.626303 73.86627 601.76179 73.86627L433.382671 73.86627C413.518158 73.86627 397.407569 90.328789 397.407569 110.584336L397.407569 259.098942 637.775996 259.098942 637.775996 110.584336ZM799.155612 332.574178 235.949746 332.574178 235.949746 876.854012C235.949746 917.365105 268.249131 950.368351 307.978157 950.368351L727.166304 950.368351C766.856226 950.368351 799.155612 917.365105 799.155612 876.854012L799.155612 332.574178ZM607.549089 865.24031C587.684576 865.24031 571.573987 848.816894 571.573987 828.522244L571.573987 451.683049C571.573987 431.388399 587.684576 414.925879 607.549089 414.925879 627.452706 414.925879 643.563295 431.388399 643.563295 451.683049L643.563295 828.522244C643.563295 848.816894 627.452706 865.24031 607.549089 865.24031ZM427.556268 865.24031C407.652652 865.24031 391.581166 848.816894 391.581166 828.522244L391.581166 451.683049C391.581166 431.388399 407.652652 414.925879 427.556268 414.925879 447.459885 414.925879 463.570474 431.388399 463.570474 451.683049L463.570474 828.522244C463.570474 848.816894 447.459885 865.24031 427.556268 865.24031Z" p-id="2532" fill="#cccccc"></path></svg>