<?xml version="1.0" encoding="utf-8"?>
<!-- Generator: Adobe Illustrator 21.0.0, SVG Export Plug-In . SVG Version: 6.00 Build 0)  -->
<svg version="1.1" id="图层_1" xmlns="http://www.w3.org/2000/svg" xmlns:xlink="http://www.w3.org/1999/xlink" x="0px" y="0px"
	 viewBox="0 0 200 200" style="enable-background:new 0 0 200 200;" xml:space="preserve">
<style type="text/css">
	.st0{fill:#CCCCCC;}
	.st1{fill:#FFFFFF;}
</style>
<path class="st0" d="M100,197.6c-54,0-97.6-43.8-97.6-97.6C2.4,46,46.1,2.4,100,2.4s97.6,43.8,97.6,97.6
	C197.6,154,154,197.6,100,197.6z"/>
<path class="st1" d="M145.8,54.2c-4-4-10.4-4-14.4,0L100,85.6L68.4,54.2c-4-4-10.4-4-14.4,0s-4,10.4,0,14.4L85.6,100L54,131.6
	c-4,4-4,10.4,0,14.4c1.9,1.9,4.5,3,7.1,3c2.7,0,5.3-1,7.1-3l31.6-31.6l31.6,31.6c1.9,1.9,4.5,3,7.1,3c2.7,0,5.3-1,7.1-3
	c4-4,4-10.4,0-14.4L114.4,100L146,68.4C149.8,64.5,149.8,58.1,145.8,54.2L145.8,54.2z"/>
</svg>
