<?xml version="1.0" encoding="utf-8"?>
<!-- Generator: Adobe Illustrator 21.0.0, SVG Export Plug-In . SVG Version: 6.00 Build 0)  -->
<svg version="1.1" id="图层_1" xmlns="http://www.w3.org/2000/svg" xmlns:xlink="http://www.w3.org/1999/xlink" x="0px" y="0px"
	 viewBox="0 0 200 200" style="enable-background:new 0 0 200 200;" xml:space="preserve">
<style type="text/css">
	.st0{fill:#BBBBBB;}
	.st1{fill:#FFFFFF;}
</style>
<path class="st0" fill="#BBBBBB" d="M185,88.5c0-46.2-37.5-83.7-83.7-83.7S17.6,42.3,17.6,88.5c0,44.9,35.4,81.6,79.8,83.6l9.3,18.2
	c1.4,2.6,4.9,3.2,7,1.2l42.5-39.8c0.1-0.1,0.2-0.2,0.3-0.3C174,136.1,185,113.6,185,88.5z"/>
<g>
	<path class="st1" fill="#FFFFFF" d="M66.1,67.9h71.4c4.5,0,8.1,3.6,8.1,8.1v0c0,4.5-3.6,8.1-8.1,8.1H66.1c-4.5,0-8.1-3.6-8.1-8.1v0
		C58,71.5,61.6,67.9,66.1,67.9z"/>
	<path class="st1" fill="#FFFFFF" d="M66.1,100h47.4c4.5,0,8.1,3.6,8.1,8.1v0c0,4.5-3.6,8.1-8.1,8.1H66.1c-4.5,0-8.1-3.6-8.1-8.1v0
		C58,103.6,61.6,100,66.1,100z"/>
</g>
</svg>
