<?xml version="1.0" encoding="utf-8"?>
<!-- Generator: Adobe Illustrator 21.0.0, SVG Export Plug-In . SVG Version: 6.00 Build 0)  -->
<svg version="1.1" id="图层_1" xmlns="http://www.w3.org/2000/svg" xmlns:xlink="http://www.w3.org/1999/xlink" x="0px" y="0px"
	 viewBox="0 0 200 200" style="enable-background:new 0 0 200 200;" xml:space="preserve">
<style type="text/css">
	.st0{fill:#F77197;}
	.st1{fill:#FFFFFF;}
</style>
<path class="st0" d="M195.9,75.5c0.5-3.6-1.8-7.3-2.7-8.6c-6.8-9.5-19.5-20.5-30-26.4c-5.9-3.2-12.3-5-18.6-6.8
	C138.3,32,132,31.1,126,31c0,0-0.1,0-0.1,0l-1.4-0.1c0,0-0.5-0.1-0.9-0.5c-2.9-2.8-5.2-6.6-8.2-11c-2.3-3.4-4.4-7.4-6-10.5
	c0-0.9-1.4-2.7-2.3-3.2c-0.9-0.9-2.3-0.9-4.1-0.9c-7.3,1.4-13.6,3.6-20,6.8c-5.9,3.2-11.8,6.8-17.3,11.8c-5,4.1-10,9.5-14.1,15.5
	c-3.6,5.9-7.3,15-10,20c-6.8,3.2-26.8,10.9-26.8,10.9s-5.5,2.3-7.3,4.5c-2.3,2.7-2.7,7.3-2.7,9.1c0,6.4,0.5,12.7,1.4,19.1
	c1.8,6.4,3.2,12.3,5.9,18.2c2.7,5.9,5.9,11.4,10,16.8C25.7,142,36.6,153,36.6,153s-0.7,17,1.1,27c0.5,3.2,1.8,5.9,2.7,6.8
	c5,5,19.1,8.2,25.5,8.6c16.4,0.5,27.7-1.4,37.3-4.5c5.5-1.8,14.5-7.3,16.8-8.6h0.9l26.4,10c1.4,0.5,5,0,6.4-0.9
	c1.4-0.9,4.1-5,5.5-6.4c5.5-5.9,13.6-25.9,15.5-35c1.4-6.4,1.8-12.3,1.8-18.6c-0.5-6.4-0.9-12.7-2.7-18.6c-0.6-1.4-0.2-2.3-0.2-2.8
	C174.1,109.1,194.1,83.6,195.9,75.5z"/>
<path class="st1" d="M115.9,104.5c0,6.3,5.1,11.4,11.4,11.4s11.4-5.1,11.4-11.4s-5.1-11.4-11.4-11.4S115.9,98.3,115.9,104.5z"/>
<path class="st1" d="M62.3,125.5c2.3,2.3,5.9,2.3,8.2,0l15.9-15.9c1.8-1.8,1.8-5-0.5-6.8L68.2,89.5c-2.7-1.8-5.9-1.4-7.7,1.4
	s-1.4,5.9,1.4,7.7l10.9,8.2l-10.5,10.5C60,119.5,60,123.2,62.3,125.5z"/>
</svg>
