<?xml version="1.0" encoding="utf-8"?>
<!-- Generator: Adobe Illustrator 21.0.0, SVG Export Plug-In . SVG Version: 6.00 Build 0)  -->
<svg version="1.1" id="图层_1" xmlns="http://www.w3.org/2000/svg" xmlns:xlink="http://www.w3.org/1999/xlink" x="0px" y="0px"
	 viewBox="0 0 200 200" style="enable-background:new 0 0 200 200;" xml:space="preserve">
<style type="text/css">
	.st0{fill:#F77197;stroke:#F77197;stroke-width:11;stroke-miterlimit:10;}
	.st1{fill:none;stroke:#FFFFFF;stroke-width:11;stroke-miterlimit:10;}
</style>
<g id="图层_3">
	<ellipse class="st0" cx="100.1" cy="100" rx="90.3" ry="90.1"/>
</g>
<g id="图层_4">
	<path class="st1" d="M109.2,61.1l4.7,14.3c1.3,3.9,4.9,6.6,9.1,6.6h15c9.2,0,13.1,11.8,5.6,17.2l-12.2,8.8
		c-3.3,2.4-4.7,6.7-3.5,10.7l4.7,14.3c2.9,8.8-7.2,16.1-14.7,10.7l-12.2-8.8c-3.3-2.4-7.9-2.4-11.2,0l-12.2,8.8
		c-7.5,5.4-17.5-1.9-14.7-10.7l4.7-14.3c1.3-3.9-0.1-8.2-3.5-10.7l-12.2-8.8C49.2,93.8,53,82,62.3,82h15c4.1,0,7.8-2.7,9.1-6.6
		L91,61.1C93.9,52.3,106.3,52.3,109.2,61.1z"/>
</g>
</svg>
