<?xml version="1.0" encoding="utf-8"?>
<!-- Generator: Adobe Illustrator 21.0.0, SVG Export Plug-In . SVG Version: 6.00 Build 0)  -->
<svg version="1.1" xmlns="http://www.w3.org/2000/svg" xmlns:xlink="http://www.w3.org/1999/xlink" x="0px" y="0px"
	 viewBox="0 0 200 200" style="enable-background:new 0 0 200 200;" xml:space="preserve">
<style type="text/css">
	.st0{fill:#FDDF80;}
	.st1{fill:#F8843C;}
</style>
<g id="图层_3">
	<circle class="st0" cx="100" cy="100.7" r="93.7"/>
</g>
<g id="图层_4">
	<g>
		<path class="st1" d="M132.8,123.1c0,5.5-4.5,10-10,10H77.3c-5.5,0-10-4.5-10-10V78.2c0-5.5,4.5-10,10-10h32.1l10-10H77.2
			c-11,0-19.9,8.9-19.9,19.9v44.8c0,11,8.9,19.9,19.9,19.9h45.7c11,0,19.9-8.9,19.9-19.9V80.5l-10.1,10.1V123.1z"/>
		<path class="st1" d="M145.1,64.2c-0.1-0.5-0.3-1-0.4-1.4c-0.7-1.4-1.5-2.7-2.6-3.8c-1.1-1.2-2.1-2-3-2.5c-0.4-0.2-0.9-0.4-1.5-0.6
			c-0.6-0.2-1.2-0.3-1.8-0.3c-1.4,0-2.7,0.4-3.8,1.3c-0.5,0.4-1.1,0.9-1.8,1.6c-0.7,0.7-2.8,2.7-3.3,3.2L139,73.9
			c0.3-0.3,2.1-2,2.4-2.3c0.3-0.3,0.7-0.7,1.1-1c0.4-0.4,0.9-0.9,1.4-1.4c0.4-0.5,0.8-1,1-1.6c0.2-0.6,0.3-1.1,0.3-1.7
			C145.3,65.3,145.2,64.7,145.1,64.2z"/>
		<path class="st1" d="M95.6,93c-1,1-1.6,1.6-1.8,1.9c-0.6,0.6-1.1,1.2-1.4,1.7c-0.3,0.5-0.6,1.1-0.9,1.7c-0.2,0.4-0.5,1.1-0.8,2.2
			c-0.4,1.1-0.7,2.3-1.1,3.4c-0.4,1.2-0.7,2.5-1,3.6c-0.3,1.2-0.5,2-0.6,2.7c-0.2,1.1-0.1,1.9,0.3,2.4c0.4,0.5,1.2,0.7,2.4,0.5
			c0.6-0.1,1.4-0.3,2.6-0.6s2.4-0.7,3.7-1.1c1.3-0.4,2.5-0.8,3.7-1.3c1.2-0.4,2.1-0.8,2.7-1.1c0.6-0.3,1.2-0.6,1.8-1
			c0.5-0.4,1-0.8,1.5-1.2c0.2-0.1,0.7-0.7,1.6-1.6c0.9-0.9,2.1-2.1,3.5-3.5c1.4-1.4,3-3,4.7-4.7l5.2-5.3v0l14-14.1l-12.2-12.3
			L99.2,89.3C97.8,90.8,96.6,92,95.6,93z"/>
	</g>
</g>
</svg>
