<?xml version="1.0" encoding="utf-8"?>
<!-- Generator: Adobe Illustrator 21.0.0, SVG Export Plug-In . SVG Version: 6.00 Build 0)  -->
<svg version="1.1" id="图层_1" xmlns="http://www.w3.org/2000/svg" xmlns:xlink="http://www.w3.org/1999/xlink" x="0px" y="0px"
	 viewBox="0 0 200 200" style="enable-background:new 0 0 200 200;" xml:space="preserve">
<style type="text/css">
	.st0{fill:#999999;}
</style>
<path class="st0" d="M173.6,110c0.5-0.9,20.5-26.4,22.3-34.5c0.5-3.6-1.8-7.3-2.7-8.6c-6.8-9.5-19.5-20.5-30-26.4
	c-5.9-3.2-12.3-5-18.6-6.8c-6.8-1.8-13.6-2.7-20-2.7c-1.4,0-3.2,0.9-4.1,1.8c-1.4,0.9-1.8,2.3-1.8,4.1c0,1.4,0.9,2.7,1.8,3.6
	c0.9,1.4,2.3,1.8,4.1,1.8c5,0,10.9,0.9,17.3,1.4c5.5,1.4,10.9,3.6,16.4,6.4s25,16.8,25.5,24.1c-0.9,4.5-21.4,32.3-21.4,32.3
	c-1.4,1.8-0.9,3.2-0.5,5c3.6,10.9,3.2,28.2,1.4,36.4c-1.4,5.5-2.7,10.5-5,15.5c-2.3,5.5-6.4,12.7-10,16.4c-2.3-0.5-22.3-9.5-24.5-10
	c-1.4,0-2.7,0-3.6,0.5c-6.4,3.2-29.1,13.2-36.8,13.6c-5,0.5-10.5,0.5-15.9,0s-13.6-2.3-16.8-5c-2.7-2.3-0.9-27.7-2.7-30.9
	s-13.6-13.6-16.4-17.7c-3.6-4.5-6.4-9.1-8.6-14.1c-2.7-5-4.5-10.5-5.5-15.9c-0.9-5.9-1.4-17.3-0.9-18.2c0,0,30.9-13.2,32.3-15
	c2.7-2.3,8.6-16.4,11.8-21.4s7.7-10,11.8-13.6c5-4.1,10-7.3,16.4-10.5c5-2.7,10.5-5,16.4-5.9c1.4-0.5,2.7-0.9,3.6-2.7
	c0.5-0.9,0.9-2.3,0.5-4.1c0-0.9-1.4-2.7-2.3-3.2c-0.9-0.9-2.3-0.9-4.1-0.9c-7.3,1.4-13.6,3.6-20,6.8c-5.9,3.2-11.8,6.8-17.3,11.8
	c-5,4.1-10,9.5-14.1,15.5c-3.6,5.9-7.3,15-10,20c-6.8,3.2-26.8,10.9-26.8,10.9s-5.5,2.3-7.3,4.5c-2.3,2.7-2.7,7.3-2.7,9.1
	c0,6.4,0.5,12.7,1.4,19.1c1.8,6.4,3.2,12.3,5.9,18.2s5.9,11.4,10,16.8C25.7,142,36.6,153,36.6,153s-0.7,17,1.1,27
	c0.5,3.2,1.8,5.9,2.7,6.8c5,5,19.1,8.2,25.5,8.6c16.4,0.5,27.7-1.4,37.3-4.5c5.5-1.8,14.5-7.3,16.8-8.6h0.9l26.4,10
	c1.4,0.5,5,0,6.4-0.9s4.1-5,5.5-6.4c5.5-5.9,13.6-25.9,15.5-35c1.4-6.4,1.8-12.3,1.8-18.6c-0.5-6.4-0.9-12.7-2.7-18.6
	C173.2,111.4,173.6,110.5,173.6,110L173.6,110z"/>
<path class="st0" d="M115.9,104.5c0,6.3,5.1,11.4,11.4,11.4s11.4-5.1,11.4-11.4s-5.1-11.4-11.4-11.4S115.9,98.3,115.9,104.5z"/>
<path class="st0" d="M62.3,125.5c2.3,2.3,5.9,2.3,8.2,0l15.9-15.9c1.8-1.8,1.8-5-0.5-6.8L68.2,89.5c-2.7-1.8-5.9-1.4-7.7,1.4
	s-1.4,5.9,1.4,7.7l10.9,8.2l-10.5,10.5C60,119.5,60,123.2,62.3,125.5z"/>
</svg>
