<?xml version="1.0" encoding="utf-8"?>
<!-- Generator: Adobe Illustrator 21.0.0, SVG Export Plug-In . SVG Version: 6.00 Build 0)  -->
<svg version="1.1" id="图层_4" xmlns="http://www.w3.org/2000/svg" xmlns:xlink="http://www.w3.org/1999/xlink" x="0px" y="0px"
	 viewBox="0 0 200 200" style="enable-background:new 0 0 200 200;" xml:space="preserve">
<style type="text/css">
	.st0{fill:#999999;}
</style>
<g>
	<g>
		<path class="st0" fill="#999999" d="M101.2,32.7c37.3,0,67.6,30.3,67.6,67.6s-30.3,67.6-67.6,67.6s-67.6-30.3-67.6-67.6S63.9,32.7,101.2,32.7
			 M101.2,8.7c-50.6,0-91.6,41-91.6,91.6s41,91.6,91.6,91.6s91.6-41,91.6-91.6S151.8,8.7,101.2,8.7L101.2,8.7z"/>
	</g>
	<g>
		<g>
			<circle class="st0" fill="#999999" cx="101.2" cy="140" r="13.8"/>
		</g>
		<g>
			<path class="st0" fill="#999999" d="M135.5,81.9c-1.3-17.7-15.7-31.9-33.4-33c-17-1-31.7,9.9-36.4,25.2c-1.3,3-2.1,6.7,0,10.5
				c1.3,2.4,4.1,4.4,6.7,5.2c5.8,1.7,10.2-3,12.3-7.1c0.2-0.5,0.6-1.2,0.7-1.5c2.1-6.1,8.1-11.1,14.8-11.1c8,0,14.5,6.5,14.5,14.5
				c0,7.5-6.1,14.7-13.4,15.4c-0.5,0.1-1.1,0.1-1.6,0.1c-0.2,0-3,0-4.5,0.3c-4.6,1-7.7,4.7-7.7,9.7c0,6.2,5.4,10.2,11.6,10.2
				c0.4,0,0.9,0,1.3-0.1C120.7,120,137,102.7,135.5,81.9z"/>
		</g>
	</g>
</g>
</svg>
