<?xml version="1.0" encoding="utf-8"?>
<!-- Generator: Adobe Illustrator 21.0.0, SVG Export Plug-In . SVG Version: 6.00 Build 0)  -->
<svg version="1.1" id="图层_2_1_" xmlns="http://www.w3.org/2000/svg" xmlns:xlink="http://www.w3.org/1999/xlink" x="0px"
	 y="0px" viewBox="0 0 200 200" style="enable-background:new 0 0 200 200;" xml:space="preserve">
<style type="text/css">
	.st0{fill:#FF5B8E;}
</style>
<g>
	<path class="st0" d="M113.8,11.5c-2.9-1-6.1,0.9-6.5,4l0,0c-0.3,2.4,1.1,4.7,3.4,5.5c20.6,6.8,53.7,41.8,61,61.5
		c0.8,2.3,3.3,3.5,5.6,3.1l0,0c3-0.6,4.8-3.8,3.7-6.6C172.3,56,137.9,19.6,113.8,11.5z"/>
	<path class="st0" d="M51.9,25.6l-3.3,89.8l-27.1,27.1c-4,4-4,10.4,0,14.4l14.2,14.2c4,4,10.4,4,14.4,0l5.4-5.4l19.3,19.3
		c4.9,4.9,13,4.9,17.9,0l0,0c4.9-4.9,4.9-13,0-17.9l-19.3-19.3l3.6-3.6l90.3-3.4c7.9-0.3,13.4-7.8,11.4-15.5
		c-4.9-18.3-15.8-46-40.5-70.7C113.4,30,85.7,19.1,67.4,14.2C59.8,12.2,52.2,17.7,51.9,25.6z M79.9,50.2v32.8c0,3.5-2.8,6.3-6.3,6.3
		l0,0c-3.5,0-6.3-2.8-6.3-6.3V50.2c0-3.5,2.8-6.3,6.3-6.3C77.1,43.8,79.9,46.7,79.9,50.2z"/>
</g>
</svg>
