<?xml version="1.0" encoding="utf-8"?>
<!-- Generator: Adobe Illustrator 21.0.0, SVG Export Plug-In . SVG Version: 6.00 Build 0)  -->
<svg version="1.1" id="图层_1" xmlns="http://www.w3.org/2000/svg" xmlns:xlink="http://www.w3.org/1999/xlink" x="0px" y="0px"
	 viewBox="0 0 200 200" style="enable-background:new 0 0 200 200;" xml:space="preserve">
<style type="text/css">
	.st0{fill:#FB7299;stroke:#FB7299;stroke-width:4;stroke-miterlimit:10;}
	.st1{fill:none;stroke:#FB7299;stroke-width:16;stroke-miterlimit:10;}
	.st2{fill:#FB7299;}
</style>
<path class="st0" fill="#FB7299" stroke="#FB7299" stroke-width="4" stroke-miterlimit="10" d="M184.3,36.8l-21-20.5c-4.4-4.3-11.4-4.2-15.7,0.2L79.5,86.2l-0.1,0.1c0,0-0.1,0.1-0.1,0.2
	c-0.1,0.1-0.1,0.2-0.2,0.3c-0.3,0.4-0.5,0.8-0.6,1.3c-4.3,15.2-11.3,40.3-11.3,40.3c-1.3,4.4,2.9,8.5,7.3,7.1c0,0,24.9-7.6,40-12.2
	c0.5-0.1,0.9-0.4,1.3-0.6c0.1-0.1,0.2-0.1,0.3-0.2c0.1,0,0.1-0.1,0.2-0.1l0.1-0.1l68.1-69.7C188.7,48.1,188.6,41,184.3,36.8z
	 M110.5,113.4L110.5,113.4c-0.1,0.1-0.1,0.1-0.2,0.1s-0.1,0.1-0.2,0.1c-0.2,0.2-0.5,0.3-0.8,0.4c-9,2.8-24,7.3-24,7.3
	c-2.6,0.8-5.1-1.6-4.4-4.3c0,0,4.2-15,6.8-24.1c0.1-0.3,0.6-1.2,0.7-1.2L150,28.9c2.6-2.6,6.8-2.7,9.4-0.1L171.9,41
	c2.6,2.6,2.7,6.8,0.1,9.4L110.5,113.4z"/>
<path class="st1" fill="none" stroke="#FB7299" stroke-width="16" stroke-miterlimit="10" d="M172,105.7v65.7c0,6.6-5.4,12-12,12H28.7c-6.6,0-12-5.4-12-12V40c0-6.6,5.4-12,12-12h65.7"/>
<g>
	<circle class="st2" fill="#FB7299" cx="94.3" cy="28" r="8"/>
	<circle class="st2" fill="#FB7299" cx="172" cy="106.3" r="8"/>
</g>
</svg>
