<?xml version="1.0" encoding="utf-8"?>
<!-- Generator: Adobe Illustrator 21.0.0, SVG Export Plug-In . SVG Version: 6.00 Build 0)  -->
<svg version="1.1" id="图层_1" xmlns="http://www.w3.org/2000/svg" xmlns:xlink="http://www.w3.org/1999/xlink" x="0px" y="0px"
	 viewBox="0 0 200 200" style="enable-background:new 0 0 200 200;" xml:space="preserve">
<style type="text/css">
	.st0{fill:none;stroke:#9A9A9A;stroke-width:11;stroke-miterlimit:10;}
	.st1{fill:none;stroke:#9A9A9A;stroke-width:10;stroke-miterlimit:10;}
	.st2{fill:#9A9A9A;}
</style>
<g>
	<path class="st0" d="M131,145.9l-0.4-0.4c-9.5,4.6-20.1,7.2-31.4,7.2c-11.2,0-21.8-2.6-31.2-7.2l-0.4,0.4
		c-3.8,3.7-21.7,23.9-24.1,28.2c-1.9,3.5-3.7,7.4-2.1,10.8c1.5,3.3,5.5,4.6,7.3,5c0,0,32,0,47.5,0c1.1,0,2.5,0,4.2,0
		c14.5,0,49.5,0,49.5,0c1.8-0.4,5.8-1.7,7.3-5c1.6-3.4-0.2-7.3-2.1-10.8C152.7,169.8,134.8,149.6,131,145.9z"/>
	<path class="st0" d="M130.6,145.5c23.8-11.6,40.2-36.1,40.2-64.4c0-39.5-32.1-71.6-71.6-71.6S27.6,41.6,27.6,81.1
		c0,28.3,16.5,52.8,40.4,64.4"/>
</g>
<g id="图层_9">
	<path class="st1" d="M116.5,63.8v4.5c0,9.9-8.1,18-18,18l0,0c-9.9,0-18-8.1-18-18v-4.5"/>
	<circle class="st2" cx="116.5" cy="63.8" r="5"/>
	<circle class="st2" cx="80.5" cy="63.8" r="5"/>
</g>
</svg>
