<?xml version="1.0" encoding="utf-8"?>
<!-- Generator: Adobe Illustrator 21.0.0, SVG Export Plug-In . SVG Version: 6.00 Build 0)  -->
<svg version="1.1" id="图层_1" xmlns="http://www.w3.org/2000/svg" xmlns:xlink="http://www.w3.org/1999/xlink" x="0px" y="0px"
	 viewBox="0 0 276.7 200" style="enable-background:new 0 0 276.7 200;" xml:space="preserve">
<style type="text/css">
	.st0{enable-background:new    ;}
	.st1{fill:#FFFFFF;}
</style>
<g>
	<g id="图层_3">
		<g class="st0">
			<path class="st1" d="M22.5,120.2l2.7-1c0.1,0.3,0.3,0.7,0.4,1.3s0.3,1.2,0.5,2.1l-6,3.2h-1.5l1.4-16.8H14v-4l9.7,0.4L22.5,120.2z
				 M16.8,97.7l7.2,2l-1.5,3.4l-6.7-2L16.8,97.7z M35.1,102.3h3.3v2.9c-0.2,0-0.3,0.1-0.4,0.1c-0.1,0-0.2,0.1-0.3,0.1
				c-0.4,0.1-0.8,0.1-1.1,0.2h-1.3v0.9h4.6v3.2c-0.7,0-1.3,0.1-1.7,0.1c-0.4,0-0.7,0-0.9,0H26.1v-2.6l5.3-0.4l0.1-1.2h-4.3v-2.7
				l4.6-0.3V102l-4.6-0.1v-2.6L32,99l0.1-3.1H35l0.1,2.7l2.7,0.1v2.6l-2.7,0.5V102.3z M38.5,126.1h-4.9v-2h1.6v-1.7h-5l-0.1,3.4
				l-3.3-0.1l0.3-14.8h11.4V126.1z M30.4,114.2v1.4l5.4-0.1l0.1-1.1L30.4,114.2z M30.4,118.7v0.8h4.9l0.3-0.8H30.4z"/>
			<path class="st1" d="M56.2,118.7l-1.8,7l-3.5-1l1.8-6.9L56.2,118.7z M58.3,95.7l3.6,0.3l0.4,2.2l9-0.1l-0.2,3.8l-8.9,0.3
				l-0.1,3.5l8.4-0.2l0.4,10.8L53.6,116l0.2-10.1h4.4V95.7z M57,112.2h9.5v-2.8H57V112.2z M57.7,119.3l3.5-1l1.7,6.9l-3.5,1
				L57.7,119.3z M65.6,125.8l-1.6-7l3.5-0.9l1.7,6.9L65.6,125.8z M72.9,117.6l1.6,7l-3.5,0.9l-1.7-6.9L72.9,117.6z"/>
			<path class="st1" d="M97.4,96.3h4l-0.1,3.9l5.8,0.2l-0.1,3.4l-5.3,0.3l0.2,4.2l7.6,0.1v3.6l-7.5,0.5l0.1,9h4l-0.3-6.4l4.3,0.1
				l-0.5,10.4L87.5,126l-0.1-10.8l4.1-0.4l0.4,6.9h4.9l0.3-9.2l-10.6,0.3v-4.4H97l0.3-4.4l-6.3-0.3l0.3-3.5l6-0.1L97.4,96.3z"/>
			<path class="st1" d="M121.8,101.7l7.6-0.2l0.1,3.7c-0.4,0.8-0.8,1.5-1.1,2.2c-0.3,0.7-0.7,1.4-1,2.1c-0.7,1.6-0.7,3.3,0.1,5.3
				c1,1.9,1.1,4.2,0.5,6.7l18.8,0.1v3.3l-19.7,0.1l-4,0.7l-0.7-3.7l1.4-0.5c-0.1-0.3-0.2-0.6-0.1-0.8c0.5-0.4,0.8-1.2,0.8-2.3
				c-0.1-0.3-0.2-0.7-0.3-1s-0.1-0.7-0.2-1.2c-0.1-0.6-0.2-1-0.3-1.5s-0.2-0.8-0.3-1c-0.1-0.1-0.1-0.3-0.1-0.6c0-0.3,0-0.6,0-0.9v-1
				c0-1.2,0.3-2.3,0.8-3.6c0.1-0.3,0.4-0.6,0.7-1.1c0.3-0.5,0.7-1,1.1-1.7h-4V101.7z M122.8,99.3l0.9-3.3h0.1l5,0.8l0.1,3.1
				L122.8,99.3z M143,106.3l0.9,0.7c-1.1,1.8-1.9,3.2-2.4,4.1s-0.8,1.5-0.9,1.6c1.1,1.2,2.5,2.5,4.2,4l-2.2,2.8l-4.3-4
				c-0.7,0.7-2.5,2.1-5.4,4.2l-1.3-3.1l4-3.7c-1.1-1.2-1.9-2.2-2.6-3.1c-0.7-0.8-1.2-1.4-1.6-1.8l1.9-1.4h-2.7l0.4-3.2
				c3.6,0,6.5,0,8.7,0c2.3,0,3.9,0,4.9-0.1v3H143z M133.3,99.9l1.5-2.8c2.9,1.3,4.8,2,5.8,2.2l-0.8,2.9L133.3,99.9z M134.9,106.6
				l3.1,4l2.3-4.2L134.9,106.6z"/>
			<path class="st1" d="M182.6,95.7l-1.1,17.4l-8.3,0.2v1.9l5.7,0.1l-0.1,3.6l-5.6,0.1v2.7l10.8,0.4l-0.3,3.9h-26.4l0.5-3.9
				l10.3-0.4v-3.3l-5.8,0.2v-2.3l0.3-1.3l5.5-0.1v-2l-7.5,0.1V95.9L182.6,95.7z M168.1,99h-3.6v3.3h3.6V99z M168.1,109.2v-2.9
				l-3.5,0.3v2.5L168.1,109.2z M173.2,102.3h4.8V99h-4.8V102.3z M173.2,109h3.6v-3h-3.6V109z"/>
			<path class="st1" d="M194.8,125.5v-3.2l2.2-6.1l-1.9-3c0.4-1.3,0.8-2.4,1-3.2c0.3-0.9,0.5-1.5,0.6-1.9l-4.5-1l0.8-3.7l8.7,1.5
				v1.4l-1.4,3.2c0,0.1-0.2,0.4-0.4,0.9c-0.2,0.5-0.5,1.1-0.9,1.9l1.9,3l-1.4,5.9l21.9,0.9v4L194.8,125.5z M200.8,101.9
				c-0.2,0.2-0.6,0.5-1.1,0.7c-0.5,0.3-1.2,0.5-2.1,0.7l-2.8-6.3c0.5-1.1,1.7-1.7,3.5-1.9L200.8,101.9z M213.5,95.8l0.2,2.8l4.2,0.3
				v3.7l-4.2,0.1l0.4,2.4v1l6.5,0.1v3.8l-4.7,0.1l-0.8,6.2l3.3,0.2l0.3-1.7h2.7v5.7l-10.5-0.1l1.5-10.2l-1.7-0.1
				c-0.3,1.6-0.5,2.9-0.7,3.9c-0.2,1-0.4,1.8-0.5,2.3c-0.1,0.3-0.3,0.7-0.5,1.2c-0.2,0.5-0.5,1.1-1,1.9c-0.2,0.2-0.4,0.4-0.5,0.6
				c-0.2,0.2-0.3,0.4-0.4,0.5l-3.6-1.7c1.1-0.9,1.9-2.1,2.5-3.5s0.9-3.2,1.1-5.2l-5.2-0.1l0.2-3.8l7.9-0.1l-0.1-3.2l-2,0.3l-0.4,2.2
				h-3.6l0.7-8.2l0.5-1h3.1V99h1.7l0.3-3.2H213.5z"/>
			<path class="st1" d="M236.7,103.1l2.2,0.3l0.3,3.6l-2.2,0.4v3.4l3.6-0.6l0.5,3.5l-3.8,1.7l-0.1,10.4h-5.3l-1.2-5h2.8l-0.1-4.5
				l-4.5,0.3v-4.1l4.4-1.1l-0.2-3.6l-3.7,0.1l0.3-4.6h3.4l0.5-7.8h3.1L236.7,103.1z M254.2,101l-2.5,3.2l4.4,3.6l-1.3,3.6l-0.4-0.3
				l-0.2,3.2l-3.7,0.1v0.8h4.3v4.2h-4.3v6.5h-3.9v-6l-4.6-0.1v-3.6l4.6-0.4v-0.9l-3.3-0.1l0.1-3.5l3.2-0.1v-2.3l-5.2,2.6l-1.2-3.6
				l4.5-2.7l-3.1-3.1l0.1-6.3h12.8L254.2,101z M250.7,99.4h-5.7l2.6,2.5L250.7,99.4z M250.4,108.8v2.2h3.7L250.4,108.8z"/>
		</g>
		<g class="st0">
			<path class="st1" d="M37.9,163.5c-1.6,0-3,0.1-4.3,0.1c-1.3,0-2.5,0-3.7,0l-0.6,1.5l0.2-0.4l3,0.4v7.6l5.5,0.4l-0.2,3.1l-5.7,0.5
				l-0.3,4.7l6.3-0.1l-0.1,3.6l-15.6,0.3v-3.8h5l0.4-4.9h-5.8l-0.3-3.7l6.4-0.2l0.6-7.5c-2.4,3.7-4.8,6.3-7,7.7l-1,1l0.4,11.3
				l-4.3-0.1l0.3-9.5l-3.1,1.9l-0.8-3.7l4.4-3.1l0.2-6l3.1,0.1l-0.4,4.4l4.1-5.4l-9.5-0.5l0.5-3l10.5-0.2l1.9-3.5l3.6-0.3l-1.4,4.2
				l8.2-0.4l0.2,3.4H37.9z"/>
			<path class="st1" d="M48.4,181.4l9.5-8.7l1.3,4.7l-8.7,9L48.4,181.4z M56.6,167.9l-5.3,0.5c-0.2-0.3-0.3-1.1-0.3-2.3v-1.5
				c0.8,0,1.6,0.1,2.6,0.2c0.9,0.1,1.9,0.3,2.9,0.6L56.6,167.9z M57.2,163.1c-1.9,0-3.9-0.8-5.9-2.4l0.4-4.3
				c2.3,1.3,4.1,2.7,5.5,4.2V163.1z M67.6,167.6c-0.1,0.6-0.3,1.4-0.4,2.3c-0.2,0.9-0.3,2-0.6,3.2c-0.1,0.3-0.3,0.8-0.4,1.5
				l-0.9,3.1l3,4.9l-1.9,3.4l-2.9-4.9c0,0.1-0.1,0.3-0.2,0.5s-0.2,0.5-0.4,0.9c-0.1,0.1-0.2,0.3-0.3,0.4c-0.1,0.1-0.2,0.2-0.3,0.3
				c-0.1,0.1-0.2,0.2-0.3,0.3c-0.1,0.1-0.2,0.3-0.3,0.5c-0.1,0.2-0.3,0.4-0.4,0.6l-1,1.4l-1.9-4.2l3.1-4.5l-3.1-7.8l2.6-1.7h-2.8
				l0.1-4.5l10.5,0.1v3.9L67.6,167.6z M61.6,157.6c3.3,1.1,4.9,1.9,4.8,2.4l-0.9,3.1c-0.9-0.3-1.7-0.7-2.4-1
				c-0.8-0.4-1.5-0.7-2.2-1.1c0.1-0.7,0.2-1.3,0.4-1.9C61.3,158.6,61.4,158,61.6,157.6z M64.8,167.9h-3.7l2.2,5.5L64.8,167.9z
				 M71.2,177.9h-2.9v-9.3l2.9,0.2V177.9z M75.2,186.4l-5-0.6v-3.9c0.5,0.1,1.1,0.1,1.7,0v-24h3.3V186.4z"/>
			<path class="st1" d="M102.5,182.7l7.8,0.1l0.1-1.6l2.1,0.1l0.5,4.5L98.1,186l0.3-6.6c-0.8,1.9-2.1,3.4-3.8,4.5s-3.8,1.9-6.3,2.2
				v-3c0.1-0.1,0.4-0.3,0.8-0.3c2-0.7,3.7-1.7,4.9-2.9c1.2-1.2,2.1-2.6,2.6-4.1c0.6-1.3,0.9-2.5,1.1-3.4l3.8-0.1L102.5,182.7z
				 M89.2,156.7l3.4,0.3c0,5.6-0.2,8.9-0.7,9.9l-3.5-0.4L89.2,156.7z M94,178.2l-4.2,0.1l0.1-10l19.2-0.1l-0.2,9.5h-4.1l-0.1-6.3
				c-1.9,0-3.8,0-5.6,0c-1.8,0-3.5,0.1-5.1,0.1V178.2z M98.5,156.6c0.1,2.8,0.1,5.7,0,8.7c0,0.1-0.1,0.3-0.1,0.5c0,0.2,0,0.4,0,0.7
				c-0.1,0.3-0.2,0.5-0.2,0.7c0,0.2-0.1,0.3-0.1,0.3h-3.5l0.4-11.7l3.5,0.2V156.6z M104.9,161.2l-0.7,6v0.1h-2.9
				c-0.1-0.1-0.2-0.1-0.4-0.1v-11.4l3.2,0.5l0.4,1.8h8l0.1,3l-3.7,0.1l2.8,6.2h-3.9c-0.4-0.7-0.7-1.3-0.9-1.7
				c-0.2-0.5-0.4-0.8-0.5-1.1c-0.1-0.2-0.2-0.4-0.2-0.6c0-0.1-0.1-0.3-0.1-0.3c-0.1-0.5-0.3-1-0.3-1.4c-0.1-0.4-0.1-0.7-0.2-1H104.9
				z"/>
			<path class="st1" d="M131.3,170.6l-8.1,0.3l0.5-3.4H134l1.2-1.7l2.9,0.3l-0.3,1.5h2.7l-0.1-1.4l-1.7-0.1l-0.6-10.6l10.4,0.6
				l-0.3,10.3l-4.8,0.1l0.1,1.3l2.1,0.3l0.1,2.9l-7.5-0.3c0.2,0.1,0.4,0.3,0.6,0.5c0.2,0.2,0.6,0.4,0.9,0.7c0.5,0.3,1.1,0.6,1.9,1.1
				c0.7,0.4,1.5,0.9,2.5,1.5l3.4,1.3l-1.4,2h2.6l-0.3,8.3h-11.2l0.2-8.7h4c-0.3-0.1-0.8-0.3-1.5-0.7c-0.6-0.3-1.4-0.8-2.3-1.3h0.2
				l-0.2-0.1c-0.1-0.1-0.3-0.2-0.4-0.2l-2.9-2.1l-5.9,2.9h5.8l-0.4,9.3l-11.5,0.7v-2.5l0.4-0.1l-0.3-5.7l-1.3,0.7l-0.5-2.9
				L131.3,170.6z M135.8,155.5l0.4,9.7l-13,0.3l-0.1-9.8L135.8,155.5z M130.6,181.9l-0.3-2.6H126v2.9L130.6,181.9z M132.4,158.5h-6
				v3.6l6.1,0.2L132.4,158.5z M145.2,183.1l0.4-2.6l-5.3-0.1c0,0.4,0,0.8,0,1.3c0,0.5,0.1,1,0.1,1.6L145.2,183.1z M145.2,159l-4-0.3
				l0.1,4.2l3.9,0.1V159z"/>
			<path class="st1" d="M172.2,156.7v7.8l7.7,0.2l0.1,11.5h-7.7v10.4h-4.4v-10.4L161,176l0.1-11.7h6.9l-0.3-7.3L172.2,156.7z
				 M165.1,172.8l2.7,0.2l0.1-5h-2.8V172.8z M172.2,168.1v4.5l3.6,0.1V168L172.2,168.1z"/>
			<path class="st1" d="M206.8,173.9l-3.6,1.9l-0.1,10.2h-5.3l-1.1-5h2.8l-0.1-4.6l-4.5,0.5v-4.2l4.4-1.1v-3.5h-3.9l0.3-4.4l3.6-0.2
				l0.3-7.7l3,0.2l0.3,7.5l2.1,0.3l0.3,3.5l-2.2,0.3v3.4l3.5-0.5L206.8,173.9z M220.4,162l-3.6,0.4l-0.1,23.5l-8.4-1.1l0.3-3.5
				l3.9-0.3l-0.1-18.3l-4.9,0.2l-0.4-4.5l13.3-0.1V162z"/>
			<path class="st1" d="M232.6,160.6l0.2-4.4l20.8,0.5v4.2l-4,0.2l-0.1,6.8l7.2,0.4l-0.3,4.5l-6.9-0.1l-0.3,13.2h-3.7l-0.2-13.4
				h-3.4l-0.5,13.4h-3.6l-0.1-13.7l-9-0.3v-4.9l9.1,0.2l0.1-6.9L232.6,160.6z M241.9,160.8v6.4h3.7v-6.4H241.9z"/>
		</g>
	</g>
	<g id="图层_5">
		<g>
			<path class="st1" d="M240,22.1V9.2l-1.3-1.3l0,0l-0.1-0.1c-0.2-0.2-0.4-0.3-0.6-0.5c-0.1-0.1-0.3-0.1-0.4-0.2
				c-0.1-0.1-0.3-0.2-0.4-0.2c-0.2-0.1-0.3-0.1-0.5-0.1c-0.1,0-0.2-0.1-0.4-0.1c-0.3-0.1-0.6-0.1-0.9-0.1l0,0l0,0
				c-0.3,0-0.6,0-0.9,0.1c-0.1,0-0.2,0.1-0.3,0.1c-0.2,0.1-0.4,0.1-0.6,0.2c-0.1,0-0.2,0.1-0.3,0.2c-0.2,0.1-0.3,0.2-0.5,0.3
				c-0.3,0.2-0.5,0.4-0.7,0.6l0,0l-21.2,21.2c-0.9,0.9-1.3,2-1.3,3.2l0,0c0,1.2,0.5,2.4,1.3,3.2c1.8,1.8,4.7,1.8,6.5,0l13.4-13.4
				v43.4c0,2.5,2,4.6,4.6,4.6c2.5,0,4.6-2,4.6-4.6L240,22.1L240,22.1z"/>
			<path class="st1" d="M259.9,29.1l-15-15V27l8.5,8.5c1.8,1.8,4.7,1.8,6.5,0S261.7,30.9,259.9,29.1z"/>
		</g>
	</g>
</g>
</svg>
