<?xml version="1.0" encoding="utf-8"?>
<!-- Generator: Adobe Illustrator 21.0.0, SVG Export Plug-In . SVG Version: 6.00 Build 0)  -->
<svg version="1.1" id="图层_1" xmlns="http://www.w3.org/2000/svg" xmlns:xlink="http://www.w3.org/1999/xlink" x="0px" y="0px"
	 viewBox="0 0 200 200" style="enable-background:new 0 0 200 200;" xml:space="preserve">
<style type="text/css">
	.st0{fill:#F77197;}
	.st1{fill:#FFFFFF;}
</style>
<g id="图层_3">
	<circle class="st0" cx="99.9" cy="100" r="95.5"/>
</g>
<path class="st1" d="M131.1,91.5h-22.9v-23c0-4.6-3.7-8.3-8.3-8.3c-4.6,0-8.3,3.7-8.3,8.3v23h-23c-4.6,0-8.3,3.8-8.3,8.3
	s3.7,8.3,8.3,8.3h23V131c0,4.5,3.7,8.3,8.3,8.3c4.6,0,8.3-3.7,8.3-8.3v-22.9h22.9c4.5,0,8.3-3.7,8.3-8.3
	C139.4,95.3,135.7,91.5,131.1,91.5z"/>
</svg>
