<?xml version="1.0" encoding="utf-8"?>
<!-- Generator: Adobe Illustrator 21.0.0, SVG Export Plug-In . SVG Version: 6.00 Build 0)  -->
<svg version="1.1" id="图层_1" xmlns="http://www.w3.org/2000/svg" xmlns:xlink="http://www.w3.org/1999/xlink" x="0px" y="0px"
	 viewBox="0 0 200 200" style="enable-background:new 0 0 200 200;" xml:space="preserve">
<style type="text/css">
	.st0{fill:#999999;}
</style>
<path class="st0" d="M100,25.8c18.1,0,33,14.9,33,33s-14.9,32.9-33,32.9s-33-14.9-33-33S81.9,25.8,100,25.8 M100,15.5
	c-23.9,0-43.2,19.4-43.2,43.2S76.2,102,100,102s43.2-19.4,43.2-43.2S123.9,15.5,100,15.5z M52.6,108.3c18.1,0,33,14.9,33,33
	c0,18.1-14.9,33-33,33s-33-14.9-33-33C19.6,123.1,34.4,108.3,52.6,108.3 M52.6,97.9c-23.8,0-43.2,19.4-43.2,43.3
	s19.4,43.2,43.2,43.2s43.2-19.4,43.2-43.2S76.5,97.9,52.6,97.9z M147.4,108.3c18.1,0,33,14.9,33,33c0,18.1-14.9,33-33,33
	s-33-14.9-33-33C114.4,123.1,129.3,108.3,147.4,108.3 M147.4,97.9c-23.9,0-43.2,19.4-43.2,43.2s19.4,43.2,43.2,43.2
	s43.2-19.4,43.2-43.2S171.3,97.9,147.4,97.9z"/>
</svg>
