<?xml version="1.0" encoding="utf-8"?>
<!-- Generator: Adobe Illustrator 21.0.0, SVG Export Plug-In . SVG Version: 6.00 Build 0)  -->
<svg version="1.1" id="图层_1" xmlns="http://www.w3.org/2000/svg" xmlns:xlink="http://www.w3.org/1999/xlink" x="0px" y="0px"
	 viewBox="0 0 200 200" style="enable-background:new 0 0 200 200;" xml:space="preserve">
<style type="text/css">
	.st0{fill:#D7D6D6;}
</style>
<path class="st0" fill="#D7D6D6" d="M176.9,69.4l-32.5-5c-8.1-1.2-15.6-6.9-18.7-14.4l-14.4-30c-4.4-10-18.1-10-23.1,0L74.4,50
	c-3.8,7.5-10.6,13.1-18.8,14.4l-32.5,5c-10,1.3-14.4,13.8-6.9,21.3l24.4,25c5.6,5.6,8.1,13.8,6.9,21.9l-5.6,35
	c-1.9,10.6,9.4,18.1,18.8,13.1l27.5-15c7.5-4.4,16.9-4.4,24.4,0l27.5,15c9.4,5,20-2.5,18.8-13.1l-6.3-35c-1.3-8.1,1.3-16.3,6.9-21.9
	l24.4-25C191.3,83.1,186.9,70.6,176.9,69.4z"/>
</svg>
