<?xml version="1.0" standalone="no"?><!DOCTYPE svg PUBLIC "-//W3C//DTD SVG 1.1//EN" "http://www.w3.org/Graphics/SVG/1.1/DTD/svg11.dtd"><svg t="1552008775333" class="icon" style="" viewBox="0 0 1024 1024" version="1.1" xmlns="http://www.w3.org/2000/svg" p-id="20480" xmlns:xlink="http://www.w3.org/1999/xlink" width="200" height="200"><defs><style type="text/css"></style></defs><path d="M488.740571 916.114286c-241.371429 0-438.857143-197.485714-438.857142-438.857143s197.485714-438.857143 438.857142-438.857143 438.857143 197.485714 438.857143 438.857143-197.485714 438.857143-438.857143 438.857143z m0-731.428572c-160.914286 0-292.571429 131.657143-292.571428 292.571429s131.657143 292.571429 292.571428 292.571428 292.571429-131.657143 292.571429-292.571428-131.657143-292.571429-292.571429-292.571429z" fill="#4C85FF" p-id="20481"></path><path d="M688.566857 688.566857c31.012571-31.012571 72.411429-31.012571 103.424 0l206.921143 206.921143c31.012571 31.012571 31.012571 72.411429 0 103.424-31.012571 31.012571-72.411429 31.012571-103.424 0l-206.921143-206.921143c-31.012571-31.012571-31.012571-72.411429 0-103.424z" fill="#4C85FF" p-id="20482"></path></svg>