<?xml version="1.0" encoding="utf-8"?>
<!-- Generator: Adobe Illustrator 21.0.0, SVG Export Plug-In . SVG Version: 6.00 Build 0)  -->
<svg version="1.1" id="图层_1" xmlns="http://www.w3.org/2000/svg" xmlns:xlink="http://www.w3.org/1999/xlink" x="0px" y="0px"
	 viewBox="0 0 200 200" style="enable-background:new 0 0 200 200;" xml:space="preserve">
<style type="text/css">
	.st0{fill:#CACACA;}
</style>
<path class="st0" d="M145.7,94.3L66.3,13.7c-1.4-1.4-3.4-2.2-5.5-2.2s-4.2,0.7-5.9,2.1l-0.6,0.6c-2.8,3.5-2.8,8.4,0,11.9l73.1,73.7
	l-73.1,73.7c-0.2,0.2-1,1.2-1.6,2.6c-0.3,0.7-1.1,2.8-0.5,5.4c0.5,2.1,1.7,3.5,2.3,4.1c0.4,0.4,2.4,2.6,5.9,2.8
	c3.3,0.1,5.5-1.7,5.9-2.1l79.4-80.7C148.6,102.8,148.6,97.2,145.7,94.3z"/>
</svg>
