<?xml version="1.0" encoding="utf-8"?>
<!-- Generator: Adobe Illustrator 21.0.0, SVG Export Plug-In . SVG Version: 6.00 Build 0)  -->
<svg version="1.1" id="图层_2" xmlns="http://www.w3.org/2000/svg" xmlns:xlink="http://www.w3.org/1999/xlink" x="0px" y="0px"
	 viewBox="0 0 3186.3 2724.3" enable-background="new 0 0 3186.3 2724.3" xml:space="preserve">
<g id="color_x5F_01_1_">
	<g id="form_1_">
		<path display="none" fill="none" stroke="#000000" stroke-width="14" stroke-linecap="round" stroke-linejoin="round" d="
			M1541.6,589.3c-52.5,2.3-122.3,16.8-188,73.3c-2.4,2-4,3.5-5.7,5c-81.6,73.6-127,181.5-134.5,205.8
			c-7.2,23.3-4.7,117.4-46.2,175.8c-11.3,16-42.5,105.7,17.3,196.2c16,24.1,85.6,109.4,156.7,146.2c53.3,27.6,131.7,64.8,262.3,65.2
			c109.3,0.3,203.3-17.3,331-92.1c39.6-23.2,80.6-71.5,114.8-119.4c35-49.2,45.3-153.9,10.9-199.1c-22.2-29.2-41.7-154.7-54-189.9
			c-30.7-88-60.5-140.3-118.8-188.5c-80.7-66.8-174.7-76.9-219-81.7C1616,580.6,1571.8,584.6,1541.6,589.3z"/>
		<path fill="#9D7344" d="M1398.4,1378.7c-58.2,82.9-85.9,155-100.3,206c-20.4,71.9-10.2,96.1-42.1,135.6
			c-66.8,82.8-88.6,106-95.2,160.1c-7.8,64.9,51.3,89.9,51.3,89.9s-59.7,5.9-77.3,76.1c-7.4,29.7-7.4,85,43.1,81.2
			c5.4-0.4,28.9,36.8,74,18c11.6-4.8,9.6,30.5,96.6,1.6c8.7-2.9,33.1,26.1,109.8-0.4c6-2.1,36.5,31,105.7-7.5
			c3.3-1.8,28.1,3.3,54.1-14.2c6.4-4.3,20.2,25.5,59.1,12.6c8.2-2.7,24,36.3,101.2,8.4c11.8-4.3,18.7,31.2,109.1-0.6
			c13.4-4.7,24.5,33.5,90.4,2.5c9.1-4.3,55.8,22.6,76.4-17c5-9.6,53.8,1.7,55.5-51.3c1.3-42.7-10.6-98.5-80.3-107.7
			c-11.9-1.6,57.7-17.8,48.8-97.3c-3-26.8-47.4-92.8-94-146.7c-36.1-41.8-20.3-63.3-46.3-145.3c-16.4-51.8-45.2-124.6-99-208.4"/>
		<path fill="#9D7344" d="M1310.3,1650.8c0,0,5,191.9,70.8,296.8c0,0-138.9,97.6-26.2,199.7c32.3,29.3,103.5-0.3,103.5-0.3"/>
		<path fill="#9D7344" d="M1922.5,1640.8c0,0-5,191.9-70.8,296.8c0,0,138.7,112.1,23.2,205.8c-39.2,31.8-96.2,2.8-96.2,2.8"/>
		<path fill="#9D7344" d="M1510.6,1650.8c0,0-5.8,131-1.7,166.8c3.6,31.8,10,101,14.5,106.5c4.5,5.6,119.9,31.2,99.8,188.5
			c-3.8,29.8-58.6,30.1-61.9,25.1"/>
		<path fill="#9D7344" d="M1730.6,1637.8c0,0-14.6,66-9.8,120.1c3.9,44.1-6.8,173.1-16.7,172.9c-29.8-0.6-92.2,61.6-83.4,93.6
			l6.6,37.2l-1.7,61.5"/>
		<path fill="#9D7344" d="M1556.9,2141.4c9.6-7.6,4.4-135.3-36.3-154.8"/>
		<path fill="#9D7344" d="M1455.3,2148c3.1-4.4-8.7-105.8-44.6-122.4"/>
		<path fill="#9D7344" d="M1984.3,2148c2.9-4.6-8.1-112.6-41.6-130.2"/>
		<path fill="#9D7344" d="M2050,2135.5c2.9-4.3,19-88.1-35.9-115.5"/>
		<path fill="#9D7344" d="M1781.7,2143.9c0,0-8.9-84.2,44.1-120.5"/>
		<path fill="#9D7344" d="M1680.1,2135.5c0,0-12.6-122.7,40.7-148.9"/>
		<path fill="#9D7344" d="M1255.2,2143.9c0,0-11.2-102.3,42.1-128.5"/>
		<path fill="#9D7344" d="M1184,2131.1c0,0-19.1-83.1,34.2-109.3"/>
		<path fill="#9D7344" d="M1208.5,1968.6c0,0,65.3,31,135.6,14"/>
		<path fill="#9D7344" d="M2032.1,1969.6c0,0-74.7,39-135.9,18.2"/>
		<path fill="#9D7344" d="M1718.6,2096.7c-3.3,13.2,6.1,28.4,12.4,28.8c10.7,0.8,21.9-40,12.8-45.9
			C1738.2,2076,1722,2082.9,1718.6,2096.7z"/>
		<path fill="#9D7344" d="M1639.5,2084.7c-2.1,8.6,4.4,18.6,8.6,18.9c7.1,0.6,14.2-25.8,8-29.8
			C1652.4,2071.4,1641.6,2075.7,1639.5,2084.7z"/>
		<path fill="#9D7344" d="M1517.2,2098.8c1.7,12.5-8.5,25.4-14.3,25.2c-9.9-0.4-16.1-39-7-43.5
			C1501.3,2077.8,1515.5,2085.7,1517.2,2098.8z"/>
		<path fill="#9D7344" d="M1603.2,2082.4c2.6,11.9-7.2,26-13.3,26.7c-10.4,1.1-19.4-35.5-10.2-41.2
			C1585.2,2064.4,1600.5,2070,1603.2,2082.4z"/>
		<path fill="#9D7344" d="M1412.3,2109.2c1.4,10.7-7.8,22-12.9,21.8c-8.7-0.2-13.8-33.4-5.7-37.4
			C1398.4,2091.3,1410.8,2098,1412.3,2109.2z"/>
		<path fill="#9D7344" d="M1270.3,2100.1c0.3-10.2,10.3-19.3,14.9-18.3c7.9,1.6,7.7,33.4-0.2,35.8
			C1280.4,2119,1270,2110.8,1270.3,2100.1z"/>
		<path fill="#9D7344" d="M1199.8,2087.1c0.3-10.1,9.9-19,14.5-18.1c7.7,1.6,7.6,33-0.1,35.4
			C1209.6,2105.8,1199.5,2097.7,1199.8,2087.1z"/>
		<path fill="#9D7344" d="M1148.6,2074c0.5-9.4,10.5-17.8,15.2-17c7.8,1.3,7,30.4-0.8,32.8C1158.2,2091.2,1148,2083.9,1148.6,2074z"
			/>
		<path fill="#9D7344" d="M1820.1,2101.8c-2.7,13,8.7,28.8,15.6,29.7c11.8,1.6,21.2-38.5,10.7-45.1
			C1840.1,2082.5,1822.9,2088.1,1820.1,2101.8z"/>
		<path fill="#9D7344" d="M1954.3,2107.3c-2.2-8.9-13.8-15.1-18.2-13.6c-7.6,2.6-1.4,30.2,6.9,31.1
			C1947.8,2125.2,1956.6,2116.5,1954.3,2107.3z"/>
		<path fill="#9D7344" d="M2029.8,2097.2c-2.2-10.1-13.7-17.1-18.2-15.4c-7.6,3-1.6,34.3,6.7,35.3
			C2023.3,2117.7,2032,2107.7,2029.8,2097.2z"/>
		<path fill="#9D7344" d="M2090.6,2077.1c-2.1-8-13.1-13.7-17.3-12.3c-7.2,2.3-1.3,27.2,6.6,28
			C2084.6,2093.3,2092.8,2085.5,2090.6,2077.1z"/>
		<path fill="#9D7344" d="M1366.2,638.8c-128.3-115.1-289.5-240.7-351.5-197.9c-38.9,26.8-25.1,110.6-16.2,164.6
			c27.8,168.7,134.6,286.2,204.1,348.5"/>
		<path fill="#9D7344" d="M1262.4,746.2c0,0-104.1-181.4-219.4-250.6"/>
		<path fill="#9D7344" d="M1861.3,638.8c128.3-115.1,289.5-240.7,351.5-197.9c38.9,26.8,25.1,110.6,16.2,164.6
			c-27.8,168.7-134.6,286.2-204.1,348.5"/>
		<path fill="#9D7344" d="M1965.2,746.2c0,0,104.1-181.4,219.4-250.6"/>
		<path fill="#9D7344" d="M1177.1,1939c-25.9,5.6-134,25.8-216.4-38.7c-64.6-50.6-85.1-128.9-96.6-174
			c-21.7-84.5-11.2-154.2-23-155.3c-10.2-1-24.6,50.5-29,68.3c-4.3,17.6-6.3,32.8-7.3,44c-3.6-1.7-8.2-4.5-12.7-9
			c-9.6-9.7-12.2-21.1-13-26c-7.9,13.7-30.4,56.8-23,114c6.2,48.1,30.3,80.2,41,93c11,12.6,12.1,16.7,11,18c-0.5,0.6-3,2.5-37-15
			c-24.2-12.4-26.4-15.2-28-14c-11.5,8.6,22.6,139.6,130,199c80.9,44.7,183.7,37.9,267.5-14.5c4.3-9.9,17-35.8,45.7-50.1
			c9.4-4.7,18.4-7.1,25.8-8.3c-4.9-1.3-15.7-4.9-24.9-14.9C1181.7,1949.5,1178.7,1943.2,1177.1,1939z"/>
		<path fill="#9D7344" d="M1614.1,564.3c-40.3-1.7-130.2,0.3-221,55c-20.5,12.4-67.1,43.2-109.2,99c-9.2,12.3-51,69.3-70.9,157
			c-19.3,85-8.5,156.8,1.1,197.8c-14.2,1.1-38.7,4.8-65,19.2c-26.1,14.4-41.1,32.3-49,42c-29.8,36.5-39.1,75.9-42.3,98
			c5.8-9.8,21.4-33,51.7-48.1c26.4-13.2,50.7-13.5,62.1-13c-6.9,3-17.9,9-28,20.1c-8.3,9.2-12.4,17.9-15.1,23.9
			c-3.9,8.5-9.1,22.8-10,42c42.4-42.3,69.5-46.5,86.6-42.2c26.6,6.7,32.9,35,66,73.4c27.8,32.1,54.7,48.5,93.1,71.9
			c95.3,58.1,205.1,66.5,250.1,68.1"/>
		<path fill="#9D7344" d="M1603.5,564c40.7-2.5,136.3-2.6,231.9,55.3c52.9,32,88.2,71.1,109.2,99c9.2,12.3,51,69.3,70.9,157
			c19.3,85,8.5,156.8-1.1,197.8c14.2,1.1,38.7,4.8,65,19.2c26.1,14.4,41.1,32.3,49,42c29.8,36.5,39.1,75.9,42.3,98
			c-5.8-9.8-21.4-33-51.7-48.1c-26.4-13.2-50.7-13.5-62.1-13c6.9,3,17.9,9,28,20.1c8.3,9.2,12.4,17.9,15.1,23.9
			c3.9,8.5,9.1,22.8,10,42c-42.4-42.3-69.5-46.5-86.6-42.2c-26.6,6.7-32.9,35-66,73.4c-27.6,32-54.2,48.2-93.1,71.9
			c-101.7,62-227.6,66.8-266.2,67.3"/>
	</g>
	<g>
		<path fill="#8B5F35" d="M1510.3,1658.2c-8.6,1.3,2.5,52.8-3,139c0,0-6.6,104.5,16.7,127.6c1.7,1.7,3.6,3,3.6,3
			c3.8,2.4,7.5,2.6,21.3,11c15.2,9.3,35.3,21.7,48.3,43.2c10.7,17.7,9.3,29.7,15.4,30.4c8.9,0.9,8.6-25.4,32.8-47.5
			c9.8-8.9,27.9-25.5,47.9-30.9c2.6-0.7,9.3-2.3,13.8-8.1c5-6.6,4.2-15,4-17.9c-2.2-28.3,13-46.9,11.8-119.6c0-0.3,0-0.4,0-0.9
			c-0.5-27.7-1-58.7,1.2-87.3c2.6-34,7.9-50.4,4.6-51.5c-4.3-1.4-16.4,25.4-17.3,27.5c-22.9,51.1-10.4,72.1-27.3,102.7
			c-13.3,24-42.3,49.6-72.4,46.9c-33.4-2.9-54-39.2-56.9-44.3c-15.8-27.8-8-46.8-28.7-96.7
			C1519.4,1669.5,1514.5,1657.6,1510.3,1658.2z"/>
		<path fill="#8B5F35" d="M1311.1,1667.2c-4.7-0.1-5.2,98.7,0.3,182.4c0,0,4.4,66.1,39.7,110.9c1.6,2,5.2,6.1,10.5,6.7
			c10.3,1.1,22.4-12.1,20.9-21.8c-1-6.4-7.8-10.1-9-10.8c-12.5-7.6-30.6-57-57.2-204.2C1314.7,1678.6,1312.7,1667.2,1311.1,1667.2z"
			/>
		<path fill="#8B5F35" d="M1923.3,1658.6c4.7-0.1,5.2,98.7-0.3,182.4c0,0-4.4,66.1-39.7,110.9c-1.6,2-5.2,6.1-10.5,6.7
			c-10.3,1.1-22.4-12.1-20.9-21.8c1-6.4,7.8-10.1,9-10.8c12.5-7.6,30.6-57,57.2-204.2C1919.7,1670,1921.7,1658.6,1923.3,1658.6z"/>
		<path fill="#8B5F35" d="M1823,2023.8c-2.1-1.7-31.3,21.2-49.2,57.9c0,0-15,30.7-7.5,55.8c0.7,2.4,2.5,8.4,7.5,10.3
			c3.3,1.2,6.9,0.4,8.6-0.5c9.3-4.8,0.3-29.7,1.2-51.5C1785.3,2052.9,1825.3,2025.7,1823,2023.8z"/>
		<path fill="#8B5F35" d="M1212.1,2025.2c-1.6-1.4-24.4,17.2-38.3,46.8c0,0-11.7,24.8-5.9,45.2c0.6,2,2,6.8,5.9,8.4
			c2.5,1,5.4,0.3,6.7-0.4c7.3-3.9,0.2-24.1,0.9-41.7C1182.8,2048.8,1214,2026.8,1212.1,2025.2z"/>
		<path fill="#8B5F35" d="M1290.3,2015.7c-1.9-1.8-28.2,21.9-44.3,59.6c0,0-13.5,31.6-6.8,57.5c0.7,2.5,2.3,8.7,6.8,10.7
			c2.9,1.3,6.2,0.4,7.7-0.5c8.4-5,0.3-30.6,1.1-53.1C1256.4,2045.8,1292.4,2017.7,1290.3,2015.7z"/>
		<path fill="#8B5F35" d="M1414.6,2027.8c1.9-1.7,28.8,20.9,45.3,57.1c0,0,13.8,30.2,6.9,55c-0.7,2.4-2.3,8.3-6.9,10.2
			c-3,1.2-6.3,0.4-7.9-0.5c-8.6-4.8-0.3-29.3-1.1-50.8C1449.2,2056.6,1412.4,2029.8,1414.6,2027.8z"/>
		<path fill="#8B5F35" d="M1531.5,1992.4c1.6-2.1,24.1,25.4,37.9,69.2c0,0,11.5,36.7,5.8,66.8c-0.6,2.9-1.9,10.1-5.8,12.4
			c-2.5,1.5-5.3,0.5-6.6-0.6c-7.2-5.8-0.2-35.6-0.9-61.6C1560.5,2027.2,1529.7,1994.7,1531.5,1992.4z"/>
		<path fill="#8B5F35" d="M1709.4,1989.5c-1.6-2.1-24.4,25.4-38.4,69.2c0,0-11.7,36.7-5.9,66.8c0.6,2.9,2,10.1,5.9,12.4
			c2.5,1.5,5.4,0.5,6.7-0.6c7.3-5.8,0.2-35.6,0.9-61.6C1680,2024.4,1711.2,1991.8,1709.4,1989.5z"/>
		<path fill="#8B5F35" d="M1946.4,2020.2c1.8-1.8,27.3,22,43,59.8c0,0,13.1,31.7,6.6,57.7c-0.6,2.5-2.2,8.7-6.6,10.7
			c-2.8,1.3-6,0.4-7.5-0.5c-8.1-5-0.3-30.8-1-53.3C1979.2,2050.3,1944.3,2022.2,1946.4,2020.2z"/>
		<path fill="#8B5F35" d="M2019.2,2020.1c1.8-1.5,27.3,18.9,43,51.6c0,0,13.1,27.4,6.6,49.8c-0.6,2.2-2.2,7.5-6.6,9.2
			c-2.8,1.1-6,0.3-7.5-0.5c-8.1-4.3-0.3-26.5-1-46C2052.1,2046.1,2017.1,2021.9,2019.2,2020.1z"/>
		<path fill="#8B5F35" d="M1038.1,493.5c1.6-1.8,47.3,30.1,93,73.8c55.6,53.1,139.1,176.2,139.1,176.2l-31.7,59.2
			c0,0-36.5-126.6-134.5-235.6C1068.2,527.4,1036.7,495.1,1038.1,493.5z"/>
		<path fill="#8B5F35" d="M2183.5,495c-1.6-1.8-46.4,31.6-90.7,76.6c-53.9,54.8-133.7,180.3-133.7,180.3l33.4,58.3
			c0,0,32.6-127.6,127.3-239.5C2154.4,529.8,2185,496.6,2183.5,495z"/>
		<path fill="#8B5F35" d="M1140.6,2028.8c0,0-33.6,24.9-72.2,32.6c-45.5,9.1-68.9,13.9-103.5,10.2c-38.2-4-65.7-15.7-74.1-19.5
			c-7.9-3.5-38.8-17.8-70.4-48.2c-20.6-19.9-32.5-37.9-42.1-52.6c-18.3-28.1-30.4-55.7-36.1-86.3c-2-10.7-2.9-16-0.9-17.3
			c13.3-8.5,72.8,140.8,187.7,176.7c99.9,31.2,220.4-12.5,220.4-12.5L1140.6,2028.8z"/>
		<path fill="#8B5F35" d="M775.1,1655.6c-15.1,37.3-22.7,56-24,78c-1.9,32.3,6.9,56.1,14,75.3c6.3,17,16.3,37.6,36,54
			c8.2,6.8,10,6.2,10.5,5.8c5.8-3.8-26.1-43-36.6-102.4c-2.3-12.9-7.1-39.9-2.7-74c2.6-20.1,8.6-43.6,6.7-44.1
			C778.2,1648.1,776.1,1653.4,775.1,1655.6z"/>
		<path fill="#8B5F35" d="M1202.7,954c0,0-14.3,0-65.9-66.7c-41.4-53.4-62-80.1-82-117.9c-24.9-47.2-38.4-88.5-45.6-114.4
			c-6.7-24-10.5-49.6-18.2-100.7c-2.2-15-6.6-45.8,2-78.9c2.9-11.5,7.2-22.4,17-30.8c10.6-9.2,22.7-11.1,29.1-12
			c22-3.2,40.3,3.9,58.1,11.9c41.6,18.6,71.8,38.3,82.7,45.5c27.9,18.5,47.3,33.4,71.4,51.9c31.8,24.4,47.7,36.6,68.5,56.3
			c12,11.3,36.8,35.7,37.9,36.8c0,0,0,0,0,0c0,0-3.3-4.5-7.6-10.4c4.8,5.9,9.5,11.8,14.3,17.7l-18.7,10.7c0,0-23.8-20.1-41.3-42
			c-4.1-5.1-21.2-19.5-55.3-48c-46.4-38.8-69.7-58.3-74.7-62c0,0-31.7-23.9-82-50c-12.3-6.4-28.7-14.4-49.3-12
			c-4.8,0.6-18.5,2.2-29.3,11.3c-6.2,5.2-17.5,18-17.3,61.3c0,8.8,0.6,41.9,21.5,105.3c13.4,40.7,27.1,69.1,30.5,76.1
			c17.2,35.4,33.7,60.1,46.7,79.3c16.3,24.2,31.4,46.6,56,72.7c21.9,23.2,42.5,40,57.7,51.3C1206.8,915.5,1204.7,934.8,1202.7,954z"
			/>
		<path fill="#8B5F35" d="M2024.8,954c0,0,14.3,0,65.9-66.7c41.4-53.4,62-80.1,82-117.9c24.9-47.2,38.4-88.5,45.6-114.4
			c6.7-24,10.5-49.6,18.2-100.7c2.2-15,6.6-45.8-2-78.9c-2.9-11.5-7.2-22.4-17-30.8c-10.6-9.2-22.7-11.1-29.1-12
			c-22-3.2-40.3,3.9-58.1,11.9c-41.6,18.6-71.8,38.3-82.7,45.5c-27.9,18.5-47.3,33.4-71.4,51.9c-31.8,24.4-47.7,36.6-68.5,56.3
			c-12,11.3-36.8,35.7-37.9,36.8c0,0,0,0,0,0c0,0,3.3-4.5,7.6-10.4c-4.8,5.9-9.5,11.8-14.3,17.7l18.7,10.7c0,0,23.8-20.1,41.3-42
			c4.1-5.1,21.2-19.5,55.3-48c46.4-38.8,69.7-58.3,74.7-62c0,0,31.7-23.9,82-50c12.3-6.4,28.7-14.4,49.3-12
			c4.8,0.6,18.5,2.2,29.3,11.3c6.2,5.2,17.5,18,17.3,61.3c0,8.8-0.6,41.9-21.5,105.3c-13.4,40.7-27.1,69.1-30.5,76.1
			c-17.2,35.4-33.7,60.1-46.7,79.3c-16.3,24.2-31.4,46.6-56,72.7c-21.9,23.2-42.5,40-57.7,51.3
			C2020.7,915.5,2022.8,934.8,2024.8,954z"/>
		<path fill="#8B5F35" d="M1398.4,1378.7c-8,11.7-16,23.5-24,35.2c18.8,11.2,47.8,26.8,85.5,39.7c131.2,45.1,248.2,17.6,294.2,3.9
			c26.6-8,64.7-21.8,107.5-46.7c-7.5-12.2-14.9-24.4-22.4-36.6l-67,31l-90,16.9l-105.9,3.6l-118.1-22.5L1398.4,1378.7z"/>
		<path fill="#8B5F35" d="M1398.4,1378.7c-17.8-0.7-36.2,46.3-50.5,82.4c-52.2,132.1-52.8,129.2-55,143.3
			c-5.4,34.3-3.4,57.3-20.7,90.4c-5,9.5-13.5,20.7-30.4,43.1c-35.5,47-43.2,50.2-58.1,76.6c-16.9,29.8-20.5,49.4-21.8,58.6
			c-1.7,12.1-3.6,27.2,2.5,45.3c7.2,21.1,21.1,33.4,26.1,37.7c11.4,9.8,21.8,13.9,35,18.9c23.9,9.1,41.8,10.3,77.7,12.5
			c18.1,1.1,29.3,0.9,40.9-5.1c5.5-2.8,9.5-8.7,18.1-19.2c11.9-14.6,17.9-22,16.4-25.2c-3.4-7.2-28.4,3.3-71,4
			c-19.6,0.3-39.3,0.5-61.5-8.9c-13.2-5.5-28.5-12-37.5-27.1c-14.1-23.9-2.9-53.9,5.5-76.5c4.5-12,8.5-19.2,37.9-65.1
			c35-54.8,36.6-56,40.9-65.6c15.6-34.5,5.6-42.2,16.4-92.2c11.7-54,34.5-97.1,57.4-140.1c13.9-26.2,20.9-39.3,23.5-43
			c6.5-9.2,10-20.2,16.6-29.4c2-2.8,5.3-7.1,3.9-10.6C1408.8,1379.1,1399.7,1378.8,1398.4,1378.7z"/>
		<path fill="#8B5F35" d="M1840.1,1389.7c17.8-0.7,36.2,46.3,50.5,82.4c52.2,132.1,52.8,129.2,55,143.3c5.4,34.3,3.4,57.3,20.7,90.4
			c5,9.5,13.5,20.7,30.4,43.1c35.5,47,43.2,50.2,58.1,76.6c16.9,29.8,20.5,49.4,21.8,58.6c1.7,12.1,3.6,27.2-2.5,45.3
			c-7.2,21.1-21.1,33.4-26.1,37.7c-11.4,9.8-21.8,13.9-35,18.9c-23.9,9.1-41.8,10.3-77.7,12.5c-18.1,1.1-29.3,0.9-40.9-5.1
			c-5.5-2.8-9.5-8.7-18.1-19.2c-11.9-14.6-17.9-22-16.4-25.2c3.4-7.2,28.4,3.3,71,4c19.6,0.3,39.3,0.5,61.5-8.9
			c13.2-5.5,28.5-12,37.5-27.1c14.1-23.9,2.9-53.9-5.5-76.5c-4.5-12-8.5-19.2-37.9-65.1c-35-54.8-36.6-56-40.9-65.6
			c-15.6-34.5-5.6-42.2-16.4-92.2c-11.7-54-34.5-97.1-57.4-140.1c-13.9-26.2-20.9-39.3-23.5-43c-6.5-9.2-10-20.2-16.6-29.4
			c-2-2.8-5.3-7.1-3.9-10.6C1829.7,1390.1,1838.9,1389.8,1840.1,1389.7z"/>
		<path fill="#8B5F35" d="M1052.1,1239.8c-0.7-0.5,33.1-84.4,85.1-93.2c24.7-4.2,47.4,9.6,61.2,20.2c-17.9-2.1-43-2.4-69.8,7
			c-7.3,2.6-17.3,6.2-28.5,14c-11.3,7.9-18.7,16.5-31,31c-3.9,4.6-7,8.4-9.3,11.5C1057.3,1233.5,1055.5,1242.1,1052.1,1239.8z"/>
		<path fill="#8B5F35" d="M2175.4,1239.8c0.7-0.5-33.1-84.4-85.1-93.2c-24.7-4.2-47.4,9.6-61.2,20.2c17.9-2.1,43-2.4,69.8,7
			c7.3,2.6,17.3,6.2,28.5,14c11.3,7.9,18.7,16.5,31,31c3.9,4.6,7,8.4,9.3,11.5C2170.2,1233.5,2172,1242.1,2175.4,1239.8z"/>
		<path fill="#8B5F35" d="M1613.8,1429.6c0-18.8,0-37.6,0-56.3c-36.1-0.3-121.7-4-199.8-40.5c-19.3-9.1-42.6-19.9-68.3-41.5
			c-20.3-17-40.9-34.3-59.9-61.6c-5.3-7.6-15.6-23.4-34.6-37.4c-12.5-9.2-20.7-11.7-23.5-12.5c-19.1-5.3-36,0.9-43.8,3.8
			c-46.4,17.6-67.9,71.5-65.3,73.5c1.4,1,10.5-13.2,34-28.2c5.3-3.4,14.8-9,28-12.7c8.6-2.4,15.6-4.2,23.3-2
			c10.2,2.9,15.9,11.2,19.3,16c11.6,16.2,26.2,30.1,38.2,46c18.1,23.9,36.4,38.5,53.4,52c24.6,19.6,45.5,30.6,64.2,40.5
			c39,20.5,72.3,31.5,89.9,36.8c28.5,8.5,19.3,2.9,77.7,16.7C1590.8,1432.7,1613.8,1429.6,1613.8,1429.6z"/>
		<path fill="#8B5F35" d="M1613.8,1429.6c0-18.8,0-37.6,0-56.3c36.1-0.3,121.7-4,199.8-40.5c19.3-9.1,42.6-19.9,68.3-41.5
			c20.3-17,40.9-34.3,59.9-61.6c5.3-7.6,15.6-23.4,34.6-37.4c12.5-9.2,20.7-11.7,23.5-12.5c19.1-5.3,36,0.9,43.8,3.8
			c46.4,17.6,67.9,71.5,65.3,73.5c-1.4,1-10.5-13.2-34-28.2c-5.3-3.4-14.8-9-28-12.7c-8.6-2.4-15.6-4.2-23.3-2
			c-10.2,2.9-15.9,11.2-19.3,16c-11.6,16.2-26.2,30.1-38.2,46c-18.1,23.9-36.4,38.5-53.4,52c-24.6,19.6-45.5,30.6-64.2,40.5
			c-39,20.5-72.3,31.5-89.9,36.8c-28.5,8.5-19.3,2.9-77.7,16.7C1636.7,1432.7,1613.8,1429.6,1613.8,1429.6z"/>
		<path fill="#8B5F35" d="M1211.6,1975.3c-0.6-1.2-39,5.2-60.8,34.6c-9.2,12.3-12.6,24.8-17.1,41.7c-4.5,16.9-7.8,29.8-4.1,45.7
			c0.4,1.5,7.3,30.1,21.5,32c4.7,0.6,8.9-1.9,21.5-1.4c3.7,0.1,5.5,0.2,7.4,0.7c9.1,2.2,10.9,8.5,18.8,14.4
			c8.9,6.5,18.4,7.3,28.2,8.1c7.2,0.6,12.6,1,16.9-2.5c2.5-2,3.3-4.2,5.7-4.4c3.6-0.3,6.1,4.2,9.5,7.6c5.7,5.8,12.7,7.3,21,9
			c11.1,2.3,19.6-0.1,35.9-4.6c20.6-5.7,24.7-5.7,26.1-9.4c2-5.3-1.9-13.6-8-17c-9.6-5.4-17.1,5.4-38,6c-12.8,0.3-25.6-3.4-32.8-5.5
			c-7.8-2.3-12.7-4.5-21.7-5c-5.6-0.3-6.6,0.4-15.5,0c-11.5-0.5-16.4-2-18-2.5c-4.7-1.5-8.4-3.4-11-5c-6.9-4.2-7.5-6.8-12.1-9.8
			c-9-5.8-14.8-0.6-22.2-4.4c-11.8-6.1-12.2-27.3-12.4-36.4c-0.3-17.7,5.3-30.9,9.1-39.5c2.8-6.3,9.3-20.7,23.5-34
			C1198.1,1979.8,1212,1976,1211.6,1975.3z"/>
		<path fill="#8B5F35" d="M1846.1,1938.3c2.6-2.3,24.5,15.8,41.5,37.3c14.3,18.2,20.9,33.4,23.2,38.9c3.5,8.6,7.6,18.7,9.1,32.5
			c2.9,27.2-6.7,48.7-10.7,56.6c-10.4,20.4-25.2,32.3-35.8,40.8c-6.3,5-9.4,7.5-13.4,9.6c-19.3,9.6-46.3,8.2-66.1-1.7
			c-5.6-2.8-8.9-5.5-15.4-6.1c-10.4-1-14.5,4.6-26.1,7.5c-7.3,1.8-16,0.6-33.4-1.8c-15.1-2.1-23.2-3.3-32-9c-4.4-2.8-4.7-3.9-8-5.1
			c-10.3-3.6-15.2,4.4-28,2.7c-7.4-1-13.6-4.7-17.5-7c-6.8-4-8.2-5.5-8.6-6.1c-3.5-5.6-0.6-12.4,1.1-19.6c0.6-2.6,0.7-11.9,0.8-30.5
			c0.3-37.5-9.6-48.1-5.6-69.3c6.4-33.2,39.5-53.2,41.3-51.6c1.5,1.3-16.8,16.9-24,46.5c-3.3,13.7-0.3,13.4-1.8,45.4
			c-1.7,37.6-6.8,53.1,3.5,62.5c5.1,4.7,12.4,6.4,13.3,6.5c11.1,2.4,15.9-3.1,25.3-2c10.4,1.2,10,8.5,23.7,16
			c20.1,11.1,41.9,6.9,44,6.5c13.1-2.7,12.7-7.4,24.5-8.5c10.5-0.9,14.1,2.5,33,6.5c14.9,3.2,22.3,4.8,30,4
			c19.5-1.9,33.1-14.9,39.7-21.3c5-4.8,18.2-17.8,23.3-39.2c3.6-15.1,1.5-27.1-0.7-38.8c-1.5-7.7-4.9-22.5-21.3-52.7
			C1857.2,1954.4,1844,1940.2,1846.1,1938.3z"/>
		<path fill="#8B5F35" d="M2063.1,1981.8c1.8-1.7,19.7,10.6,32.4,29.9c12.2,18.8,14.5,36.5,16.1,49.5c2.4,18.7,4.3,34-5,45
			c-6.3,7.4-17.8,13-18.8,13.4c-4.1,1.9-8.1,3.8-13.9,4.8c-9.8,1.6-14.3-1.2-18.3,2.3c-2.9,2.5-1.4,4.7-4.9,10.3
			c-3.2,5.2-7.4,8-9.8,9.6c-6.9,4.6-13.6,5.5-18.6,6.2c-4.2,0.5-13.6,1.6-24.1-2.1c-6.8-2.4-8.2-4.8-13.5-4.9
			c-6.7-0.1-11.5,3.6-14.6,5.7c-14.8,9.8-33.4,8.9-43.6,8.4c-9.3-0.5-24.7-0.5-35.8-10.7c-2.3-2.1-3.8-3.5-4.5-6
			c-2.6-9.4,12.2-16.4,24.5-33.5c2-2.7,14.9-21,16.5-44.5c1.3-18.8-5.1-33.2-4-33.5c1-0.3,7.6,11.4,10,25.5
			c6.9,39.9-24.6,66.8-14,79c7.7,8.9,31.1,2.7,33.5,2c2.7-0.7,8.3-2.3,14.5-6.5c9.5-6.4,8.5-11,14-13c10-3.6,16.3,10.7,34,11.5
			c10.4,0.4,18.5-4.1,21.5-6c2.5-1.6,10.7-7,14.6-17c2.7-6.9,0.8-9.7,3.4-11.5c6.2-4.4,18.2,11.4,30,8c7.7-2.2,11.2-11.3,13.3-16.5
			c5.8-14.8,3.1-29.9-1.3-43.5C2084.2,2005,2060.9,1983.9,2063.1,1981.8z"/>
		<path fill="#8B5F35" d="M1385.8,1950.3c-3.7-3.5-44,23.5-64.2,67c-8.7,18.8-10.1,32.7-10.3,36.2c-1.9,23.9,5.9,42.2,9,49.3
			c8.9,20.3,21.6,32,24.5,34.6c7.3,6.6,15.7,14.2,28.7,17.6c15.8,4.1,16.5-3.7,41.7-1.9c14.7,1.1,24.8,4.4,32-2
			c3-2.7,4.6-6.2,8.6-6.7c4.3-0.5,7.1,2.9,12.2,6.1c5.8,3.7,10.7,4.6,19.6,6.4c8,1.6,19,3.8,30.6-0.1c8.7-2.9,7.6-5.9,19.6-10.4
			c8.2-3.1,15.2-4.3,19.1-4.9c8.9-1.4,9.4-0.3,20.3-1.3c10.6-1,19.2-1.8,28.7-6.4c6.2-3,9.6-4.6,12.4-8.5c5.8-8,2-16.1,2.9-30.9
			c0.7-12.5,4-16.4,6-26c5.5-26.8-8.3-52-19.1-71.8c-5.9-10.8-15.1-27.1-33-42c-21.6-18-48.2-27.8-50.5-24.2
			c-1.3,2.1,4.7,9.9,37.3,35.3c11.4,10.7,35.2,35.7,44.7,72c1.2,4.8,5.8,23.4,2.7,46.7c-2.2,16.1-6.3,21.9-8.7,24.7
			c-7.2,8.5-20.2,15-31.3,12c-4.4-1.2-3.8-2.6-8-4c-13.6-4.7-21.8,8.9-44,12c-8,1.1-14.4,0.4-24.7-0.7c-13.4-1.4-17.2-4.4-27.3-4.7
			c-10.1-0.3-15.8,2.2-25.3,4.7c-9,2.4-32.8,8.6-48.8,5.3c-24.5-5.1-41.3-35-46.6-57.3c-7.9-33.8,7.5-64.4,20-89.3
			C1376.9,1962.2,1387.9,1952.3,1385.8,1950.3z"/>
	</g>
	<linearGradient id="SVGID_1_" gradientUnits="userSpaceOnUse" x1="1415.9054" y1="974.4699" x2="1415.9054" y2="692.6164">
		<stop  offset="0" style="stop-color:#9A7144;stop-opacity:0"/>
		<stop  offset="6.465524e-02" style="stop-color:#986F42;stop-opacity:6.465524e-02"/>
		<stop  offset="0.5639" style="stop-color:#8C6237;stop-opacity:0.5639"/>
		<stop  offset="1" style="stop-color:#885E34"/>
	</linearGradient>
	<path fill="url(#SVGID_1_)" d="M1297.7,1021.9c-59.4-59.6-17.5-224.3,87.4-283.4c37.4-21.1,107.5-42.6,145.1-10.6
		c62.9,53.6,29.2,252.9-88.2,305.1C1398.8,1052.2,1332.5,1056.9,1297.7,1021.9z"/>
	
		<linearGradient id="SVGID_2_" gradientUnits="userSpaceOnUse" x1="1415.9054" y1="974.4699" x2="1415.9054" y2="692.6164" gradientTransform="matrix(-1 0 0 1 3227.5181 0)">
		<stop  offset="0" style="stop-color:#9A7144;stop-opacity:0"/>
		<stop  offset="6.465524e-02" style="stop-color:#986F42;stop-opacity:6.465524e-02"/>
		<stop  offset="0.5639" style="stop-color:#8C6237;stop-opacity:0.5639"/>
		<stop  offset="1" style="stop-color:#885E34"/>
	</linearGradient>
	<path fill="url(#SVGID_2_)" d="M1929.9,1021.9c59.4-59.6,17.5-224.3-87.4-283.4c-37.4-21.1-107.5-42.6-145.1-10.6
		c-62.9,53.6-29.2,252.9,88.2,305.1C1828.7,1052.2,1895,1056.9,1929.9,1021.9z"/>
</g>
<g id="color_x5F_06">
	<g id="form_7_">
		<path display="none" fill="none" stroke="#000000" stroke-width="14" stroke-linecap="round" stroke-linejoin="round" d="
			M1541.6,589.3c-52.5,2.3-122.3,16.8-188,73.3c-2.4,2-4,3.5-5.7,5c-81.6,73.6-127,181.5-134.5,205.8
			c-7.2,23.3-4.7,117.4-46.2,175.8c-11.3,16-42.5,105.7,17.3,196.2c16,24.1,85.6,109.4,156.7,146.2c53.3,27.6,131.7,64.8,262.3,65.2
			c109.3,0.3,203.3-17.3,331-92.1c39.6-23.2,80.6-71.5,114.8-119.4c35-49.2,45.3-153.9,10.9-199.1c-22.2-29.2-41.7-154.7-54-189.9
			c-30.7-88-60.5-140.3-118.8-188.5c-80.7-66.8-174.7-76.9-219-81.7C1616,580.6,1571.8,584.6,1541.6,589.3z"/>
		<path fill="#373634" d="M1398.4,1378.7c-58.2,82.9-85.9,155-100.3,206c-20.4,71.9-10.2,96.1-42.1,135.6
			c-66.8,82.8-88.6,106-95.2,160.1c-7.8,64.9,51.3,89.9,51.3,89.9s-59.7,5.9-77.3,76.1c-7.4,29.7-7.4,85,43.1,81.2
			c5.4-0.4,28.9,36.8,74,18c11.6-4.8,9.6,30.5,96.6,1.6c8.7-2.9,33.1,26.1,109.8-0.4c6-2.1,36.5,31,105.7-7.5
			c3.3-1.8,28.1,3.3,54.1-14.2c6.4-4.3,20.2,25.5,59.1,12.6c8.2-2.7,24,36.3,101.2,8.4c11.8-4.3,18.7,31.2,109.1-0.6
			c13.4-4.7,24.5,33.5,90.4,2.5c9.1-4.3,55.8,22.6,76.4-17c5-9.6,53.8,1.7,55.5-51.3c1.3-42.7-10.6-98.5-80.3-107.7
			c-11.9-1.6,57.7-17.8,48.8-97.3c-3-26.8-47.4-92.8-94-146.7c-36.1-41.8-20.3-63.3-46.3-145.3c-16.4-51.8-45.2-124.6-99-208.4"/>
		<path fill="#373634" d="M1310.3,1650.8c0,0,5,191.9,70.8,296.8c0,0-138.9,97.6-26.2,199.7c32.3,29.3,103.5-0.3,103.5-0.3"/>
		<path fill="#373634" d="M1922.5,1640.8c0,0-5,191.9-70.8,296.8c0,0,138.7,112.1,23.2,205.8c-39.2,31.8-96.2,2.8-96.2,2.8"/>
		<path fill="#373634" d="M1510.6,1650.8c0,0-5.8,131-1.7,166.8c3.6,31.8,10,101,14.5,106.5c4.5,5.6,119.9,31.2,99.8,188.5
			c-3.8,29.8-58.6,30.1-61.9,25.1"/>
		<path fill="#373634" d="M1730.6,1637.8c0,0-14.6,66-9.8,120.1c3.9,44.1-6.8,173.1-16.7,172.9c-29.8-0.6-92.2,61.6-83.4,93.6
			l6.6,37.2l-1.7,61.5"/>
		<path fill="#373634" d="M1556.9,2141.4c9.6-7.6,4.4-135.3-36.3-154.8"/>
		<path fill="#373634" d="M1455.3,2148c3.1-4.4-8.7-105.8-44.6-122.4"/>
		<path fill="#373634" d="M1984.3,2148c2.9-4.6-8.1-112.6-41.6-130.2"/>
		<path fill="#373634" d="M2050,2135.5c2.9-4.3,19-88.1-35.9-115.5"/>
		<path fill="#373634" d="M1781.7,2143.9c0,0-8.9-84.2,44.1-120.5"/>
		<path fill="#373634" d="M1680.1,2135.5c0,0-12.6-122.7,40.7-148.9"/>
		<path fill="#373634" d="M1255.2,2143.9c0,0-11.2-102.3,42.1-128.5"/>
		<path fill="#373634" d="M1184,2131.1c0,0-19.1-83.1,34.2-109.3"/>
		<path fill="#373634" d="M1208.5,1968.6c0,0,65.3,31,135.6,14"/>
		<path fill="#373634" d="M2032.1,1969.6c0,0-74.7,39-135.9,18.2"/>
		<path fill="#373634" d="M1718.6,2096.7c-3.3,13.2,6.1,28.4,12.4,28.8c10.7,0.8,21.9-40,12.8-45.9
			C1738.2,2076,1722,2082.9,1718.6,2096.7z"/>
		<path fill="#373634" d="M1639.5,2084.7c-2.1,8.6,4.4,18.6,8.6,18.9c7.1,0.6,14.2-25.8,8-29.8
			C1652.4,2071.4,1641.6,2075.7,1639.5,2084.7z"/>
		<path fill="#373634" d="M1517.2,2098.8c1.7,12.5-8.5,25.4-14.3,25.2c-9.9-0.4-16.1-39-7-43.5
			C1501.3,2077.8,1515.5,2085.7,1517.2,2098.8z"/>
		<path fill="#373634" d="M1603.2,2082.4c2.6,11.9-7.2,26-13.3,26.7c-10.4,1.1-19.4-35.5-10.2-41.2
			C1585.2,2064.4,1600.5,2070,1603.2,2082.4z"/>
		<path fill="#373634" d="M1412.3,2109.2c1.4,10.7-7.8,22-12.9,21.8c-8.7-0.2-13.8-33.4-5.7-37.4
			C1398.4,2091.3,1410.8,2098,1412.3,2109.2z"/>
		<path fill="#373634" d="M1270.3,2100.1c0.3-10.2,10.3-19.3,14.9-18.3c7.9,1.6,7.7,33.4-0.2,35.8
			C1280.4,2119,1270,2110.8,1270.3,2100.1z"/>
		<path fill="#373634" d="M1199.8,2087.1c0.3-10.1,9.9-19,14.5-18.1c7.7,1.6,7.6,33-0.1,35.4
			C1209.6,2105.8,1199.5,2097.7,1199.8,2087.1z"/>
		<path fill="#373634" d="M1148.6,2074c0.5-9.4,10.5-17.8,15.2-17c7.8,1.3,7,30.4-0.8,32.8C1158.2,2091.2,1148,2083.9,1148.6,2074z"
			/>
		<path fill="#373634" d="M1820.1,2101.8c-2.7,13,8.7,28.8,15.6,29.7c11.8,1.6,21.2-38.5,10.7-45.1
			C1840.1,2082.5,1822.9,2088.1,1820.1,2101.8z"/>
		<path fill="#373634" d="M1954.3,2107.3c-2.2-8.9-13.8-15.1-18.2-13.6c-7.6,2.6-1.4,30.2,6.9,31.1
			C1947.8,2125.2,1956.6,2116.5,1954.3,2107.3z"/>
		<path fill="#373634" d="M2029.8,2097.2c-2.2-10.1-13.7-17.1-18.2-15.4c-7.6,3-1.6,34.3,6.7,35.3
			C2023.3,2117.7,2032,2107.7,2029.8,2097.2z"/>
		<path fill="#373634" d="M2090.6,2077.1c-2.1-8-13.1-13.7-17.3-12.3c-7.2,2.3-1.3,27.2,6.6,28
			C2084.6,2093.3,2092.8,2085.5,2090.6,2077.1z"/>
		<path fill="#373634" d="M1366.2,638.8c-128.3-115.1-289.5-240.7-351.5-197.9c-38.9,26.8-25.1,110.6-16.2,164.6
			c27.8,168.7,134.6,286.2,204.1,348.5"/>
		<path fill="#373634" d="M1262.4,746.2c0,0-104.1-181.4-219.4-250.6"/>
		<path fill="#373634" d="M1861.3,638.8c128.3-115.1,289.5-240.7,351.5-197.9c38.9,26.8,25.1,110.6,16.2,164.6
			c-27.8,168.7-134.6,286.2-204.1,348.5"/>
		<path fill="#373634" d="M1965.2,746.2c0,0,104.1-181.4,219.4-250.6"/>
		<path fill="#373634" d="M1177.1,1939c-25.9,5.6-134,25.8-216.4-38.7c-64.6-50.6-85.1-128.9-96.6-174
			c-21.7-84.5-11.2-154.2-23-155.3c-10.2-1-24.6,50.5-29,68.3c-4.3,17.6-6.3,32.8-7.3,44c-3.6-1.7-8.2-4.5-12.7-9
			c-9.6-9.7-12.2-21.1-13-26c-7.9,13.7-30.4,56.8-23,114c6.2,48.1,30.3,80.2,41,93c11,12.6,12.1,16.7,11,18c-0.5,0.6-3,2.5-37-15
			c-24.2-12.4-26.4-15.2-28-14c-11.5,8.6,22.6,139.6,130,199c80.9,44.7,183.7,37.9,267.5-14.5c4.3-9.9,17-35.8,45.7-50.1
			c9.4-4.7,18.4-7.1,25.8-8.3c-4.9-1.3-15.7-4.9-24.9-14.9C1181.7,1949.5,1178.7,1943.2,1177.1,1939z"/>
		<path fill="#373634" d="M1614.1,564.3c-40.3-1.7-130.2,0.3-221,55c-20.5,12.4-67.1,43.2-109.2,99c-9.2,12.3-51,69.3-70.9,157
			c-19.3,85-8.5,156.8,1.1,197.8c-14.2,1.1-38.7,4.8-65,19.2c-26.1,14.4-41.1,32.3-49,42c-29.8,36.5-39.1,75.9-42.3,98
			c5.8-9.8,21.4-33,51.7-48.1c26.4-13.2,50.7-13.5,62.1-13c-6.9,3-17.9,9-28,20.1c-8.3,9.2-12.4,17.9-15.1,23.9
			c-3.9,8.5-9.1,22.8-10,42c42.4-42.3,69.5-46.5,86.6-42.2c26.6,6.7,32.9,35,66,73.4c27.8,32.1,54.7,48.5,93.1,71.9
			c95.3,58.1,205.1,66.5,250.1,68.1"/>
		<path fill="#373634" d="M1603.5,564c40.7-2.5,136.3-2.6,231.9,55.3c52.9,32,88.2,71.1,109.2,99c9.2,12.3,51,69.3,70.9,157
			c19.3,85,8.5,156.8-1.1,197.8c14.2,1.1,38.7,4.8,65,19.2c26.1,14.4,41.1,32.3,49,42c29.8,36.5,39.1,75.9,42.3,98
			c-5.8-9.8-21.4-33-51.7-48.1c-26.4-13.2-50.7-13.5-62.1-13c6.9,3,17.9,9,28,20.1c8.3,9.2,12.4,17.9,15.1,23.9
			c3.9,8.5,9.1,22.8,10,42c-42.4-42.3-69.5-46.5-86.6-42.2c-26.6,6.7-32.9,35-66,73.4c-27.6,32-54.2,48.2-93.1,71.9
			c-101.7,62-227.6,66.8-266.2,67.3"/>
	</g>
	<g>
		<path fill="#2C2A28" d="M1510.3,1658.2c-8.6,1.3,2.5,52.8-3,139c0,0-6.6,104.5,16.7,127.6c1.7,1.7,3.6,3,3.6,3
			c3.8,2.4,7.5,2.6,21.3,11c15.2,9.3,35.3,21.7,48.3,43.2c10.7,17.7,9.3,29.7,15.4,30.4c8.9,0.9,8.6-25.4,32.8-47.5
			c9.8-8.9,27.9-25.5,47.9-30.9c2.6-0.7,9.3-2.3,13.8-8.1c5-6.6,4.2-15,4-17.9c-2.2-28.3,13-46.9,11.8-119.6c0-0.3,0-0.4,0-0.9
			c-0.5-27.7-1-58.7,1.2-87.3c2.6-34,7.9-50.4,4.6-51.5c-4.3-1.4-16.4,25.4-17.3,27.5c-22.9,51.1-10.4,72.1-27.3,102.7
			c-13.3,24-42.3,49.6-72.4,46.9c-33.4-2.9-54-39.2-56.9-44.3c-15.8-27.8-8-46.8-28.7-96.7
			C1519.4,1669.5,1514.5,1657.6,1510.3,1658.2z"/>
		<path fill="#2C2A28" d="M2183.5,495c-1.6-1.8-46.4,31.6-90.7,76.6c-53.9,54.8-133.7,180.3-133.7,180.3l33.4,58.3
			c0,0,32.6-127.6,127.3-239.5C2154.4,529.8,2185,496.6,2183.5,495z"/>
		<path fill="#2C2A28" d="M1140.6,2028.8c0,0-33.6,24.9-72.2,32.6c-45.5,9.1-68.9,13.9-103.5,10.2c-38.2-4-65.7-15.7-74.1-19.5
			c-7.9-3.5-38.8-17.8-70.4-48.2c-20.6-19.9-32.5-37.9-42.1-52.6c-18.3-28.1-30.4-55.7-36.1-86.3c-2-10.7-2.9-16-0.9-17.3
			c13.3-8.5,72.8,140.8,187.7,176.7c99.9,31.2,220.4-12.5,220.4-12.5L1140.6,2028.8z"/>
		<path fill="#2C2A28" d="M775.1,1655.6c-15.1,37.3-22.7,56-24,78c-1.9,32.3,6.9,56.1,14,75.3c6.3,17,16.3,37.6,36,54
			c8.2,6.8,10,6.2,10.5,5.8c5.8-3.8-26.1-43-36.6-102.4c-2.3-12.9-7.1-39.9-2.7-74c2.6-20.1,8.6-43.6,6.7-44.1
			C778.2,1648.1,776.1,1653.4,775.1,1655.6z"/>
		<path fill="#2C2A28" d="M1038.1,493.5c1.6-1.8,47.3,30.1,93,73.8c55.6,53.1,139.1,176.2,139.1,176.2l-31.7,59.2
			c0,0-36.5-126.6-134.5-235.6C1068.2,527.4,1036.7,495.1,1038.1,493.5z"/>
		<path fill="#2C2A28" d="M1202.7,954c0,0-14.3,0-65.9-66.7c-41.4-53.4-62-80.1-82-117.9c-24.9-47.2-38.4-88.5-45.6-114.4
			c-6.7-24-10.5-49.6-18.2-100.7c-2.2-15-6.6-45.8,2-78.9c2.9-11.5,7.2-22.4,17-30.8c10.6-9.2,22.7-11.1,29.1-12
			c22-3.2,40.3,3.9,58.1,11.9c41.6,18.6,71.8,38.3,82.7,45.5c27.9,18.5,47.3,33.4,71.4,51.9c31.8,24.4,47.7,36.6,68.5,56.3
			c12,11.3,36.8,35.7,37.9,36.8c0,0,0,0,0,0c0,0-3.3-4.5-7.6-10.4c4.8,5.9,9.5,11.8,14.3,17.7l-18.7,10.7c0,0-23.8-20.1-41.3-42
			c-4.1-5.1-21.2-19.5-55.3-48c-46.4-38.8-69.7-58.3-74.7-62c0,0-31.7-23.9-82-50c-12.3-6.4-28.7-14.4-49.3-12
			c-4.8,0.6-18.5,2.2-29.3,11.3c-6.2,5.2-17.5,18-17.3,61.3c0,8.8,0.6,41.9,21.5,105.3c13.4,40.7,27.1,69.1,30.5,76.1
			c17.2,35.4,33.7,60.1,46.7,79.3c16.3,24.2,31.4,46.6,56,72.7c21.9,23.2,42.5,40,57.7,51.3C1206.8,915.5,1204.7,934.8,1202.7,954z"
			/>
		<path fill="#2C2A28" d="M2024.8,954c0,0,14.3,0,65.9-66.7c41.4-53.4,62-80.1,82-117.9c24.9-47.2,38.4-88.5,45.6-114.4
			c6.7-24,10.5-49.6,18.2-100.7c2.2-15,6.6-45.8-2-78.9c-2.9-11.5-7.2-22.4-17-30.8c-10.6-9.2-22.7-11.1-29.1-12
			c-22-3.2-40.3,3.9-58.1,11.9c-41.6,18.6-71.8,38.3-82.7,45.5c-27.9,18.5-47.3,33.4-71.4,51.9c-31.8,24.4-47.7,36.6-68.5,56.3
			c-12,11.3-36.8,35.7-37.9,36.8c0,0,0,0,0,0c0,0,3.3-4.5,7.6-10.4c-4.8,5.9-9.5,11.8-14.3,17.7l18.7,10.7c0,0,23.8-20.1,41.3-42
			c4.1-5.1,21.2-19.5,55.3-48c46.4-38.8,69.7-58.3,74.7-62c0,0,31.7-23.9,82-50c12.3-6.4,28.7-14.4,49.3-12
			c4.8,0.6,18.5,2.2,29.3,11.3c6.2,5.2,17.5,18,17.3,61.3c0,8.8-0.6,41.9-21.5,105.3c-13.4,40.7-27.1,69.1-30.5,76.1
			c-17.2,35.4-33.7,60.1-46.7,79.3c-16.3,24.2-31.4,46.6-56,72.7c-21.9,23.2-42.5,40-57.7,51.3
			C2020.7,915.5,2022.8,934.8,2024.8,954z"/>
		<path fill="#2C2A28" d="M1398.4,1378.7c-8,11.7-16,23.5-24,35.2c18.8,11.2,47.8,26.8,85.5,39.7c131.2,45.1,248.2,17.6,294.2,3.9
			c26.6-8,64.7-21.8,107.5-46.7c-7.5-12.2-14.9-24.4-22.4-36.6l-67,31l-90,16.9l-105.9,3.6l-118.1-22.5L1398.4,1378.7z"/>
		<path fill="#2C2A28" d="M1398.4,1378.7c-17.8-0.7-36.2,46.3-50.5,82.4c-52.2,132.1-52.8,129.2-55,143.3
			c-5.4,34.3-3.4,57.3-20.7,90.4c-5,9.5-13.5,20.7-30.4,43.1c-35.5,47-43.2,50.2-58.1,76.6c-16.9,29.8-20.5,49.4-21.8,58.6
			c-1.7,12.1-3.6,27.2,2.5,45.3c7.2,21.1,21.1,33.4,26.1,37.7c11.4,9.8,21.8,13.9,35,18.9c23.9,9.1,41.8,10.3,77.7,12.5
			c18.1,1.1,29.3,0.9,40.9-5.1c5.5-2.8,9.5-8.7,18.1-19.2c11.9-14.6,17.9-22,16.4-25.2c-3.4-7.2-28.4,3.3-71,4
			c-19.6,0.3-39.3,0.5-61.5-8.9c-13.2-5.5-28.5-12-37.5-27.1c-14.1-23.9-2.9-53.9,5.5-76.5c4.5-12,8.5-19.2,37.9-65.1
			c35-54.8,36.6-56,40.9-65.6c15.6-34.5,5.6-42.2,16.4-92.2c11.7-54,34.5-97.1,57.4-140.1c13.9-26.2,20.9-39.3,23.5-43
			c6.5-9.2,10-20.2,16.6-29.4c2-2.8,5.3-7.1,3.9-10.6C1408.8,1379.1,1399.7,1378.8,1398.4,1378.7z"/>
		<path fill="#2C2A28" d="M1840.1,1389.7c17.8-0.7,36.2,46.3,50.5,82.4c52.2,132.1,52.8,129.2,55,143.3c5.4,34.3,3.4,57.3,20.7,90.4
			c5,9.5,13.5,20.7,30.4,43.1c35.5,47,43.2,50.2,58.1,76.6c16.9,29.8,20.5,49.4,21.8,58.6c1.7,12.1,3.6,27.2-2.5,45.3
			c-7.2,21.1-21.1,33.4-26.1,37.7c-11.4,9.8-21.8,13.9-35,18.9c-23.9,9.1-41.8,10.3-77.7,12.5c-18.1,1.1-29.3,0.9-40.9-5.1
			c-5.5-2.8-9.5-8.7-18.1-19.2c-11.9-14.6-17.9-22-16.4-25.2c3.4-7.2,28.4,3.3,71,4c19.6,0.3,39.3,0.5,61.5-8.9
			c13.2-5.5,28.5-12,37.5-27.1c14.1-23.9,2.9-53.9-5.5-76.5c-4.5-12-8.5-19.2-37.9-65.1c-35-54.8-36.6-56-40.9-65.6
			c-15.6-34.5-5.6-42.2-16.4-92.2c-11.7-54-34.5-97.1-57.4-140.1c-13.9-26.2-20.9-39.3-23.5-43c-6.5-9.2-10-20.2-16.6-29.4
			c-2-2.8-5.3-7.1-3.9-10.6C1829.7,1390.1,1838.9,1389.8,1840.1,1389.7z"/>
		<path fill="#2C2A28" d="M1052.1,1239.8c-0.7-0.5,33.1-84.4,85.1-93.2c24.7-4.2,47.4,9.6,61.2,20.2c-17.9-2.1-43-2.4-69.8,7
			c-7.3,2.6-17.3,6.2-28.5,14c-11.3,7.9-18.7,16.5-31,31c-3.9,4.6-7,8.4-9.3,11.5C1057.3,1233.5,1055.5,1242.1,1052.1,1239.8z"/>
		<path fill="#2C2A28" d="M2175.4,1239.8c0.7-0.5-33.1-84.4-85.1-93.2c-24.7-4.2-47.4,9.6-61.2,20.2c17.9-2.1,43-2.4,69.8,7
			c7.3,2.6,17.3,6.2,28.5,14c11.3,7.9,18.7,16.5,31,31c3.9,4.6,7,8.4,9.3,11.5C2170.2,1233.5,2172,1242.1,2175.4,1239.8z"/>
		<path fill="#2C2A28" d="M1613.8,1429.6c0-18.8,0-37.6,0-56.3c-36.1-0.3-121.7-4-199.8-40.5c-19.3-9.1-42.6-19.9-68.3-41.5
			c-20.3-17-40.9-34.3-59.9-61.6c-5.3-7.6-15.6-23.4-34.6-37.4c-12.5-9.2-20.7-11.7-23.5-12.5c-19.1-5.3-36,0.9-43.8,3.8
			c-46.4,17.6-67.9,71.5-65.3,73.5c1.4,1,10.5-13.2,34-28.2c5.3-3.4,14.8-9,28-12.7c8.6-2.4,15.6-4.2,23.3-2
			c10.2,2.9,15.9,11.2,19.3,16c11.6,16.2,26.2,30.1,38.2,46c18.1,23.9,36.4,38.5,53.4,52c24.6,19.6,45.5,30.6,64.2,40.5
			c39,20.5,72.3,31.5,89.9,36.8c28.5,8.5,19.3,2.9,77.7,16.7C1590.8,1432.7,1613.8,1429.6,1613.8,1429.6z"/>
		<path fill="#2C2A28" d="M1311.1,1667.2c-4.7-0.1-5.2,98.7,0.3,182.4c0,0,4.4,66.1,39.7,110.9c1.6,2,5.2,6.1,10.5,6.7
			c10.3,1.1,22.4-12.1,20.9-21.8c-1-6.4-7.8-10.1-9-10.8c-12.5-7.6-30.6-57-57.2-204.2C1314.7,1678.6,1312.7,1667.2,1311.1,1667.2z"
			/>
		<path fill="#2C2A28" d="M1923.3,1658.6c4.7-0.1,5.2,98.7-0.3,182.4c0,0-4.4,66.1-39.7,110.9c-1.6,2-5.2,6.1-10.5,6.7
			c-10.3,1.1-22.4-12.1-20.9-21.8c1-6.4,7.8-10.1,9-10.8c12.5-7.6,30.6-57,57.2-204.2C1919.7,1670,1921.7,1658.6,1923.3,1658.6z"/>
		<path fill="#2C2A28" d="M1613.8,1429.6c0-18.8,0-37.6,0-56.3c36.1-0.3,121.7-4,199.8-40.5c19.3-9.1,42.6-19.9,68.3-41.5
			c20.3-17,40.9-34.3,59.9-61.6c5.3-7.6,15.6-23.4,34.6-37.4c12.5-9.2,20.7-11.7,23.5-12.5c19.1-5.3,36,0.9,43.8,3.8
			c46.4,17.6,67.9,71.5,65.3,73.5c-1.4,1-10.5-13.2-34-28.2c-5.3-3.4-14.8-9-28-12.7c-8.6-2.4-15.6-4.2-23.3-2
			c-10.2,2.9-15.9,11.2-19.3,16c-11.6,16.2-26.2,30.1-38.2,46c-18.1,23.9-36.4,38.5-53.4,52c-24.6,19.6-45.5,30.6-64.2,40.5
			c-39,20.5-72.3,31.5-89.9,36.8c-28.5,8.5-19.3,2.9-77.7,16.7C1636.7,1432.7,1613.8,1429.6,1613.8,1429.6z"/>
		<path fill="#2C2A28" d="M1823,2023.8c-2.1-1.7-31.3,21.2-49.2,57.9c0,0-15,30.7-7.5,55.8c0.7,2.4,2.5,8.4,7.5,10.3
			c3.3,1.2,6.9,0.4,8.6-0.5c9.3-4.8,0.3-29.7,1.2-51.5C1785.3,2052.9,1825.3,2025.7,1823,2023.8z"/>
		<path fill="#2C2A28" d="M1212.1,2025.2c-1.6-1.4-24.4,17.2-38.3,46.8c0,0-11.7,24.8-5.9,45.2c0.6,2,2,6.8,5.9,8.4
			c2.5,1,5.4,0.3,6.7-0.4c7.3-3.9,0.2-24.1,0.9-41.7C1182.8,2048.8,1214,2026.8,1212.1,2025.2z"/>
		<path fill="#2C2A28" d="M1290.3,2015.7c-1.9-1.8-28.2,21.9-44.3,59.6c0,0-13.5,31.6-6.8,57.5c0.7,2.5,2.3,8.7,6.8,10.7
			c2.9,1.3,6.2,0.4,7.7-0.5c8.4-5,0.3-30.6,1.1-53.1C1256.4,2045.8,1292.4,2017.7,1290.3,2015.7z"/>
		<path fill="#2C2A28" d="M1414.6,2027.8c1.9-1.7,28.8,20.9,45.3,57.1c0,0,13.8,30.2,6.9,55c-0.7,2.4-2.3,8.3-6.9,10.2
			c-3,1.2-6.3,0.4-7.9-0.5c-8.6-4.8-0.3-29.3-1.1-50.8C1449.2,2056.6,1412.4,2029.8,1414.6,2027.8z"/>
		<path fill="#2C2A28" d="M1531.5,1992.4c1.6-2.1,24.1,25.4,37.9,69.2c0,0,11.5,36.7,5.8,66.8c-0.6,2.9-1.9,10.1-5.8,12.4
			c-2.5,1.5-5.3,0.5-6.6-0.6c-7.2-5.8-0.2-35.6-0.9-61.6C1560.5,2027.2,1529.7,1994.7,1531.5,1992.4z"/>
		<path fill="#2C2A28" d="M1709.4,1989.5c-1.6-2.1-24.4,25.4-38.4,69.2c0,0-11.7,36.7-5.9,66.8c0.6,2.9,2,10.1,5.9,12.4
			c2.5,1.5,5.4,0.5,6.7-0.6c7.3-5.8,0.2-35.6,0.9-61.6C1680,2024.4,1711.2,1991.8,1709.4,1989.5z"/>
		<path fill="#2C2A28" d="M1946.4,2020.2c1.8-1.8,27.3,22,43,59.8c0,0,13.1,31.7,6.6,57.7c-0.6,2.5-2.2,8.7-6.6,10.7
			c-2.8,1.3-6,0.4-7.5-0.5c-8.1-5-0.3-30.8-1-53.3C1979.2,2050.3,1944.3,2022.2,1946.4,2020.2z"/>
		<path fill="#2C2A28" d="M2019.2,2020.1c1.8-1.5,27.3,18.9,43,51.6c0,0,13.1,27.4,6.6,49.8c-0.6,2.2-2.2,7.5-6.6,9.2
			c-2.8,1.1-6,0.3-7.5-0.5c-8.1-4.3-0.3-26.5-1-46C2052.1,2046.1,2017.1,2021.9,2019.2,2020.1z"/>
		<path fill="#2C2A28" d="M1211.6,1975.3c-0.6-1.2-39,5.2-60.8,34.6c-9.2,12.3-12.6,24.8-17.1,41.7c-4.5,16.9-7.8,29.8-4.1,45.7
			c0.4,1.5,7.3,30.1,21.5,32c4.7,0.6,8.9-1.9,21.5-1.4c3.7,0.1,5.5,0.2,7.4,0.7c9.1,2.2,10.9,8.5,18.8,14.4
			c8.9,6.5,18.4,7.3,28.2,8.1c7.2,0.6,12.6,1,16.9-2.5c2.5-2,3.3-4.2,5.7-4.4c3.6-0.3,6.1,4.2,9.5,7.6c5.7,5.8,12.7,7.3,21,9
			c11.1,2.3,19.6-0.1,35.9-4.6c20.6-5.7,24.7-5.7,26.1-9.4c2-5.3-1.9-13.6-8-17c-9.6-5.4-17.1,5.4-38,6c-12.8,0.3-25.6-3.4-32.8-5.5
			c-7.8-2.3-12.7-4.5-21.7-5c-5.6-0.3-6.6,0.4-15.5,0c-11.5-0.5-16.4-2-18-2.5c-4.7-1.5-8.4-3.4-11-5c-6.9-4.2-7.5-6.8-12.1-9.8
			c-9-5.8-14.8-0.6-22.2-4.4c-11.8-6.1-12.2-27.3-12.4-36.4c-0.3-17.7,5.3-30.9,9.1-39.5c2.8-6.3,9.3-20.7,23.5-34
			C1198.1,1979.8,1212,1976,1211.6,1975.3z"/>
		<path fill="#2C2A28" d="M1846.1,1938.3c2.6-2.3,24.5,15.8,41.5,37.3c14.3,18.2,20.9,33.4,23.2,38.9c3.5,8.6,7.6,18.7,9.1,32.5
			c2.9,27.2-6.7,48.7-10.7,56.6c-10.4,20.4-25.2,32.3-35.8,40.8c-6.3,5-9.4,7.5-13.4,9.6c-19.3,9.6-46.3,8.2-66.1-1.7
			c-5.6-2.8-8.9-5.5-15.4-6.1c-10.4-1-14.5,4.6-26.1,7.5c-7.3,1.8-16,0.6-33.4-1.8c-15.1-2.1-23.2-3.3-32-9c-4.4-2.8-4.7-3.9-8-5.1
			c-10.3-3.6-15.2,4.4-28,2.7c-7.4-1-13.6-4.7-17.5-7c-6.8-4-8.2-5.5-8.6-6.1c-3.5-5.6-0.6-12.4,1.1-19.6c0.6-2.6,0.7-11.9,0.8-30.5
			c0.3-37.5-9.6-48.1-5.6-69.3c6.4-33.2,39.5-53.2,41.3-51.6c1.5,1.3-16.8,16.9-24,46.5c-3.3,13.7-0.3,13.4-1.8,45.4
			c-1.7,37.6-6.8,53.1,3.5,62.5c5.1,4.7,12.4,6.4,13.3,6.5c11.1,2.4,15.9-3.1,25.3-2c10.4,1.2,10,8.5,23.7,16
			c20.1,11.1,41.9,6.9,44,6.5c13.1-2.7,12.7-7.4,24.5-8.5c10.5-0.9,14.1,2.5,33,6.5c14.9,3.2,22.3,4.8,30,4
			c19.5-1.9,33.1-14.9,39.7-21.3c5-4.8,18.2-17.8,23.3-39.2c3.6-15.1,1.5-27.1-0.7-38.8c-1.5-7.7-4.9-22.5-21.3-52.7
			C1857.2,1954.4,1844,1940.2,1846.1,1938.3z"/>
		<path fill="#2C2A28" d="M2063.1,1981.8c1.8-1.7,19.7,10.6,32.4,29.9c12.2,18.8,14.5,36.5,16.1,49.5c2.4,18.7,4.3,34-5,45
			c-6.3,7.4-17.8,13-18.8,13.4c-4.1,1.9-8.1,3.8-13.9,4.8c-9.8,1.6-14.3-1.2-18.3,2.3c-2.9,2.5-1.4,4.7-4.9,10.3
			c-3.2,5.2-7.4,8-9.8,9.6c-6.9,4.6-13.6,5.5-18.6,6.2c-4.2,0.5-13.6,1.6-24.1-2.1c-6.8-2.4-8.2-4.8-13.5-4.9
			c-6.7-0.1-11.5,3.6-14.6,5.7c-14.8,9.8-33.4,8.9-43.6,8.4c-9.3-0.5-24.7-0.5-35.8-10.7c-2.3-2.1-3.8-3.5-4.5-6
			c-2.6-9.4,12.2-16.4,24.5-33.5c2-2.7,14.9-21,16.5-44.5c1.3-18.8-5.1-33.2-4-33.5c1-0.3,7.6,11.4,10,25.5
			c6.9,39.9-24.6,66.8-14,79c7.7,8.9,31.1,2.7,33.5,2c2.7-0.7,8.3-2.3,14.5-6.5c9.5-6.4,8.5-11,14-13c10-3.6,16.3,10.7,34,11.5
			c10.4,0.4,18.5-4.1,21.5-6c2.5-1.6,10.7-7,14.6-17c2.7-6.9,0.8-9.7,3.4-11.5c6.2-4.4,18.2,11.4,30,8c7.7-2.2,11.2-11.3,13.3-16.5
			c5.8-14.8,3.1-29.9-1.3-43.5C2084.2,2005,2060.9,1983.9,2063.1,1981.8z"/>
		<path fill="#2C2A28" d="M1385.8,1950.3c-3.7-3.5-44,23.5-64.2,67c-8.7,18.8-10.1,32.7-10.3,36.2c-1.9,23.9,5.9,42.2,9,49.3
			c8.9,20.3,21.6,32,24.5,34.6c7.3,6.6,15.7,14.2,28.7,17.6c15.8,4.1,16.5-3.7,41.7-1.9c14.7,1.1,24.8,4.4,32-2
			c3-2.7,4.6-6.2,8.6-6.7c4.3-0.5,7.1,2.9,12.2,6.1c5.8,3.7,10.7,4.6,19.6,6.4c8,1.6,19,3.8,30.6-0.1c8.7-2.9,7.6-5.9,19.6-10.4
			c8.2-3.1,15.2-4.3,19.1-4.9c8.9-1.4,9.4-0.3,20.3-1.3c10.6-1,19.2-1.8,28.7-6.4c6.2-3,9.6-4.6,12.4-8.5c5.8-8,2-16.1,2.9-30.9
			c0.7-12.5,4-16.4,6-26c5.5-26.8-8.3-52-19.1-71.8c-5.9-10.8-15.1-27.1-33-42c-21.6-18-48.2-27.8-50.5-24.2
			c-1.3,2.1,4.7,9.9,37.3,35.3c11.4,10.7,35.2,35.7,44.7,72c1.2,4.8,5.8,23.4,2.7,46.7c-2.2,16.1-6.3,21.9-8.7,24.7
			c-7.2,8.5-20.2,15-31.3,12c-4.4-1.2-3.8-2.6-8-4c-13.6-4.7-21.8,8.9-44,12c-8,1.1-14.4,0.4-24.7-0.7c-13.4-1.4-17.2-4.4-27.3-4.7
			c-10.1-0.3-15.8,2.2-25.3,4.7c-9,2.4-32.8,8.6-48.8,5.3c-24.5-5.1-41.3-35-46.6-57.3c-7.9-33.8,7.5-64.4,20-89.3
			C1376.9,1962.2,1387.9,1952.3,1385.8,1950.3z"/>
	</g>
	<linearGradient id="SVGID_3_" gradientUnits="userSpaceOnUse" x1="1415.9054" y1="974.4699" x2="1415.9054" y2="692.6164">
		<stop  offset="0" style="stop-color:#363634;stop-opacity:0"/>
		<stop  offset="0.1715" style="stop-color:#333230;stop-opacity:0.1715"/>
		<stop  offset="0.6137" style="stop-color:#2D2C2A;stop-opacity:0.6137"/>
		<stop  offset="1" style="stop-color:#2B2927"/>
	</linearGradient>
	<path fill="url(#SVGID_3_)" d="M1297.7,1021.9c-59.4-59.6-17.5-224.3,87.4-283.4c37.4-21.1,107.5-42.6,145.1-10.6
		c62.9,53.6,29.2,252.9-88.2,305.1C1398.8,1052.2,1332.5,1056.9,1297.7,1021.9z"/>
	
		<linearGradient id="SVGID_4_" gradientUnits="userSpaceOnUse" x1="1415.9054" y1="974.4699" x2="1415.9054" y2="692.6164" gradientTransform="matrix(-1 0 0 1 3227.5181 0)">
		<stop  offset="0" style="stop-color:#363634;stop-opacity:0"/>
		<stop  offset="0.1715" style="stop-color:#333230;stop-opacity:0.1715"/>
		<stop  offset="0.6137" style="stop-color:#2D2C2A;stop-opacity:0.6137"/>
		<stop  offset="1" style="stop-color:#2B2927"/>
	</linearGradient>
	<path fill="url(#SVGID_4_)" d="M1929.9,1021.9c59.4-59.6,17.5-224.3-87.4-283.4c-37.4-21.1-107.5-42.6-145.1-10.6
		c-62.9,53.6-29.2,252.9,88.2,305.1C1828.7,1052.2,1895,1056.9,1929.9,1021.9z"/>
</g>
<g id="stripe_x5F_01_x5F_01">
	<g>
		<path fill="#E8E4E2" d="M1613.8,947.4c0.3-0.2-119.5,17.4-162.3,104.9c-36,73.5-22.6,106.3-12.2,120.4
			c16.8,22.7,42.2,30.6,71.8,37.3c24.2,5.5,103.7-1.2,102.6-8.1C1613,1196.6,1613.8,947.4,1613.8,947.4z"/>
		<path fill="#E8E4E2" d="M1613.8,947.4c-0.3-0.2,119.5,17.4,162.3,104.9c36,73.5,22.6,106.3,12.2,120.4
			c-16.8,22.7-42.2,30.6-71.8,37.3c-24.2,5.5-103.7-1.2-102.6-8.1C1614.6,1196.6,1613.8,947.4,1613.8,947.4z"/>
		<circle fill="#E8E4E2" cx="1178.8" cy="808.8" r="37.7"/>
		<path fill="#E8E4E2" d="M1200.5,1971.5c10-2.5,13.8,1.6,41.3,8.5c16.1,4,24.1,6.1,34.4,6.4c13,0.4,14.1-2,33.2-2.6
			c22.9-0.8,23.7,3.3,30.9-0.2c10.8-5.3,15.3-17.3,26.5-23.8c4.5-2.6,9.4-5,9.4-5c0,0,3.8-1.8,7.8-3.5
			c56.8-23.3,89.5-24.8,89.5-24.8c20.4-0.9,41.2-1.9,62.3,9.2c10.9,5.7,12.6,9.8,41,27.2c11.5,7.1,14.3,8.2,18.3,12.9
			c14,16,10.5,35.4,17.5,36.7c2.7,0.5,5.6-2.1,14.8-14.9c15.7-21.8,13.8-26.7,23.7-35.3c9.1-7.9,11.8-4.7,24.4-15.3
			c8.2-6.9,13-9.7,15-10.3c5.3-1.5,5.2,0.9,15.2-0.2c3.3-0.3,6.8-1.1,13.8-2.5c5.5-1.1,9.5-2.1,9.6-2.1c4.3-1,25.3-4.9,54.4-1.9
			c37.1,3.8,60.7,6.2,79,23.6c14,13.3,15.7,26.8,33.9,34.1c1.9,0.8,7.6,2.4,26.4,3.6c13.9,0.9,37.1,2.2,64.5-4.9
			c24.3-6.2,27.9-12.9,45.7-12.3c14.9,0.5,25.8,5.5,29.3,7.2c19.7,9.7,28.9,26.1,34.1,35.5c8.2,14.5,10.2,26.5,13.3,44.3
			c3.8,21.7,5.7,33.9-1.6,43.5c-4.2,5.6-11,9.6-18.2,13.9c-4.7,2.8-9.5,5.7-16.6,7.8c-10.9,3.3-13,0.4-18.6,3.9
			c-7.1,4.3-5.7,10-13.1,15.9c-6.1,4.9-13,5.8-16.6,6.3c-12.7,1.7-16.8-4.3-35.6-4.1c-4.4,0-7.6,0.4-8.3,0.4
			c-14.2,1.6-18.9,6.2-30.4,9.2c-10.5,2.7-19,2.1-27.1,1.5c-11.3-0.8-18.6-1.4-26-6.3c-5.2-3.5-5.6-6-10-7.1
			c-6.4-1.6-11,2.3-20.2,5.9c-7.4,2.9-12.9,3.7-22.5,5.1c-8.1,1.2-21.4,3.1-36.3-0.5c-16.2-3.9-16-9.8-27.6-10.5
			c-13.3-0.7-14.8,7.1-31.8,10c-3.4,0.6-22.8,4-41.4-5c-10.1-4.9-15.1-11.1-26.8-11.7c-1.2-0.1-1,0-13.1,0.8
			c-13.7,0.8-20.6,1.3-22.2,0.7c-1-0.3-7.3-4.2-20-12c-1.5-0.9-2.7-1.7-4.6-2.1c-6-1.3-10.3,2.6-16.5,5.7c-10,5-19.9,5.4-26.5,5.6
			c-9.7,0.3-10.4-1.8-16.6-0.4c-9.1,1.9-12.3,7.3-19.6,12.3c-16.3,11.1-36.6,8.5-39.6,8.1c-12.1-1.5-16.7-6.4-37.8-9.4
			c-4.8-0.7-7.1-0.8-9.2-0.8c-12.4,0.1-18.9,5-28.6,8.5c-2.5,0.9-16.8,5.9-33.7,3.6c-9.3-1.3-18.8-4.7-30.9-9c-8.2-3-8-3.3-10.9-3.9
			c-11.6-2.3-18.1,2.7-32.7,7.1c-17,5.1-31.3,9.3-41.9,2.7c-5.2-3.3-7.6-8-16.3-10.9c-5.1-1.7-9.7-2-12.1-2
			c-7.3,0-10.1,2.1-17.2,3.6c-5.6,1.2-13.5,2.8-21.4,0.2c-8.3-2.7-8.9-7.5-22.2-13.3c-3.3-1.4-5.8-2.3-7.4-2.8
			c-14.9-4.9-20.8-2.5-27.9-5.7c-6.9-3.2-9.9-9.4-14.7-19.6c-2.8-5.8-10-21.5-8.8-42.9c1.6-29.1,17.7-48.5,22.3-53.9
			c5.5-6.4,12.1-11.7,25.4-22.3C1188.6,1977.8,1194.8,1972.9,1200.5,1971.5z"/>
		<g>
			<defs>
				<path id="SVGID_5_" d="M1366.2,638.8c-128.3-115.1-289.5-240.7-351.5-197.9c-38.9,26.8-25.1,110.6-16.2,164.6
					c27.8,168.7,134.6,286.2,204.1,348.5"/>
			</defs>
			<clipPath id="SVGID_6_">
				<use xlink:href="#SVGID_5_"  overflow="visible"/>
			</clipPath>
			<circle clip-path="url(#SVGID_6_)" fill="#E8E4E2" cx="1075" cy="559.1" r="152.5"/>
		</g>
		<path fill="#E8E4E2" d="M1178.8,483.9c0,0-0.1-0.1-0.1-0.1C1177.1,482.5,1172.5,479.7,1178.8,483.9z"/>
	</g>
	<g>
		<path fill="#C6C2C0" d="M1823,2023.8c-2.1-1.7-31.3,21.2-49.2,57.9c0,0-15,30.7-7.5,55.8c0.7,2.4,2.5,8.4,7.5,10.3
			c3.3,1.2,6.9,0.4,8.6-0.5c9.3-4.8,0.3-29.7,1.2-51.5C1785.3,2052.9,1825.3,2025.7,1823,2023.8z"/>
		<path fill="#C6C2C0" d="M1212.1,2025.2c-1.6-1.4-24.4,17.2-38.3,46.8c0,0-11.7,24.8-5.9,45.2c0.6,2,2,6.8,5.9,8.4
			c2.5,1,5.4,0.3,6.7-0.4c7.3-3.9,0.2-24.1,0.9-41.7C1182.8,2048.8,1214,2026.8,1212.1,2025.2z"/>
		<path fill="#C6C2C0" d="M1290.3,2015.7c-1.9-1.8-28.2,21.9-44.3,59.6c0,0-13.5,31.6-6.8,57.5c0.7,2.5,2.3,8.7,6.8,10.7
			c2.9,1.3,6.2,0.4,7.7-0.5c8.4-5,0.3-30.6,1.1-53.1C1256.4,2045.8,1292.4,2017.7,1290.3,2015.7z"/>
		<path fill="#C6C2C0" d="M1414.6,2027.8c1.9-1.7,28.8,20.9,45.3,57.1c0,0,13.8,30.2,6.9,55c-0.7,2.4-2.3,8.3-6.9,10.2
			c-3,1.2-6.3,0.4-7.9-0.5c-8.6-4.8-0.3-29.3-1.1-50.8C1449.2,2056.6,1412.4,2029.8,1414.6,2027.8z"/>
		<path fill="#C6C2C0" d="M1531.5,1992.4c1.6-2.1,24.1,25.4,37.9,69.2c0,0,11.5,36.7,5.8,66.8c-0.6,2.9-1.9,10.1-5.8,12.4
			c-2.5,1.5-5.3,0.5-6.6-0.6c-7.2-5.8-0.2-35.6-0.9-61.6C1560.5,2027.2,1529.7,1994.7,1531.5,1992.4z"/>
		<path fill="#C6C2C0" d="M1709.4,1989.5c-1.6-2.1-24.4,25.4-38.4,69.2c0,0-11.7,36.7-5.9,66.8c0.6,2.9,2,10.1,5.9,12.4
			c2.5,1.5,5.4,0.5,6.7-0.6c7.3-5.8,0.2-35.6,0.9-61.6C1680,2024.4,1711.2,1991.8,1709.4,1989.5z"/>
		<path fill="#C6C2C0" d="M1946.4,2020.2c1.8-1.8,27.3,22,43,59.8c0,0,13.1,31.7,6.6,57.7c-0.6,2.5-2.2,8.7-6.6,10.7
			c-2.8,1.3-6,0.4-7.5-0.5c-8.1-5-0.3-30.8-1-53.3C1979.2,2050.3,1944.3,2022.2,1946.4,2020.2z"/>
		<path fill="#C6C2C0" d="M2019.2,2020.1c1.8-1.5,27.3,18.9,43,51.6c0,0,13.1,27.4,6.6,49.8c-0.6,2.2-2.2,7.5-6.6,9.2
			c-2.8,1.1-6,0.3-7.5-0.5c-8.1-4.3-0.3-26.5-1-46C2052.1,2046.1,2017.1,2021.9,2019.2,2020.1z"/>
		<path fill="#C6C2C0" d="M1211.6,1975.3c-0.6-1.2-39,5.2-60.8,34.6c-9.2,12.3-12.6,24.8-17.1,41.7c-4.5,16.9-7.8,29.8-4.1,45.7
			c0.4,1.5,7.3,30.1,21.5,32c4.7,0.6,8.9-1.9,21.5-1.4c3.7,0.1,5.5,0.2,7.4,0.7c9.1,2.2,10.9,8.5,18.8,14.4
			c8.9,6.5,18.4,7.3,28.2,8.1c7.2,0.6,12.6,1,16.9-2.5c2.5-2,3.3-4.2,5.7-4.4c3.6-0.3,6.1,4.2,9.5,7.6c5.7,5.8,12.7,7.3,21,9
			c11.1,2.3,19.6-0.1,35.9-4.6c20.6-5.7,24.7-5.7,26.1-9.4c2-5.3-1.9-13.6-8-17c-9.6-5.4-17.1,5.4-38,6c-12.8,0.3-25.6-3.4-32.8-5.5
			c-7.8-2.3-12.7-4.5-21.7-5c-5.6-0.3-6.6,0.4-15.5,0c-11.5-0.5-16.4-2-18-2.5c-4.7-1.5-8.4-3.4-11-5c-6.9-4.2-7.5-6.8-12.1-9.8
			c-9-5.8-14.8-0.6-22.2-4.4c-11.8-6.1-12.2-27.3-12.4-36.4c-0.3-17.7,5.3-30.9,9.1-39.5c2.8-6.3,9.3-20.7,23.5-34
			C1198.1,1979.8,1212,1976,1211.6,1975.3z"/>
		<path fill="#C6C2C0" d="M1846.1,1938.3c2.6-2.3,24.5,15.8,41.5,37.3c14.3,18.2,20.9,33.4,23.2,38.9c3.5,8.6,7.6,18.7,9.1,32.5
			c2.9,27.2-6.7,48.7-10.7,56.6c-10.4,20.4-25.2,32.3-35.8,40.8c-6.3,5-9.4,7.5-13.4,9.6c-19.3,9.6-46.3,8.2-66.1-1.7
			c-5.6-2.8-8.9-5.5-15.4-6.1c-10.4-1-14.5,4.6-26.1,7.5c-7.3,1.8-16,0.6-33.4-1.8c-15.1-2.1-23.2-3.3-32-9c-4.4-2.8-4.7-3.9-8-5.1
			c-10.3-3.6-15.2,4.4-28,2.7c-7.4-1-13.6-4.7-17.5-7c-6.8-4-8.2-5.5-8.6-6.1c-3.5-5.6-0.6-12.4,1.1-19.6c0.6-2.6,0.7-11.9,0.8-30.5
			c0.3-37.5-9.6-48.1-5.6-69.3c6.4-33.2,39.5-53.2,41.3-51.6c1.5,1.3-16.8,16.9-24,46.5c-3.3,13.7-0.3,13.4-1.8,45.4
			c-1.7,37.6-6.8,53.1,3.5,62.5c5.1,4.7,12.4,6.4,13.3,6.5c11.1,2.4,15.9-3.1,25.3-2c10.4,1.2,10,8.5,23.7,16
			c20.1,11.1,41.9,6.9,44,6.5c13.1-2.7,12.7-7.4,24.5-8.5c10.5-0.9,14.1,2.5,33,6.5c14.9,3.2,22.3,4.8,30,4
			c19.5-1.9,33.1-14.9,39.7-21.3c5-4.8,18.2-17.8,23.3-39.2c3.6-15.1,1.5-27.1-0.7-38.8c-1.5-7.7-4.9-22.5-21.3-52.7
			C1857.2,1954.4,1844,1940.2,1846.1,1938.3z"/>
		<path fill="#C6C2C0" d="M2063.1,1981.8c1.8-1.7,19.7,10.6,32.4,29.9c12.2,18.8,14.5,36.5,16.1,49.5c2.4,18.7,4.3,34-5,45
			c-6.3,7.4-17.8,13-18.8,13.4c-4.1,1.9-8.1,3.8-13.9,4.8c-9.8,1.6-14.3-1.2-18.3,2.3c-2.9,2.5-1.4,4.7-4.9,10.3
			c-3.2,5.2-7.4,8-9.8,9.6c-6.9,4.6-13.6,5.5-18.6,6.2c-4.2,0.5-13.6,1.6-24.1-2.1c-6.8-2.4-8.2-4.8-13.5-4.9
			c-6.7-0.1-11.5,3.6-14.6,5.7c-14.8,9.8-33.4,8.9-43.6,8.4c-9.3-0.5-24.7-0.5-35.8-10.7c-2.3-2.1-3.8-3.5-4.5-6
			c-2.6-9.4,12.2-16.4,24.5-33.5c2-2.7,14.9-21,16.5-44.5c1.3-18.8-5.1-33.2-4-33.5c1-0.3,7.6,11.4,10,25.5
			c6.9,39.9-24.6,66.8-14,79c7.7,8.9,31.1,2.7,33.5,2c2.7-0.7,8.3-2.3,14.5-6.5c9.5-6.4,8.5-11,14-13c10-3.6,16.3,10.7,34,11.5
			c10.4,0.4,18.5-4.1,21.5-6c2.5-1.6,10.7-7,14.6-17c2.7-6.9,0.8-9.7,3.4-11.5c6.2-4.4,18.2,11.4,30,8c7.7-2.2,11.2-11.3,13.3-16.5
			c5.8-14.8,3.1-29.9-1.3-43.5C2084.2,2005,2060.9,1983.9,2063.1,1981.8z"/>
		<path fill="#C6C2C0" d="M1385.8,1950.3c-3.7-3.5-44,23.5-64.2,67c-8.7,18.8-10.1,32.7-10.3,36.2c-1.9,23.9,5.9,42.2,9,49.3
			c8.9,20.3,21.6,32,24.5,34.6c7.3,6.6,15.7,14.2,28.7,17.6c15.8,4.1,16.5-3.7,41.7-1.9c14.7,1.1,24.8,4.4,32-2
			c3-2.7,4.6-6.2,8.6-6.7c4.3-0.5,7.1,2.9,12.2,6.1c5.8,3.7,10.7,4.6,19.6,6.4c8,1.6,19,3.8,30.6-0.1c8.7-2.9,7.6-5.9,19.6-10.4
			c8.2-3.1,15.2-4.3,19.1-4.9c8.9-1.4,9.4-0.3,20.3-1.3c10.6-1,19.2-1.8,28.7-6.4c6.2-3,9.6-4.6,12.4-8.5c5.8-8,2-16.1,2.9-30.9
			c0.7-12.5,4-16.4,6-26c5.5-26.8-8.3-52-19.1-71.8c-5.9-10.8-15.1-27.1-33-42c-21.6-18-48.2-27.8-50.5-24.2
			c-1.3,2.1,4.7,9.9,37.3,35.3c11.4,10.7,35.2,35.7,44.7,72c1.2,4.8,5.8,23.4,2.7,46.7c-2.2,16.1-6.3,21.9-8.7,24.7
			c-7.2,8.5-20.2,15-31.3,12c-4.4-1.2-3.8-2.6-8-4c-13.6-4.7-21.8,8.9-44,12c-8,1.1-14.4,0.4-24.7-0.7c-13.4-1.4-17.2-4.4-27.3-4.7
			c-10.1-0.3-15.8,2.2-25.3,4.7c-9,2.4-32.8,8.6-48.8,5.3c-24.5-5.1-41.3-35-46.6-57.3c-7.9-33.8,7.5-64.4,20-89.3
			C1376.9,1962.2,1387.9,1952.3,1385.8,1950.3z"/>
		<g>
			<defs>
				<circle id="SVGID_7_" cx="1075" cy="559.1" r="152.5"/>
			</defs>
			<clipPath id="SVGID_8_">
				<use xlink:href="#SVGID_7_"  overflow="visible"/>
			</clipPath>
			<path clip-path="url(#SVGID_8_)" fill="#C6C2C0" d="M1038.1,493.5c1.6-1.8,47.3,30.1,93,73.8c55.6,53.1,139.1,176.2,139.1,176.2
				l-31.7,59.2c0,0-36.5-126.6-134.5-235.6C1068.2,527.4,1036.7,495.1,1038.1,493.5z"/>
		</g>
		<g>
			<defs>
				<circle id="SVGID_9_" cx="1075" cy="559.1" r="152.5"/>
			</defs>
			<clipPath id="SVGID_10_">
				<use xlink:href="#SVGID_9_"  overflow="visible"/>
			</clipPath>
			<path clip-path="url(#SVGID_10_)" fill="#C6C2C0" d="M1202.7,954c0,0-14.3,0-65.9-66.7c-41.4-53.4-62-80.1-82-117.9
				c-24.9-47.2-38.4-88.5-45.6-114.4c-6.7-24-10.5-49.6-18.2-100.7c-2.2-15-6.6-45.8,2-78.9c2.9-11.5,7.2-22.4,17-30.8
				c10.6-9.2,22.7-11.1,29.1-12c22-3.2,40.3,3.9,58.1,11.9c41.6,18.6,71.8,38.3,82.7,45.5c27.9,18.5,47.3,33.4,71.4,51.9
				c31.8,24.4,47.7,36.6,68.5,56.3c12,11.3,36.8,35.7,37.9,36.8c0,0,0,0,0,0c0,0-3.3-4.5-7.6-10.4c4.8,5.9,9.5,11.8,14.3,17.7
				l-18.7,10.7c0,0-23.8-20.1-41.3-42c-4.1-5.1-21.2-19.5-55.3-48c-46.4-38.8-69.7-58.3-74.7-62c0,0-31.7-23.9-82-50
				c-12.3-6.4-28.7-14.4-49.3-12c-4.8,0.6-18.5,2.2-29.3,11.3c-6.2,5.2-17.5,18-17.3,61.3c0,8.8,0.6,41.9,21.5,105.3
				c13.4,40.7,27.1,69.1,30.5,76.1c17.2,35.4,33.7,60.1,46.7,79.3c16.3,24.2,31.4,46.6,56,72.7c21.9,23.2,42.5,40,57.7,51.3
				C1206.8,915.5,1204.7,934.8,1202.7,954z"/>
		</g>
		<g>
			<defs>
				<path id="SVGID_11_" d="M1613.8,947.4c0.3-0.2-119.5,17.4-162.3,104.9c-36,73.5-22.6,106.3-12.2,120.4
					c16.8,22.7,42.2,30.6,71.8,37.3c24.2,5.5,103.7-1.2,102.6-8.1C1613,1196.6,1613.8,947.4,1613.8,947.4z"/>
			</defs>
			<clipPath id="SVGID_12_">
				<use xlink:href="#SVGID_11_"  overflow="visible"/>
			</clipPath>
			<path clip-path="url(#SVGID_12_)" fill="#C6C2C0" d="M1614.3,943.2C1614.3,943.2,1614.3,943.2,1614.3,943.2
				c0.1,0.4-95.4,24.5-113.6,39.1c-12.9,10.3-36.1,30.9-55,63c-6.3,10.7-13.1,22.4-17.5,39.5c-4.1,15.7-4.2,28.6-4.5,52
				c-0.2,12.7-0.2,19.2,1.5,25.5c5.3,19.8,19.6,31.4,23.5,34.5c10.9,8.7,23.6,11.6,48.5,17c13.4,2.9,26.4,5.7,41.8,7.1
				c2.8,0.3,10.2,0.9,17.2,0.9c11.9,0,32-1.7,57.6-12.7c-0.1-10-0.2-20.1-0.3-30.1c-19.8,8-57.9,19.7-100.9,8.5
				c-17.2-4.5-37.4-9.9-50-28.1c-19.7-28.4-7.2-68.5-2-85.5c1.8-5.7,6.1-18.5,15.3-33.6c17.3-28.5,39.5-45.2,53-53.8
				c16-10.4,36.2-21.2,60.7-29.4c8.4-2.8,16.4-5,24.1-6.8C1613.9,948,1614.1,945.6,1614.3,943.2z"/>
		</g>
		<g>
			<defs>
				<path id="SVGID_13_" d="M1613.4,947.4c-0.3-0.2,119.5,17.4,162.3,104.9c36,73.5,22.6,106.3,12.2,120.4
					c-16.8,22.7-42.2,30.6-71.8,37.3c-24.2,5.5-103.7-1.2-102.6-8.1C1614.2,1196.6,1613.4,947.4,1613.4,947.4z"/>
			</defs>
			<clipPath id="SVGID_14_">
				<use xlink:href="#SVGID_13_"  overflow="visible"/>
			</clipPath>
			<path clip-path="url(#SVGID_14_)" fill="#C6C2C0" d="M1612.9,943.2C1612.9,943.2,1612.9,943.2,1612.9,943.2
				c-0.1,0.4,95.4,24.5,113.6,39.1c12.9,10.3,36.1,30.9,55,63c6.3,10.7,13.1,22.4,17.5,39.5c4.1,15.7,4.2,28.6,4.5,52
				c0.2,12.7,0.2,19.2-1.5,25.5c-5.3,19.8-19.6,31.4-23.5,34.5c-10.9,8.7-23.6,11.6-48.5,17c-13.4,2.9-26.4,5.7-41.8,7.1
				c-2.8,0.3-10.2,0.9-17.2,0.9c-11.9,0-32-1.7-57.6-12.7c0.1-10,0.2-20.1,0.3-30.1c19.8,8,57.9,19.7,100.9,8.5
				c17.2-4.5,37.4-9.9,50-28.1c19.7-28.4,7.2-68.5,2-85.5c-1.8-5.7-6.1-18.5-15.3-33.6c-17.3-28.5-39.5-45.2-53-53.8
				c-16-10.4-36.2-21.2-60.7-29.4c-8.4-2.8-16.4-5-24.1-6.8C1613.3,948,1613.1,945.6,1612.9,943.2z"/>
		</g>
	</g>
</g>
<g id="form_2_">
	<path display="none" fill="none" stroke="#000000" stroke-width="14" stroke-linecap="round" stroke-linejoin="round" d="
		M1541.6,589.3c-52.5,2.3-122.3,16.8-188,73.3c-2.4,2-4,3.5-5.7,5c-81.6,73.6-127,181.5-134.5,205.8c-7.2,23.3-4.7,117.4-46.2,175.8
		c-11.3,16-42.5,105.7,17.3,196.2c16,24.1,85.6,109.4,156.7,146.2c53.3,27.6,131.7,64.8,262.3,65.2c109.3,0.3,203.3-17.3,331-92.1
		c39.6-23.2,80.6-71.5,114.8-119.4c35-49.2,45.3-153.9,10.9-199.1c-22.2-29.2-41.7-154.7-54-189.9c-30.7-88-60.5-140.3-118.8-188.5
		c-80.7-66.8-174.7-76.9-219-81.7C1616,580.6,1571.8,584.6,1541.6,589.3z"/>
	<path fill="none" stroke="#000000" stroke-width="13.3874" stroke-linecap="round" stroke-linejoin="round" d="M1398.4,1378.7
		c-58.2,82.9-85.9,155-100.3,206c-20.4,71.9-10.2,96.1-42.1,135.6c-66.8,82.8-88.6,106-95.2,160.1c-7.8,64.9,51.3,89.9,51.3,89.9
		s-59.7,5.9-77.3,76.1c-7.4,29.7-7.4,85,43.1,81.2c5.4-0.4,28.9,36.8,74,18c11.6-4.8,9.6,30.5,96.6,1.6c8.7-2.9,33.1,26.1,109.8-0.4
		c6-2.1,36.5,31,105.7-7.5c3.3-1.8,28.1,3.3,54.1-14.2c6.4-4.3,20.2,25.5,59.1,12.6c8.2-2.7,24,36.3,101.2,8.4
		c11.8-4.3,18.7,31.2,109.1-0.6c13.4-4.7,24.5,33.5,90.4,2.5c9.1-4.3,55.8,22.6,76.4-17c5-9.6,53.8,1.7,55.5-51.3
		c1.3-42.7-10.6-98.5-80.3-107.7c-11.9-1.6,57.7-17.8,48.8-97.3c-3-26.8-47.4-92.8-94-146.7c-36.1-41.8-20.3-63.3-46.3-145.3
		c-16.4-51.8-45.2-124.6-99-208.4"/>
	<g>
		<path d="M1310.3,1650.8c2.4,25.6,5.6,51,9.5,76.3c1.9,12.7,4.1,25.3,6.4,37.8c1.2,6.3,2.4,12.5,3.7,18.8
			c1.3,6.3,2.6,12.5,4.1,18.7c5.8,24.8,12.5,49.4,20.9,73.3c4.2,11.9,8.9,23.7,14.1,35.1c5.2,11.5,11.1,22.6,17.7,33.1
			c1.9,3,1.1,6.9-1.7,8.9l-0.2,0.1l-2,1.5l-2.1,1.6c-1.4,1.1-2.7,2.2-4.1,3.3c-2.7,2.2-5.3,4.5-7.9,6.9c-5.2,4.7-10.1,9.7-14.8,14.9
			c-9.4,10.4-17.7,21.6-24.2,33.7c-3.3,6.1-6,12.3-8.2,18.8c-2.1,6.5-3.7,13.1-4.4,19.8c-1.6,13.4,0.2,27.1,4.8,39.9
			c4.7,12.8,12.1,24.8,21.2,35.4c4.5,5.4,9.3,10.5,14.4,15.4c4.7,4.5,10.6,7.8,17.1,9.8c6.5,2,13.4,3.1,20.4,3.4
			c7,0.3,14.1-0.1,21.2-1c7.1-0.8,14.1-2.1,21.1-3.7c7-1.6,14-3.5,20.8-5.8c-13.1,6-27,10.5-41.3,13.5c-7.2,1.4-14.5,2.3-21.9,2.6
			c-7.4,0.2-14.9-0.3-22.3-2.2c-7.4-1.9-14.6-5.3-20.7-10.5c-5.5-4.8-10.9-9.9-15.9-15.4c-10-11-18.5-23.6-24.2-37.7
			c-2.8-7.1-4.9-14.5-6-22c-1.2-7.6-1.3-15.3-0.6-23c0.6-7.6,2.3-15.2,4.5-22.4c2.3-7.3,5.2-14.3,8.7-20.9
			c7-13.4,15.8-25.5,25.7-36.6c5-5.5,10.2-10.8,15.6-15.8c2.7-2.5,5.5-5,8.4-7.3c1.4-1.2,2.9-2.4,4.3-3.5l2.2-1.7
			c0.8-0.6,1.5-1.1,2.4-1.7l-1.8,9c-14-22.4-24.2-46.6-32.5-71.3c-4.1-12.3-7.7-24.8-10.9-37.4c-3.2-12.6-5.9-25.2-8.3-37.9
			c-2.4-12.7-4.5-25.4-6.2-38.2c-1.7-12.8-3.2-25.6-4.3-38.4c-1.1-12.8-2-25.7-2.5-38.5c-0.3-6.4-0.5-12.9-0.6-19.3
			C1310.2,1663.7,1310.1,1657.2,1310.3,1650.8z"/>
	</g>
	<g>
		<path d="M1922.5,1640.8c0.2,6.4,0.1,12.9,0.1,19.3c-0.1,6.4-0.3,12.9-0.6,19.3c-0.5,12.9-1.4,25.7-2.5,38.5
			c-1.2,12.8-2.6,25.6-4.3,38.4c-1.7,12.8-3.8,25.5-6.2,38.2c-2.4,12.7-5.1,25.4-8.3,37.9c-3.1,12.6-6.8,25-10.9,37.4
			c-8.2,24.6-18.5,48.8-32.5,71.3l-1.5-8.8c1.6,1.3,2.9,2.5,4.3,3.7c1.4,1.2,2.7,2.5,4.1,3.8c2.7,2.5,5.3,5.1,7.9,7.7
			c5.1,5.3,10.1,10.8,14.8,16.4c9.3,11.4,17.8,23.7,24.6,36.9c6.8,13.3,12,27.6,14.1,42.7c2.1,15,1,30.7-4,45.1
			c-4.9,14.4-13.2,27.4-23.1,38.4c-4.9,5.6-10.4,10.6-16,15.3c-1.4,1.2-2.8,2.3-4.3,3.5c-1.4,1.1-3,2.3-4.6,3.3
			c-3.2,2.1-6.5,3.9-10,5.5c-3.5,1.5-7.1,2.8-10.7,3.7c-3.6,0.9-7.4,1.5-11.1,1.9c-7.4,0.7-14.8,0.5-22.1-0.5
			c-14.5-2.2-28.4-6.8-41.1-13.7c6.7,2.7,13.5,4.8,20.5,6.4c6.9,1.6,14,2.7,21,3.1c7,0.4,14.1,0.1,20.9-1.1c3.4-0.6,6.8-1.4,10-2.5
			c3.2-1.1,6.4-2.3,9.4-3.9c3-1.6,5.9-3.3,8.6-5.4c1.4-1,2.6-2.1,3.9-3.2c1.3-1.1,2.6-2.3,3.9-3.5c5.2-4.7,10-9.8,14.5-15.1
			c8.9-10.6,16-22.6,19.9-35.6c1.9-6.5,3.1-13.1,3.5-19.8c0.4-6.7,0-13.5-1.1-20.2c-2.2-13.4-7.1-26.4-13.5-38.5
			c-6.5-12.2-14.5-23.7-23.4-34.4c-4.5-5.4-9.2-10.6-14.1-15.6c-2.5-2.5-5-4.9-7.5-7.3c-1.3-1.2-2.6-2.4-3.9-3.5
			c-1.3-1.1-2.6-2.3-3.8-3.3l-0.1,0c-2.6-2.2-3.2-5.9-1.4-8.7c6.6-10.6,12.5-21.7,17.7-33.1c5.3-11.4,9.9-23.2,14.1-35.1
			c8.5-23.9,15.2-48.5,20.9-73.3c1.4-6.2,2.8-12.4,4.1-18.7c1.3-6.3,2.5-12.5,3.7-18.8c2.4-12.6,4.5-25.2,6.4-37.8
			C1916.9,1691.8,1920,1666.4,1922.5,1640.8z"/>
	</g>
	<g>
		<path d="M1510.6,1650.8c0.5,24.3,0.5,48.5,0.9,72.8c0.1,12.1,0.2,24.2,0.5,36.3c0.2,12.1,0.5,24.2,1.1,36.2c0.3,6,0.6,12,1.2,17.8
			c0.3,2.8,0.7,5.9,1.1,8.9l1.1,9l4.3,36.1c1.5,12,2.9,24,4.8,35.8c0.5,2.9,0.9,5.9,1.5,8.7c0.3,1.4,0.6,2.8,0.9,4.2
			c0.3,1.3,0.7,2.7,1,3.5c0.1,0.2,0.1,0.4,0.1,0.3c0,0,0-0.1,0-0.1c0,0-0.1-0.2-0.2-0.3l-0.1-0.2c-0.1-0.1-0.2-0.3-0.4-0.4l-0.2-0.2
			l-0.2-0.1c-0.3-0.2-0.1-0.1,0.1,0c0.2,0.1,0.4,0.2,0.7,0.4c1.1,0.5,2.5,1.1,3.9,1.7c2.8,1.2,5.6,2.4,8.5,3.8
			c11.3,5.3,22.3,11.8,32.3,19.6c10,7.8,19,16.9,26.6,27.1c7.6,10.2,13.8,21.3,18.4,33.1c4.7,11.7,7.8,24,9.6,36.3
			c0.9,6.2,1.5,12.4,1.9,18.6c0.3,6.2,0.4,12.4,0.2,18.6c-0.2,6.2-0.6,12.3-1.3,18.4c-0.3,3.1-0.7,6.1-1.1,9.1l-0.6,4.6l-0.3,2.3
			l-0.2,1.2c-0.1,0.4-0.2,0.8-0.3,1.3c-0.8,3.4-2.3,6.6-4.2,9.3c-2,2.8-4.4,5.1-7.1,7c-5.3,3.8-11.3,6.1-17.4,7.5
			c-6.1,1.4-12.2,2.2-18.3,2.2c-3.1,0-6.1-0.1-9.2-0.5c-1.5-0.2-3-0.4-4.5-0.8c-0.7-0.2-1.5-0.4-2.2-0.7c-0.7-0.3-1.4-0.6-1.9-1.3
			c0.5,0.6,1.3,0.8,2,1c0.7,0.2,1.5,0.3,2.2,0.4c1.5,0.2,3,0.3,4.5,0.3c3,0,6-0.1,9-0.5c6-0.6,11.8-1.9,17.4-3.8
			c5.6-1.9,10.9-4.5,15.3-8.1c2.2-1.8,4-3.9,5.4-6.1c1.4-2.3,2.3-4.8,2.7-7.4c0.1-0.3,0.1-0.6,0.1-1l0.1-1l0.2-2.2l0.4-4.5
			c0.2-3,0.4-6,0.5-9c0.3-6,0.3-11.9,0.2-17.9c-0.3-11.9-1.4-23.7-3.7-35.3c-2.2-11.6-5.6-22.9-10.2-33.6
			c-4.6-10.7-10.5-20.8-17.6-29.9c-7.1-9.1-15.4-17.3-24.6-24.3c-9.2-7.1-19.2-13-29.9-17.9c-2.7-1.2-5.3-2.4-8.1-3.7
			c-1.4-0.6-2.8-1.2-4.4-2c-0.4-0.2-0.8-0.4-1.3-0.7c-0.5-0.3-1-0.5-1.9-1.2c-0.1-0.1-0.3-0.2-0.4-0.3c-0.2-0.1-0.2-0.2-0.4-0.4
			c-0.2-0.2-0.4-0.4-0.6-0.6c-0.1-0.2-0.2-0.3-0.3-0.4c-0.2-0.2-0.4-0.6-0.5-0.8l-0.3-0.6c-0.4-0.7-0.6-1.3-0.8-1.8
			c-0.7-2-1.1-3.6-1.4-5.2c-0.4-1.6-0.7-3.2-0.9-4.7c-0.6-3.1-1-6.1-1.5-9.2c-1.7-12.2-3.1-24.3-4.3-36.4
			c-1.2-12.1-2.4-24.2-3.5-36.2l-0.8-9c-0.3-3-0.6-6-0.8-9.2c-0.4-6.3-0.5-12.4-0.6-18.5c-0.1-24.4,1.1-48.7,2.4-72.9
			C1506.3,1699.2,1508,1675,1510.6,1650.8z"/>
	</g>
	<g>
		<path d="M1730.6,1637.8c-1.3,8.9-2.3,17.8-3.3,26.7c-0.9,8.9-1.7,17.8-2.3,26.8c-1.1,17.8-1.5,35.7-0.4,53.3
			c0.2,4.4,0.7,8.8,1.1,13.2c0.5,4.6,0.8,9.2,1,13.7c0.4,9.1,0.5,18.2,0.4,27.2c-0.1,9-0.3,18.1-0.7,27.1c-0.4,9-0.9,18-1.6,27
			c-1.4,18-3.1,36-6.1,54.1c-0.8,4.5-1.6,9-2.7,13.7c-0.6,2.3-1.2,4.6-2.1,7.1c-0.4,1.2-0.9,2.5-1.7,4c-0.4,0.8-0.9,1.6-1.8,2.6
			c-0.3,0.3-0.5,0.5-0.9,0.9c-0.2,0.2-0.3,0.3-0.6,0.5c-0.2,0.2-0.5,0.3-0.7,0.5c-0.2,0.1-0.6,0.3-0.9,0.5c-0.2,0.1-0.3,0.1-0.5,0.2
			c-0.2,0.1-0.4,0.1-0.6,0.2c-0.4,0.1-0.8,0.2-1.3,0.3c-0.2,0-0.5,0-0.7,0.1l-0.4,0c-3.1-0.1-6.9,0.8-10.6,2.3
			c-3.7,1.4-7.4,3.3-11.1,5.5c-7.2,4.3-14.2,9.5-20.6,15.3c-6.5,5.7-12.6,12-18,18.6c-5.5,6.7-10.5,13.8-14.2,21.3
			c-1.8,3.8-3.4,7.6-4.3,11.5c-0.9,3.9-1.1,7.8-0.3,11.3l0.1,0.4l0,0l2.8,18.7c0.9,6.2,1.8,12.5,2.7,18.7l0,0.3c0,0.1,0,0.3,0,0.4
			l-1.1,15.4c-0.4,5.1-0.7,10.2-1.1,15.4l-1.2,15.4c-0.5,5.1-0.9,10.2-1.4,15.3c-0.2-5.1-0.4-10.3-0.5-15.4l-0.4-15.4
			c-0.1-5.1-0.2-10.3-0.3-15.4l-0.2-15.4l0,0.6c-1.4-6.2-2.6-12.3-3.9-18.5l-3.9-18.5l0.1,0.4c-1.6-5.2-1.4-10.5-0.6-15.4
			c0.9-4.9,2.4-9.5,4.3-13.9c3.8-8.8,8.9-16.7,14.5-24.1c5.7-7.4,11.9-14.3,18.7-20.6c6.8-6.3,14.1-12.2,22.2-17.2
			c4.1-2.5,8.3-4.8,13-6.6c2.3-0.9,4.7-1.7,7.3-2.3c2.6-0.6,5.3-1,8.3-1c0.1,0,0,0-0.2,0c-0.2,0-0.3,0-0.5,0c-0.3,0-0.6,0.1-0.9,0.2
			c-0.1,0-0.3,0.1-0.4,0.1c-0.1,0-0.2,0.1-0.3,0.1c-0.2,0.1-0.4,0.2-0.5,0.3c-0.1,0.1-0.3,0.2-0.4,0.3c-0.1,0.1-0.2,0.1-0.2,0.2
			c-0.2,0.2-0.2,0.2-0.3,0.3c-0.2,0.2-0.1,0.1,0.1-0.1c0.3-0.5,0.6-1.3,0.9-2.2c0.6-1.8,1.2-3.8,1.6-5.8c1-4.1,1.8-8.4,2.5-12.7
			c1.4-8.7,2.6-17.5,3.6-26.3c1-8.8,1.9-17.7,2.7-26.6c1.6-17.8,2.9-35.6,3.7-53.4c0.4-8.9,0.7-17.8,0.7-26.6
			c0-4.4-0.1-8.8-0.3-13.2c-0.3-4.5-0.5-9.1-0.5-13.7c-0.1-18.3,1.5-36.3,4.2-54.2c0.7-4.5,1.4-8.9,2.1-13.4
			c0.8-4.4,1.7-8.9,2.6-13.3C1726.1,1655.3,1728.2,1646.5,1730.6,1637.8z"/>
	</g>
	<g>
		<path d="M1552.7,2136.2c-0.2,0.2-0.5,0.4-0.6,0.6c-0.1,0.1-0.1,0.1-0.1,0.2c0,0,0,0,0.1-0.1c0,0,0,0,0-0.1l0.1-0.1l0.1-0.3
			l0.2-0.4c0.1-0.2,0.2-0.6,0.3-0.9c0.4-1.3,0.7-2.8,1-4.3c0.6-3.1,0.9-6.4,1.2-9.8c0.5-6.7,0.7-13.5,0.7-20.3
			c-0.1-13.7-1.1-27.4-2.9-41c-1.9-13.6-4.6-27.1-9.1-40.1c-2.3-6.5-5-12.8-8.6-18.6c-3.6-5.8-8.3-11.1-14.4-14.5
			c6.4,2.8,11.6,7.9,15.8,13.5c4.2,5.7,7.5,11.9,10.4,18.3c5.7,12.9,9.6,26.4,12.6,40.1c3,13.7,5.1,27.6,6.3,41.7
			c0.6,7,1,14.1,1,21.3c0,3.6-0.1,7.2-0.5,11c-0.2,1.9-0.4,3.8-0.9,5.9c-0.1,0.5-0.2,1-0.4,1.6l-0.2,0.8l-0.3,0.9l-0.2,0.5
			c-0.1,0.2-0.2,0.4-0.2,0.5c-0.2,0.4-0.3,0.7-0.6,1.1c-0.3,0.4-0.6,0.9-0.9,1.3c-0.4,0.5-1,1.1-1.5,1.5c-2.9,2.3-7.1,1.8-9.4-1.1
			C1549.3,2142.7,1549.8,2138.5,1552.7,2136.2z"/>
	</g>
	<g>
		<path d="M1449.8,2144.2c-0.3,0.3-0.5,0.7-0.6,1.2l-0.1,0.3l0,0.1l0,0.1c0,0.1,0,0.1,0,0.1c0,0,0,0,0,0c0,0,0,0,0,0l0-0.1
			c0-0.1,0-0.1,0.1-0.3c0.1-0.5,0.1-1,0.1-1.6c0.1-1.2,0.1-2.5,0.1-3.9c0-2.7-0.1-5.4-0.3-8.1c-0.3-5.5-0.8-11-1.5-16.5
			c-1.3-11-3.2-22-5.8-32.8c-2.6-10.8-5.8-21.5-10.4-31.6c-2.3-5-5-9.9-8.3-14.4c-3.3-4.4-7.3-8.5-12.3-11.1
			c5.2,2.1,9.8,5.9,13.6,10c3.8,4.2,7.1,9,10,13.9c5.8,9.9,10.1,20.5,13.9,31.2c3.7,10.8,6.8,21.8,9.3,32.9
			c1.2,5.6,2.3,11.2,3.3,16.9c0.5,2.9,0.9,5.7,1.2,8.7c0.2,1.5,0.3,3,0.4,4.6c0,0.8,0.1,1.6,0,2.6c0,0.2,0,0.5,0,0.8l0,0.4l-0.1,0.5
			l-0.1,0.5c0,0.1,0,0.2-0.1,0.3l-0.1,0.4l-0.1,0.4c0,0.2,0,0.2-0.2,0.5c-0.2,0.6-0.5,1.1-0.9,1.6c-2.1,3-6.3,3.7-9.3,1.6
			C1448.4,2151.4,1447.7,2147.2,1449.8,2144.2z"/>
	</g>
	<g>
		<path d="M1978.6,2144.5c-0.2,0.3-0.4,0.7-0.5,1.1l-0.1,0.2l0,0.1c0,0,0,0.2,0,0.2l0-0.1c0,0,0,0,0-0.1l0-0.2c0-0.1,0-0.2,0.1-0.3
			c0.1-0.5,0.1-1.1,0.1-1.8c0.1-1.3,0.1-2.7,0.1-4.1c0-2.8-0.1-5.7-0.2-8.5c-0.3-5.7-0.7-11.5-1.3-17.3c-1.2-11.5-2.8-23-5.1-34.4
			c-2.3-11.4-5.2-22.7-9.4-33.5c-2.1-5.4-4.6-10.7-7.7-15.6c-3.1-4.9-6.9-9.4-11.9-12.5c5.3,2.6,9.7,6.9,13.3,11.5
			c3.6,4.7,6.6,9.9,9.3,15.2c5.3,10.6,9.4,21.9,12.8,33.2c3.4,11.4,6.2,22.9,8.6,34.6c1.2,5.8,2.2,11.7,3,17.6c0.4,3,0.8,6,1.1,9
			c0.1,1.5,0.3,3.1,0.3,4.7c0,0.8,0.1,1.7,0,2.6c0,0.2,0,0.5,0,0.8l0,0.4l-0.1,0.5l-0.1,0.5c0,0.1-0.1,0.5-0.1,0.7l-0.1,0.4
			c0,0.1,0,0.2-0.2,0.5c-0.2,0.5-0.4,1.1-0.7,1.6c-1.9,3.1-6.1,4.1-9.2,2.2S1976.7,2147.6,1978.6,2144.5z"/>
	</g>
	<g>
		<path d="M2044.4,2131.8c-0.1,0.1-0.2,0.3-0.3,0.5l0,0.1l0,0.1l0,0l0.1-0.1C2044.2,2132.1,2044.3,2132,2044.4,2131.8
			c0.1-0.6,0.3-1.1,0.5-1.7c0.4-1.1,0.7-2.4,1-3.6c0.6-2.5,1.1-5,1.6-7.6c0.9-5.2,1.5-10.4,1.9-15.6c0.7-10.5,0.4-21.1-1.5-31.5
			c-0.9-5.2-2.2-10.3-4-15.3c-1.8-5-4-9.8-6.8-14.3c-2.8-4.5-6.2-8.7-10-12.4c-3.9-3.7-8.3-6.9-13-9.6c4.9,2.3,9.7,5,14.1,8.4
			c4.3,3.4,8.2,7.4,11.7,11.8c3.5,4.4,6.3,9.2,8.7,14.3c2.4,5,4.4,10.3,5.9,15.7c3.1,10.8,4.6,22,5,33.2c0.2,5.6,0.1,11.2-0.3,16.9
			c-0.2,2.8-0.5,5.6-0.9,8.5c-0.2,1.4-0.4,2.9-0.7,4.4c-0.1,0.7-0.3,1.5-0.5,2.3c-0.1,0.4-0.3,0.9-0.4,1.4l-0.1,0.4l0,0.1l-0.1,0.2
			l-0.2,0.4c-0.2,0.5-0.5,0.9-0.7,1.4c-2.1,3.1-6.2,3.9-9.3,1.8S2042.3,2134.9,2044.4,2131.8z"/>
	</g>
	<g>
		<path d="M1775,2144.6c-0.1-1.7-0.1-3-0.1-4.5c0-1.5,0-2.9,0-4.4c0.1-2.9,0.2-5.8,0.4-8.6c0.4-5.7,1-11.5,1.8-17.1
			c1.7-11.3,4.4-22.5,8.2-33.3c2-5.4,4.2-10.6,6.8-15.7c2.6-5.1,5.7-9.9,9-14.5c3.3-4.6,7.2-8.8,11.3-12.7
			c4.1-3.9,8.7-7.2,13.4-10.2c-4.4,3.5-8.5,7.2-12.2,11.4c-3.6,4.2-6.9,8.6-9.7,13.4c-2.8,4.8-5.2,9.7-7.2,14.8
			c-2,5.1-3.6,10.3-5,15.6c-2.6,10.6-4.1,21.5-4.6,32.4c-0.3,5.4-0.3,10.9-0.1,16.3c0.1,2.7,0.3,5.4,0.5,8.1c0.1,1.3,0.2,2.7,0.4,4
			c0.1,1.3,0.3,2.7,0.5,3.8c0.6,3.7-1.9,7.1-5.6,7.7s-7.1-1.9-7.7-5.6C1775,2145.1,1775,2144.9,1775,2144.6L1775,2144.6z"/>
	</g>
	<g>
		<path d="M1673.5,2136.2c-0.2-3.6-0.3-7-0.3-10.4c0-3.4-0.1-6.9,0-10.3c0.1-6.9,0.4-13.7,0.8-20.5c0.9-13.7,2.6-27.3,5.4-40.7
			c2.9-13.4,6.9-26.7,13.3-38.9c3.2-6.1,7-11.9,11.8-16.8c4.7-5,10.2-9.2,16.4-11.9c-5.9,3.2-11,7.8-15.2,13
			c-4.2,5.2-7.4,11.1-10,17.2c-5.2,12.2-8,25.4-9.7,38.5c-1.7,13.2-2.2,26.6-2,39.9c0.1,6.7,0.4,13.3,0.9,20
			c0.2,3.3,0.5,6.6,0.8,9.9c0.3,3.3,0.7,6.6,1.1,9.8l0,0.1c0.5,3.7-2,7.1-5.7,7.6s-7.1-2-7.6-5.7
			C1673.5,2136.6,1673.5,2136.4,1673.5,2136.2z"/>
	</g>
	<g>
		<path d="M1248.5,2144.6c-0.1-1.7-0.1-3.2-0.2-4.7c0-1.5-0.1-3.1-0.1-4.6c0-3.1,0-6.1,0.1-9.1c0.2-6.1,0.6-12.1,1.1-18.2
			c1.2-12.1,3.2-24.1,6.4-35.8c3.3-11.7,7.8-23.2,14.5-33.3c6.6-10.2,15.9-18.7,26.8-23.5c-10.4,5.9-18.6,14.9-23.9,25.2
			c-5.5,10.3-8.8,21.6-10.9,33.1c-2,11.5-2.9,23.2-2.9,34.8c0,5.8,0.2,11.7,0.5,17.5c0.2,2.9,0.4,5.8,0.7,8.7
			c0.1,1.4,0.3,2.9,0.5,4.3c0.2,1.4,0.4,2.9,0.6,4.2c0.6,3.7-1.9,7.1-5.6,7.7c-3.7,0.6-7.1-1.9-7.7-5.6
			C1248.6,2145.1,1248.5,2144.9,1248.5,2144.6L1248.5,2144.6z"/>
	</g>
	<g>
		<path d="M1177.5,2132.6c-0.1-0.8-0.2-1.4-0.3-2.1l-0.3-2c-0.2-1.3-0.3-2.7-0.4-4c-0.2-2.7-0.5-5.3-0.6-8
			c-0.3-5.3-0.3-10.6-0.1-15.9c0.4-10.6,1.7-21.2,4.6-31.4c1.4-5.1,3.1-10.1,5.4-14.9c2.3-4.8,5-9.4,8.1-13.6c3.2-4.2,7-7.9,11-11.1
			c4.1-3.2,8.7-5.7,13.3-7.8c-4.4,2.6-8.6,5.6-12.3,9.1c-3.6,3.6-6.7,7.5-9.4,11.8c-5.1,8.6-8.3,18.2-9.8,28
			c-1.6,9.8-1.7,19.9-1.1,29.8c0.4,5,0.9,9.9,1.7,14.8c0.4,2.5,0.9,4.9,1.4,7.3c0.3,1.2,0.5,2.4,0.8,3.6l0.4,1.8
			c0.1,0.6,0.3,1.2,0.4,1.6c1.1,3.5-0.9,7.3-4.5,8.4c-3.5,1.1-7.3-0.9-8.4-4.5c-0.1-0.2-0.1-0.5-0.2-0.7L1177.5,2132.6z"/>
	</g>
	<path fill="none" stroke="#000000" stroke-width="13.3874" stroke-linecap="round" stroke-linejoin="round" d="M1208.5,1968.6
		c0,0,65.3,31,135.6,14"/>
	<path fill="none" stroke="#000000" stroke-width="13.3874" stroke-linecap="round" stroke-linejoin="round" d="M2032.1,1969.6
		c0,0-74.7,39-135.9,18.2"/>
	<path fill="#1B110F" stroke="#000000" stroke-width="6.6937" stroke-linecap="round" stroke-linejoin="round" d="M1718.6,2096.7
		c-3.3,13.2,6.1,28.4,12.4,28.8c10.7,0.8,21.9-40,12.8-45.9C1738.2,2076,1722,2082.9,1718.6,2096.7z"/>
	<path fill="#1B110F" stroke="#000000" stroke-width="6.6937" stroke-linecap="round" stroke-linejoin="round" d="M1639.5,2084.7
		c-2.1,8.6,4.4,18.6,8.6,18.9c7.1,0.6,14.2-25.8,8-29.8C1652.4,2071.4,1641.6,2075.7,1639.5,2084.7z"/>
	<path fill="#1B110F" stroke="#000000" stroke-width="6.6937" stroke-linecap="round" stroke-linejoin="round" d="M1517.2,2098.8
		c1.7,12.5-8.5,25.4-14.3,25.2c-9.9-0.4-16.1-39-7-43.5C1501.3,2077.8,1515.5,2085.7,1517.2,2098.8z"/>
	<path fill="#1B110F" stroke="#000000" stroke-width="6.6937" stroke-linecap="round" stroke-linejoin="round" d="M1603.2,2082.4
		c2.6,11.9-7.2,26-13.3,26.7c-10.4,1.1-19.4-35.5-10.2-41.2C1585.2,2064.4,1600.5,2070,1603.2,2082.4z"/>
	<path fill="#1B110F" stroke="#000000" stroke-width="6.6937" stroke-linecap="round" stroke-linejoin="round" d="M1412.3,2109.2
		c1.4,10.7-7.8,22-12.9,21.8c-8.7-0.2-13.8-33.4-5.7-37.4C1398.4,2091.3,1410.8,2098,1412.3,2109.2z"/>
	<path fill="#1B110F" stroke="#000000" stroke-width="6.6937" stroke-linecap="round" stroke-linejoin="round" d="M1270.3,2100.1
		c0.3-10.2,10.3-19.3,14.9-18.3c7.9,1.6,7.7,33.4-0.2,35.8C1280.4,2119,1270,2110.8,1270.3,2100.1z"/>
	<path fill="#1B110F" stroke="#000000" stroke-width="6.6937" stroke-linecap="round" stroke-linejoin="round" d="M1199.8,2087.1
		c0.3-10.1,9.9-19,14.5-18.1c7.7,1.6,7.6,33-0.1,35.4C1209.6,2105.8,1199.5,2097.7,1199.8,2087.1z"/>
	<path fill="#1B110F" stroke="#000000" stroke-width="6.6937" stroke-linecap="round" stroke-linejoin="round" d="M1148.6,2074
		c0.5-9.4,10.5-17.8,15.2-17c7.8,1.3,7,30.4-0.8,32.8C1158.2,2091.2,1148,2083.9,1148.6,2074z"/>
	<path fill="#1B110F" stroke="#000000" stroke-width="6.6937" stroke-linecap="round" stroke-linejoin="round" d="M1820.1,2101.8
		c-2.7,13,8.7,28.8,15.6,29.7c11.8,1.6,21.2-38.5,10.7-45.1C1840.1,2082.5,1822.9,2088.1,1820.1,2101.8z"/>
	<path fill="#1B110F" stroke="#000000" stroke-width="6.6937" stroke-linecap="round" stroke-linejoin="round" d="M1954.3,2107.3
		c-2.2-8.9-13.8-15.1-18.2-13.6c-7.6,2.6-1.4,30.2,6.9,31.1C1947.8,2125.2,1956.6,2116.5,1954.3,2107.3z"/>
	<path fill="#1B110F" stroke="#000000" stroke-width="6.6937" stroke-linecap="round" stroke-linejoin="round" d="M2029.8,2097.2
		c-2.2-10.1-13.7-17.1-18.2-15.4c-7.6,3-1.6,34.3,6.7,35.3C2023.3,2117.7,2032,2107.7,2029.8,2097.2z"/>
	<path fill="#1B110F" stroke="#000000" stroke-width="6.6937" stroke-linecap="round" stroke-linejoin="round" d="M2090.6,2077.1
		c-2.1-8-13.1-13.7-17.3-12.3c-7.2,2.3-1.3,27.2,6.6,28C2084.6,2093.3,2092.8,2085.5,2090.6,2077.1z"/>
	<path fill="none" stroke="#000000" stroke-width="12" stroke-linecap="round" stroke-linejoin="round" d="M1366.2,638.8
		c-128.3-115.1-289.5-240.7-351.5-197.9c-38.9,26.8-25.1,110.6-16.2,164.6c27.8,168.7,134.6,286.2,204.1,348.5"/>
	<g>
		<path d="M1256.3,749.6c-3.3-6-6.8-12-10.4-18c-3.5-6-7.2-11.9-10.8-17.8c-7.3-11.8-14.9-23.5-22.6-35.1
			c-7.8-11.6-15.7-23-23.9-34.3c-8.2-11.3-16.6-22.4-25.3-33.3c-8.7-10.9-17.6-21.7-26.8-32.1c-9.3-10.4-18.7-20.7-28.7-30.5
			c-2.4-2.5-5-4.9-7.5-7.3c-2.5-2.4-5-4.9-7.6-7.1l-7.8-7l-8-6.8c-10.8-8.9-22-17.2-33.8-24.8c12.1,7,23.7,14.9,34.9,23.4l8.3,6.4
			l8.1,6.7c2.7,2.2,5.3,4.6,8,6.9c2.6,2.3,5.3,4.6,7.9,7c10.4,9.4,20.4,19.3,30.1,29.4c9.8,10.1,19.1,20.6,28.4,31.2
			c9.2,10.6,18.1,21.5,26.9,32.5c8.7,11,17.2,22.2,25.6,33.6c8.3,11.4,16.4,22.8,24.3,34.5c7.9,11.7,15.6,23.4,23,35.5
			c2,3.3,1,7.6-2.3,9.6c-3.3,2-7.6,1-9.6-2.3C1256.4,749.9,1256.4,749.8,1256.3,749.6L1256.3,749.6z"/>
	</g>
	<path fill="none" stroke="#000000" stroke-width="12" stroke-linecap="round" stroke-linejoin="round" d="M1861.3,638.8
		c128.3-115.1,289.5-240.7,351.5-197.9c38.9,26.8,25.1,110.6,16.2,164.6c-27.8,168.7-134.6,286.2-204.1,348.5"/>
	<g>
		<path d="M1959.1,742.7c7.4-12.2,15.1-23.9,23-35.5c7.9-11.6,16-23.1,24.3-34.5c8.3-11.3,16.8-22.5,25.6-33.6
			c8.7-11,17.6-21.9,26.9-32.5c9.2-10.6,18.6-21.1,28.4-31.2c9.8-10.1,19.7-20,30.1-29.4c2.6-2.4,5.2-4.7,7.9-7
			c2.7-2.3,5.2-4.7,8-6.9l8.1-6.7l8.3-6.4c11.2-8.4,22.8-16.4,34.9-23.4c-11.8,7.5-23,15.9-33.8,24.8l-8,6.8l-7.8,7
			c-2.6,2.3-5.1,4.8-7.6,7.1c-2.5,2.4-5.1,4.8-7.5,7.3c-10,9.8-19.4,20-28.7,30.5c-9.3,10.4-18.1,21.2-26.8,32.1
			c-8.7,10.9-17.1,22-25.3,33.3c-8.2,11.3-16.2,22.7-23.9,34.3c-7.8,11.6-15.3,23.3-22.6,35.1c-3.7,5.9-7.3,11.9-10.8,17.8
			c-3.5,6-7.1,12-10.4,18l0,0.1c-1.9,3.4-6.1,4.6-9.5,2.7s-4.6-6.1-2.7-9.5C1959,742.9,1959,742.8,1959.1,742.7z"/>
	</g>
	<path fill="none" stroke="#000000" stroke-width="12" stroke-linecap="round" stroke-linejoin="round" d="M1177.1,1939
		c-25.9,5.6-134,25.8-216.4-38.7c-64.6-50.6-85.1-128.9-96.6-174c-21.7-84.5-11.2-154.2-23-155.3c-10.2-1-24.6,50.5-29,68.3
		c-4.3,17.6-6.3,32.8-7.3,44c-3.6-1.7-8.2-4.5-12.7-9c-9.6-9.7-12.2-21.1-13-26c-7.9,13.7-30.4,56.8-23,114
		c6.2,48.1,30.3,80.2,41,93c11,12.6,12.1,16.7,11,18c-0.5,0.6-3,2.5-37-15c-24.2-12.4-26.4-15.2-28-14c-11.5,8.6,22.6,139.6,130,199
		c80.9,44.7,183.7,37.9,267.5-14.5c4.3-9.9,17-35.8,45.7-50.1c9.4-4.7,18.4-7.1,25.8-8.3c-4.9-1.3-15.7-4.9-24.9-14.9
		C1181.7,1949.5,1178.7,1943.2,1177.1,1939z"/>
	<path fill="none" stroke="#000000" stroke-width="14" stroke-miterlimit="10" d="M1615.8,564.2c-40.4-1.8-131.2-0.2-222.7,55.1
		c-20.9,12.6-67.4,43.4-109.2,99c-9.2,12.3-51,69.3-70.9,157c-19.3,85-8.5,156.8,1.1,197.8c-14.2,1.1-38.7,4.8-65,19.2
		c-26.1,14.4-41.1,32.3-49,42c-29.8,36.5-39.1,75.9-42.3,98c5.8-9.8,21.4-33,51.7-48.1c26.4-13.2,50.7-13.5,62.1-13
		c-6.9,3-17.9,9-28,20.1c-8.3,9.2-12.4,17.9-15.1,23.9c-3.9,8.5-9.1,22.8-10,42c42.4-42.3,69.5-46.5,86.6-42.2
		c26.6,6.7,32.9,35,66,73.4c27.7,32.1,54.6,48.5,93.1,71.9c95.9,58.5,207.2,66.6,251.6,68"/>
	<path fill="none" stroke="#000000" stroke-width="14" stroke-miterlimit="10" d="M1614.5,564.3c40.3-1.7,130.2,0.3,221,55
		c20.5,12.4,67.1,43.2,109.2,99c9.2,12.3,51,69.3,70.9,157c19.3,85,8.5,156.8-1.1,197.8c14.2,1.1,38.7,4.8,65,19.2
		c26.1,14.4,41.1,32.3,49,42c29.8,36.5,39.1,75.9,42.3,98c-5.8-9.8-21.4-33-51.7-48.1c-26.4-13.2-50.7-13.5-62.1-13
		c6.9,3,17.9,9,28,20.1c8.3,9.2,12.4,17.9,15.1,23.9c3.9,8.5,9.1,22.8,10,42c-42.4-42.3-69.5-46.5-86.6-42.2
		c-26.6,6.7-32.9,35-66,73.4c-27.8,32.1-54.7,48.5-93.1,71.9c-95.3,58.1-205.1,66.5-250.1,68.1"/>
</g>
<g id="eye_x5F_04">
	<g id="图层_5_x5F_复制_2">
		<path fill="#F9F8F7" d="M1416.5,908.6c-1.7,0-2.9-0.7-3.7-1.6c-1.4-0.1-2.9-0.1-4.3-0.2c-16.2,5-33.3,3.8-50,5.1
			c-2.3,0.2-3.9-1.4-4.6-3.3c-6.7,1.5-13.3,2.8-20.1,4c0.6,2.7-1,5.8-4.7,6c-11.5,0.6-23,1.6-34.6,1.5c-2.3,8-3.6,16.5-3.6,25.3
			c0,49.9,40.5,90.4,90.4,90.4c49.9,0,90.4-40.5,90.4-90.4c0-13-2.8-25.4-7.7-36.5C1448.2,908.9,1432.4,909,1416.5,908.6z"/>
		<path fill="#6A652A" d="M1433.8,905.3c-18.3,0.2-36.7,0.1-55,0.9c-13.1,0.5-26.2,2.1-39.3,3c-7.4,10.1-11.8,22.5-11.8,36
			c0,33.4,27.1,60.5,60.5,60.5s60.5-27.1,60.5-60.5C1448.8,929.9,1443.1,916,1433.8,905.3z"/>
		<circle fill="#342C12" stroke="#0C0C0C" stroke-width="5.4703" cx="1393.9" cy="945.7" r="38.2"/>
		<circle fill="#201F0A" cx="1390.6" cy="945.7" r="23"/>
		<circle fill="#B39E85" cx="1345.1" cy="954.8" r="18.5"/>
		<circle fill="#FFFFFF" cx="1426.6" cy="947.8" r="25.5"/>
		<path fill="#F9F8F7" d="M1817.8,908.6c1.7,0,2.9-0.7,3.7-1.6c1.4-0.1,2.9-0.1,4.3-0.2c16.2,5,33.3,3.8,50,5.1
			c2.3,0.2,3.9-1.4,4.6-3.3c6.7,1.5,13.3,2.8,20.1,4c-0.6,2.7,1,5.8,4.7,6c11.5,0.6,23,1.6,34.6,1.5c2.3,8,3.6,16.5,3.6,25.3
			c0,49.9-40.5,90.4-90.4,90.4c-49.9,0-90.4-40.5-90.4-90.4c0-13,2.8-25.4,7.7-36.5C1786,908.9,1801.9,909,1817.8,908.6z"/>
		<path fill="#6A652A" d="M1800.4,905.3c18.3,0.2,36.7,0.1,55,0.9c13.1,0.5,26.2,2.1,39.3,3c7.4,10.1,11.8,22.5,11.8,36
			c0,33.4-27.1,60.5-60.5,60.5s-60.5-27.1-60.5-60.5C1785.5,929.9,1791.1,916,1800.4,905.3z"/>
		<circle fill="#342C12" stroke="#0C0C0C" stroke-width="5.4703" cx="1840.4" cy="945.7" r="38.2"/>
		<circle fill="#201F0A" cx="1843.7" cy="945.7" r="23"/>
		<circle fill="#B39E85" cx="1889.2" cy="954.8" r="18.5"/>
		<circle fill="#FFFFFF" cx="1807.6" cy="947.8" r="25.5"/>
	</g>
	<path fill="none" stroke="#000000" stroke-width="10.0405" d="M1474.3,947.4c0,51.5-41.8,93.3-93.3,93.3
		c-40.5,0-74.9-25.8-87.9-61.8c-3.5-9.8-5.4-20.4-5.4-31.5c0-9.7,4.2-27.7,4.2-27.7l182.4-6.8
		C1474.3,912.8,1474.3,927.9,1474.3,947.4z"/>
	<g>
		<path d="M1479.5,907.3c-3.9,2.2-7.8,4.2-11.7,6c-1.9,0.9-3.9,1.8-5.8,2.6c-1.9,0.8-3.9,1.7-5.8,2.4c-1,0.4-2,0.2-3,0.1
			c-1-0.1-2,0-3,0l-5.9,0.2l-11.9,0.5l-47.5,1.9l-47.5,1.9l-23.7,0.9l-6-2c-2-0.7-4-1.4-6-2.1c-4-1.5-8-3.1-12.1-4.9
			c3.9-2.2,7.8-4.1,11.7-5.8c1.9-0.9,3.9-1.7,5.8-2.6l5.8-2.5l23.7-0.9l47.5-1.9l47.5-1.9l11.9-0.5l5.9-0.2c1-0.1,2,0,3-0.2
			c1-0.2,2-0.4,3-0.2c2,0.6,4,1.3,6,2c2,0.7,4,1.4,6,2.2C1471.4,903.8,1475.4,905.4,1479.5,907.3z"/>
	</g>
	<g display="none">
		<path display="inline" d="M1292.7,971.6c-0.4-0.1-0.6-0.1-0.8-0.2c-0.2-0.1-0.4-0.1-0.6-0.2c-0.4-0.1-0.8-0.3-1.2-0.4
			c-0.8-0.3-1.5-0.6-2.3-1c-0.8-0.3-1.5-0.7-2.2-1.1l-2.1-1.2c-2.8-1.6-5.4-3.5-7.7-5.5c-1.2-1-2.3-2.2-3.3-3.3
			c-0.5-0.6-1-1.2-1.5-1.8c-0.2-0.3-0.5-0.6-0.7-0.9l-0.7-0.9c-1.8-2.4-3.1-5.2-4.2-7.8c2.1,2.1,4.1,4,6.5,5.4l0.9,0.6
			c0.3,0.2,0.6,0.3,0.9,0.5c0.6,0.3,1.2,0.7,1.8,1c1.3,0.5,2.5,1.1,3.7,1.5c2.5,0.9,5.1,1.5,7.6,1.8l1.9,0.2c0.6,0,1.3,0.1,1.9,0.1
			c0.6,0,1.3,0,1.9,0c0.3,0,0.6,0,0.9,0c0.2,0,0.3,0,0.4,0c0.1,0,0.3,0,0.3-0.1L1292.7,971.6z"/>
	</g>
	<path fill="none" stroke="#000000" stroke-width="10.0405" d="M1759.9,947.4c0,51.5,41.8,93.3,93.3,93.3
		c40.5,0,74.9-25.8,87.9-61.8c3.5-9.8,5.4-20.4,5.4-31.5c0-9.7-4.2-27.7-4.2-27.7l-182.4-6.8
		C1759.9,912.8,1759.9,927.9,1759.9,947.4z"/>
	<g>
		<path d="M1754.8,907.3c4-1.9,8.1-3.5,12.1-5c2-0.8,4-1.4,6-2.2c2-0.7,4-1.3,6-2c1-0.3,2,0,3,0.2c1,0.2,2,0.1,3,0.2l5.9,0.2
			l11.9,0.5l47.5,1.9l47.5,1.9l23.7,0.9l5.8,2.5c1.9,0.9,3.9,1.7,5.8,2.6c3.9,1.8,7.8,3.7,11.7,5.8c-4,1.8-8.1,3.4-12.1,4.9
			c-2,0.8-4,1.4-6,2.1l-6,2l-23.7-0.9l-47.5-1.9l-47.5-1.9l-11.9-0.5l-5.9-0.2c-1,0-2-0.1-3,0c-1,0.1-2,0.3-3-0.1
			c-2-0.8-3.9-1.6-5.8-2.4c-1.9-0.9-3.9-1.7-5.8-2.6C1762.6,911.5,1758.7,909.5,1754.8,907.3z"/>
	</g>
	<g display="none">
		<path display="inline" d="M1940.2,958.3c0,0,0.1,0,0.3,0.1c0.1,0,0.3,0,0.4,0c0.3,0,0.6,0,0.9,0c0.6,0,1.2,0,1.9,0
			c0.6,0,1.3-0.1,1.9-0.1l1.9-0.2c2.6-0.3,5.1-0.9,7.6-1.8c1.3-0.4,2.5-1,3.7-1.5c0.6-0.3,1.2-0.6,1.8-1c0.3-0.2,0.6-0.3,0.9-0.5
			l0.9-0.6c2.4-1.4,4.5-3.4,6.5-5.4c-1.1,2.7-2.4,5.4-4.2,7.8l-0.7,0.9c-0.2,0.3-0.5,0.6-0.7,0.9c-0.5,0.6-1,1.2-1.5,1.8
			c-1.1,1.1-2.1,2.3-3.3,3.3c-2.3,2.1-4.9,3.9-7.7,5.5l-2.1,1.2c-0.7,0.4-1.4,0.7-2.2,1.1c-0.7,0.3-1.5,0.7-2.3,1
			c-0.4,0.2-0.8,0.3-1.2,0.4c-0.2,0.1-0.4,0.1-0.6,0.2c-0.2,0.1-0.4,0.1-0.8,0.2L1940.2,958.3z"/>
	</g>
	<g id="图层_22">
		<path fill="#131312" d="M1379.4,796.4c15.6,1.1,46.1,3.5,78.5,12.4c7.6,2.1,17.4,5,19.3,10.2c2,5.3-5.4,10.1-6,10.5
			c-9.2,5.8-22.8,3.2-76.4-4.7c-34-5-49.5-7.1-61.8-16.5c-2.7-2.1-9.3-7.2-7.3-10.7C1327.4,794.4,1335.2,793.2,1379.4,796.4z"/>
		<path fill="#131312" d="M1854.8,796.4c-15.6,1.1-46.1,3.5-78.5,12.4c-7.6,2.1-17.4,5-19.3,10.2c-2,5.3,5.4,10.1,6,10.5
			c9.2,5.8,22.8,3.2,76.4-4.7c34-5,49.5-7.1,61.8-16.5c2.7-2.1,9.3-7.2,7.3-10.7C1906.9,794.4,1899.1,793.2,1854.8,796.4z"/>
	</g>
</g>
<g id="mouth_x5F_05">
	<path fill="none" stroke="#050101" stroke-width="2" d="M1579.2,1147.3c0,0-70.1-33.8-191,24.8"/>
	<path fill="none" stroke="#050101" stroke-width="2" d="M1569.7,1157.5c0,0-94.5-14.8-176.7,54.6"/>
	<path fill="none" stroke="#050101" stroke-width="2" d="M1563.7,1170.9c0,0-102.3-4-163.5,82"/>
	<path fill="none" stroke="#050101" stroke-width="2" d="M1646.1,1147.3c0,0,70.1-33.8,191,24.8"/>
	<path fill="none" stroke="#050101" stroke-width="2" d="M1655.6,1157.5c0,0,94.5-14.8,176.7,54.6"/>
	<path fill="none" stroke="#050101" stroke-width="2" d="M1661.6,1170.9c0,0,102.3-4,163.5,82"/>
	<g id="图层_33">
		<path fill="none" stroke="#070606" stroke-width="12" stroke-miterlimit="10" d="M1615.3,1216.3c0,0-17.9,31-75.4,38.3"/>
		<path fill="none" stroke="#070606" stroke-width="12" stroke-miterlimit="10" d="M1617.2,1216.3c0,0,17.9,31,75.4,38.3"/>
	</g>
	
		<line fill="none" stroke="#060404" stroke-width="18.6862" stroke-miterlimit="10" x1="1619.7" y1="1113.4" x2="1617.7" y2="1218.9"/>
	<g>
		<path fill="#22170E" d="M1605.6,964.8l-51.1,17.2l-34,30.8l-1.5,31.6l12.3,26.6l29.4,28.1c0,0,30.2,16.4,41.4,16.4
			s51.6-3.2,70-20.7s32.9-37.4,35.1-49c2.2-11.6,1.7-27.1,0-30.6c-1.7-3.5-28.2-29.5-35.1-33.2c-6.9-3.7-39.8-17.9-44.9-17.2
			C1622.2,965.5,1605.6,964.8,1605.6,964.8z"/>
		<path fill="#060404" d="M1552.6,1055.6c11.8-5,35.9,19,32.1,28.4c-3.2,7.9-28.9,12.7-37.5-1.2
			C1541.5,1073.5,1545.3,1058.7,1552.6,1055.6z"/>
		<path fill="#060404" d="M1674.2,1055.6c-11.8-5-35.9,19-32.1,28.4c3.2,7.9,28.9,12.7,37.5-1.2
			C1685.3,1073.5,1681.5,1058.7,1674.2,1055.6z"/>
		<ellipse fill="#FFFFFF" cx="1612.7" cy="985.2" rx="32" ry="20.4"/>
		<path fill="none" stroke="#000000" stroke-width="6.6937" d="M1613.4,964.8c0,0-54.2,0.2-89.8,43.2
			c-21.3,25.7,9.2,102.2,89.8,107.5"/>
		<path fill="none" stroke="#000000" stroke-width="6.6937" d="M1613.4,964.8c0,0,54.2,0.2,89.8,43.2
			c21.3,25.7-9.2,102.2-89.8,107.5"/>
	</g>
</g>
</svg>
