<?xml version="1.0" encoding="utf-8"?>
<!-- Generator: Adobe Illustrator 21.0.0, SVG Export Plug-In . SVG Version: 6.00 Build 0)  -->
<svg version="1.1" id="图层_1" xmlns="http://www.w3.org/2000/svg" xmlns:xlink="http://www.w3.org/1999/xlink" x="0px" y="0px"
	 viewBox="0 0 668 200" style="enable-background:new 0 0 668 200;" xml:space="preserve">
<style type="text/css">
	.st0{enable-background:new    ;}
	.st1{fill:#505050;}
	.st2{fill:#838383;}
	.st3{fill:url(#SVGID_1_);}
	.st4{opacity:0.39;}
	.st5{fill:#F9A1B7;}
	.st6{opacity:0.75;}
	.st7{fill:#C41143;}
	.st8{fill:#FFFFFF;}
</style>
<g>
	<g id="图层_3_1_">
		<g class="st0">
			<path class="st1" d="M293.8,23.3l-0.1,0.2l5.8,5.8c-1.7,3.4-3.3,7.2-5,11.4s-3.3,8.8-5,13.8c0.5-0.1,0.9-0.2,1.4-0.3
				c0.4-0.1,0.9-0.2,1.3-0.3V54v0.1l5.8,5.8c-1.1,10.9-2.3,20.2-3.6,27.9s-2.7,13.9-4.2,18.4c-1.4-0.1-2.8-0.3-4.3-0.4
				s-2.8-0.3-4.1-0.5c-1.3-0.1-2.6-0.3-3.7-0.4s-2.1-0.2-2.9-0.4c-4.3,2.1-8.3,3.6-12.1,4.5c-3.8,1-7.4,1.4-10.8,1.4
				c-3.2,0-6.9-1-11-2.9c-1.6-0.8-3.1-1.9-4.6-3.4l-4.5-4.5c-0.9-0.7-1.7-1.6-2.5-2.5s-1.6-2-2.4-3.1c-0.6-0.7-1.2-1.8-1.8-3.2
				c-0.6-1.4-1.2-3-1.7-4.9c-0.3-2.2-0.5-4-0.7-5.6s-0.2-2.8-0.2-3.8c0-8.4,1.9-16.3,5.6-23.8c0.8-1.5,1.7-2.9,2.7-4.4
				c1-1.4,2.2-2.8,3.4-4.2c3.1-2.8,6.2-5.3,9.4-7.4c1.2-0.8,2.4-1.5,3.5-2.2c1.2-0.7,2.3-1.3,3.5-1.8c0.9-0.4,1.8-0.8,2.7-1.2
				c0.9-0.4,1.7-0.7,2.6-1c1.2-0.4,2.5-0.9,4.1-1.4s3.3-1,5.3-1.5s4-1,6.3-1.5s4.6-1,7.2-1.4L293.8,23.3z M279.7,28.3
				c-10.3,1.9-17.6,3.7-22,5.6c-6.6,2-13.5,6.3-20.7,12.9c-2.1,2.3-3.9,4.9-5.4,7.6c-3.5,7-5.2,14.4-5.2,22.2c0,1.8,0.3,4.6,0.8,8.6
				c1,3.6,1.9,5.8,2.8,6.7c2.2,3.3,4.5,5.5,6.9,6.7c3.7,1.7,6.9,2.6,9.5,2.6c6.5,0.1,14-1.9,22.4-6c3.2,0.4,7.6,0.9,13.2,1.5
				c2.3-7.1,4.4-19.9,6.3-38.4c-3.1,0.6-9.3,2.2-18.5,4.7c-5,1-7.6,1.7-7.6,2.2v2.6c0,0.9-0.3,4.2-0.8,9.9c0,1.1-2.2,2.1-6.7,3
				c-4.5,0-6.7-1.9-6.7-5.8c0.2-3.2,1.2-6.5,3-9.9c3-4.3,6.8-7.3,11.2-8.8c6.1-2.4,11.2-3.7,15.3-3.7h1.3c3.6-11.7,6.6-20,9.1-25
				L279.7,28.3z M257,103.3c0.3-0.1,0.6-0.2,0.9-0.2c0.3-0.1,0.6-0.2,1-0.3c-0.3,0.1-0.6,0.2-1,0.2
				C257.6,103.1,257.3,103.2,257,103.3z M257.9,77.3L257.9,77.3L257.9,77.3L257.9,77.3L257.9,77.3z M261.3,102
				c0.1,0,0.2-0.1,0.4-0.1c0.1,0,0.3-0.1,0.4-0.1c-0.1,0-0.2,0.1-0.4,0.1S261.4,102,261.3,102z M262.2,101.7
				C262.1,101.7,262.1,101.7,262.2,101.7c-0.1,0-0.1,0-0.1,0S262.1,101.7,262.2,101.7C262.1,101.7,262.1,101.7,262.2,101.7z"/>
		</g>
		<g class="st0">
			<path class="st1" d="M329.6,44.2C329.6,44.3,329.6,44.3,329.6,44.2l3.1,3.2c0.2,1,0.3,1.9,0.5,3c0.1,1,0.3,2,0.4,3s0.2,2,0.3,3
				c0.1,1,0.2,2,0.3,3c0.1,0.3,0.1,0.7,0.1,1c0,0.4,0.1,0.7,0.1,1l0,0c0,0.1,0,0.1,0,0.2c0,0.1,0,0.1,0,0.2c0,0.3,0.1,0.6,0.1,0.9
				c0,0.3,0.1,0.7,0.1,1.1c0,0.3,0.1,0.5,0.1,0.8c0,0.2,0.1,0.5,0.1,0.7c0.1,0.5,0.1,0.9,0.2,1.2s0.1,0.6,0.1,0.7l0,0
				c0.1,0.4,0.2,1,0.3,1.7c0.1,0.7,0.2,1.6,0.3,2.7c0.1,0.9,0.2,1.7,0.3,2.6c0.1,0.9,0.2,1.7,0.3,2.6l0,0c0.1,0.6,0.1,1.1,0.2,1.7
				s0.1,1.1,0.2,1.7c0.1,0.5,0.1,1,0.1,1.4c0,0.5,0.1,0.9,0.1,1.3c0.1,0.7,0.2,1.4,0.2,2.1c0,0.6,0.1,1.3,0.1,2
				c-0.9,0.7-1.9,1.5-3.1,2.1c-1.2,0.7-2.5,1.4-3.9,2.1c-0.2,0.1-0.5,0.3-0.8,0.5s-0.7,0.4-1,0.7c-0.4,0.2-0.8,0.5-1.2,0.7
				c-0.4,0.3-0.8,0.5-1.1,0.7c-0.4,0.2-0.7,0.4-1,0.6s-0.5,0.4-0.7,0.5l-3.1-3.1h-0.1c-0.1-0.9-0.2-1.9-0.3-2.8
				c-0.1-0.9-0.2-1.8-0.3-2.7c-0.1-0.9-0.2-1.7-0.3-2.4c-0.1-0.7-0.2-1.4-0.2-2c-0.5,1.2-0.9,2.2-1.3,3s-0.8,1.4-1.2,1.9
				c-0.2,0.3-0.6,0.5-1,0.6s-1,0.2-1.8,0.2l-3.1-3.1h-0.1c-1-2.5-3.6-6.6-7.9-12.3c0.5-0.8,0.9-1.7,1.4-2.8s0.9-2.2,1.4-3.5
				c0.8-1.5,2-4.4,3.5-8.8l4-10.5c1.9-0.5,4-1,6.1-1.6c2.2-0.6,4.5-1.4,6.9-2.2L329.6,44.2z M327.8,44.5c-4.9,1.7-8.9,2.9-12.2,3.7
				l-3.6,9.5c-1.5,4.5-2.7,7.4-3.6,9c-1,2.6-1.8,4.4-2.3,5.4c3.8,5.2,6.1,8.7,6.9,10.6c0.1,0,0.1,0,0.1-0.1c0.8-0.9,1.7-3,2.9-6.3
				c2.6,0.7,4.5,1.2,5.5,1.5l0.3,1.9c0.1,0.4,0.4,3.4,1,8.9l3.6-2.3c2.8-1.3,4.8-2.5,6-3.5c0-0.6-0.1-1.6-0.3-3
				c0-0.8-0.1-1.7-0.2-2.7l-0.4-3.3l-0.6-5.2c-0.2-2.1-0.4-3.6-0.5-4.3c-0.1-0.5-0.2-1.6-0.5-3.3c-0.1-1-0.2-1.8-0.3-2.4l-0.3-2.1
				l-0.7-6.1C328.4,48.4,328.1,46.4,327.8,44.5z M320.1,61.9c0.5,2.5,1,5.5,1.3,9c-1.4-0.1-2.7-0.4-3.8-0.9
				C317.9,68.2,318.8,65.5,320.1,61.9z"/>
			<path class="st1" d="M386.6,35.1L386.6,35.1l3.1,3.2c0.1,3.7,0.2,7.2,0.3,10.3c0.1,3.2,0.3,6.1,0.5,8.8l0,0
				c0.4,3.4,0.8,6.4,1.3,9.2c0.4,2.8,0.8,5.3,1.3,7.7c0.3,2.4,0.7,4.6,1.1,6.5c0.4,2,0.8,3.8,1.2,5.3l-3.2,2.1
				c-0.4,0.2-0.8,0.5-1.4,0.8c-0.5,0.3-1.1,0.7-1.7,1.1s-1.2,0.8-1.9,1.2c-0.7,0.4-1.4,0.9-2,1.3c-0.7,0.4-1.4,0.9-2,1.3
				c-0.7,0.4-1.3,0.9-1.9,1.3l-3.1-3.1c0,0,0,0-0.1,0c-0.2-0.7-0.4-1.5-0.6-2.3c-0.2-0.9-0.4-1.8-0.5-2.7c-0.2-1-0.3-2-0.5-3
				s-0.3-2.1-0.3-3.2c-0.1-0.9-0.2-1.8-0.3-2.7c-0.1-0.9-0.2-1.9-0.4-2.9c-0.2,0.5-0.4,1.1-0.6,1.9s-0.4,1.6-0.7,2.7h-2
				c-1.2,0-3.9,0.3-8,0.8l-3.1-3.1l0,0l0,0c-0.4-0.7-0.9-1.8-1.6-3.3c-0.2,2.2-0.3,4.2-0.5,6.3s-0.3,3.9-0.4,5.7
				c-0.1,1.8-0.2,3.4-0.3,4.9c-0.1,1.5-0.1,2.8-0.1,3.8c-0.6-0.2-1.3-0.5-2.1-0.8c-0.8-0.3-1.7-0.6-2.6-1c-0.9-0.3-1.9-0.7-2.8-1
				s-1.9-0.7-2.9-1c-0.9-0.3-1.9-0.7-2.7-1s-1.7-0.6-2.4-0.8l-3-3.1c0,0,0,0-0.1,0s0,0-0.1,0c0.1-0.6,0.2-1.4,0.3-2.5
				s0.3-2.3,0.5-3.8s0.4-3,0.7-4.8s0.5-3.6,0.8-5.5c0.5-3.4,1-7.3,1.5-11.6s0.9-9.1,1.2-14.4c0.4-0.2,0.9-0.4,1.5-0.7
				s1.3-0.6,2.1-0.9s1.6-0.7,2.5-1.1c0.9-0.4,1.8-0.8,2.8-1.2s2-1,3.1-1.5c1-0.6,2.1-1.3,3.1-2c0,0.1,0,0.1,0.1,0.2l3,3
				c0.3,0.8,0.6,1.6,0.8,2.3c0.3,0.7,0.5,1.4,0.7,2s0.4,1.2,0.6,1.8s0.4,1.1,0.6,1.6l0,0c0.1-0.5,0.3-1.1,0.5-1.7
				c0.2-0.6,0.3-1.2,0.5-1.9c0.2-0.6,0.3-1.2,0.5-1.9c0.2-0.6,0.3-1.2,0.5-1.7c1.2-0.4,2.5-0.9,3.8-1.4s2.7-1.1,4.1-1.6
				c1.4-0.6,2.9-1.2,4.3-1.8c1.5-0.6,2.9-1.2,4.4-1.9L386.6,35.1z M384.7,35.1c-5.8,2.5-11,4.6-15.8,6.4l-1.7,6.2
				c-0.6,2.1-1.3,4.6-2.1,7.6c-2.2-4.6-4.4-10-6.6-16c-0.9,0.6-2.3,1.4-4.5,2.3c-3.7,1.6-6.4,2.8-7.9,3.5c-0.7,9.8-1.6,18.1-2.6,25
				c-1.1,7.6-1.9,12.6-2.2,15c4.3,1.5,8.2,2.9,11.7,4.3c0.1-5.5,0.8-13.9,1.8-25.2c0.1,0,0.1,0,0.1-0.1h-0.1
				c0.3-1.7,0.5-2.8,0.5-3.5h0.1c0.4,1.1,1.7,4.2,3.9,9.2c1.4,3.6,2.2,5.6,2.4,6c3.3-0.5,5.7-0.7,7-0.7h0.6c0.5-2.3,1-3.8,1.5-4.6
				c0.9-3,2.2-6.5,3.9-10.6h0.1c0,0.1,0,0.1-0.1,0.1c0.2,0.6,0.4,2.5,0.7,5.5c1.1,5.8,1.9,11,2.3,15.4s0.8,7.3,1.2,8.5
				c3.7-2.5,6.7-4.4,9-5.8l2.1-1.4c-0.6-2.4-1.3-5.9-1.9-10.8c-0.9-4.6-1.7-10.3-2.5-17.1C385.1,49,384.9,42.6,384.7,35.1z"/>
			<path class="st1" d="M428.2,35.7L428.2,35.7C428.1,35.7,428.1,35.7,428.2,35.7l3.1,3.1c0,0.8-0.1,1.5-0.1,2.2s0,1.4,0,2.1
				c0,0.2,0,0.5,0,0.7s0,0.5,0,0.7v2c0,0.3,0,0.6,0,0.9c0,0.3,0,0.6,0,1l0.1,2c-1,0.9-2.6,1.6-4.8,1.9c-0.4,0.1-0.9,0.3-1.6,0.4
				c-0.7,0.2-1.6,0.4-2.6,0.6L423,54l-0.2,4.6v0.9c0,0.7,0,1.3,0,2c0.7-0.2,1.3-0.4,2-0.6c0.7-0.2,1.4-0.4,2.2-0.6
				c0.5-0.1,1.1-0.2,1.8-0.3c0.7-0.1,1.6-0.1,2.5-0.1V60l3.1,3.1c0,0.8,0,1.7-0.1,2.6c0,0.9,0,1.8-0.1,2.6c0,0.8,0,1.6,0,2.4
				c0,0.7,0,1.3,0,1.7v5.9c-1.3,0-3.5,0.5-6.5,1.4s-6.9,2.4-11.7,4.2c-1.5,0.5-3.2,1.1-4.9,1.7c-1.8,0.7-3.6,1.4-5.6,2.3l-3.1-3.1
				c0,0,0,0-0.1,0c-0.4-1-0.8-2.1-1.1-3.3c-0.3-1.2-0.6-2.5-0.8-3.9c-0.3-2.5-0.8-5.3-1.4-8.6c-0.6-3.3-1.3-7-2.2-11.2
				c0-0.2-0.1-0.5-0.2-0.9s-0.1-0.9-0.3-1.5c-0.1-0.3-0.1-0.6-0.2-0.9c-0.1-0.3-0.1-0.7-0.2-1c-0.6-2.5-1-4.5-1.3-6.2s-0.4-3-0.4-4
				c0.9-0.4,2.3-0.8,4-1.3c1.8-0.5,4-1.1,6.7-1.7c6.2-1.6,13-3.8,20.5-6.5L428.2,35.7z M426.3,35.6c-7.7,2.8-14.6,4.9-20.7,6.6
				c-5.3,1.2-8.4,2-9.3,2.4c0,0.9,0.6,3.7,1.7,8.5c0.4,2.3,0.6,3.8,0.8,4.4c1.7,8.3,2.9,15,3.6,19.9c0.4,2.6,0.8,4.3,1.1,4.9
				c2.9-1.2,5.8-2.3,9-3.3c9.8-3.8,15.4-5.8,17-5.8v-4c0-1.7,0-4.2,0.1-7.5c-0.4,0-1.1,0.1-1.8,0.3c-4.5,1.3-7.8,2.4-9.9,3.2
				s-4.3,1.6-6.6,2.3H411c-0.1-1-0.2-1.8-0.2-2.4v-0.3l7.5-2.6c-0.3-1.7-0.4-3.9-0.3-6.7l0.1-2.8c-0.6,0-3.4,0.8-8.4,2.4
				c-0.2-0.8-0.3-2-0.3-3.3c1.4-0.7,2.9-1.3,4.6-1.8c2.2-0.6,3.7-1.1,4.6-1.5c2.4-0.6,3.9-0.9,4.5-1.2c1.9-0.3,3-0.6,3.4-0.9
				l-0.1-1.1c-0.1-0.9-0.1-1.7-0.1-2.5v-1.5C426.1,39.6,426.2,37.7,426.3,35.6z"/>
			<path class="st1" d="M451.1,64.8c2.4,0,4.2,0.8,5.6,2.5l2.6,2.6c0.3,0.3,0.6,0.7,0.9,1c0.3,0.4,0.5,0.8,0.7,1.3l0.2,1v1.1
				c-0.1,1.4-0.8,3-2,4.7c-0.7,0.8-1.4,1.5-2.1,2.1s-1.4,1.1-2,1.4c-0.9,0.6-2,1-3.2,1.4c-1.2,0.3-2.5,0.6-3.9,0.7
				c-2.9,0-5.1-0.7-6.4-2L439,80c-1.3-1-2-2.5-2.2-4.5c0.2-2.5,1.4-4.7,3.6-6.5c1-0.8,2-1.5,3.2-2.1c1.1-0.6,2.4-1.1,3.8-1.6
				c0.8-0.2,1.6-0.3,2.2-0.4C450.1,64.8,450.7,64.8,451.1,64.8z M451.1,66.7c-0.7,0-1.8,0.2-3.3,0.5c-2.4,0.8-4.4,1.9-6.2,3.3
				c-1.8,1.4-2.7,3.1-2.9,5.1c0.2,2.8,2.2,4.1,6.1,4.1c2.5-0.2,4.6-0.8,6.3-1.8c1.1-0.6,2.3-1.6,3.5-3c1-1.4,1.5-2.7,1.6-3.7v-0.9
				l-0.1-0.6C455.1,67.7,453.5,66.7,451.1,66.7z"/>
		</g>
		<g class="st0">
			<path class="st1" d="M521.4,15.9l4.6,4.6v3.6c-0.1,2.7-0.3,5.2-0.4,7.6s-0.2,4.5-0.4,6.4s-0.2,3.5-0.3,4.8s-0.2,2.2-0.2,2.8
				c-2.8,0.4-5.4,0.8-7.9,1.2s-4.8,0.8-6.9,1.2l1.8,1.8c0,0.2,0,0.6,0,1.2s0,1.3,0,2.1s0,1.7,0,2.8s0,2.1,0,3.3s0,2.4,0,3.6
				c0,1.2,0,2.5,0,3.7c0,0.2,0,0.5,0,0.9s0,0.9,0,1.5s0,1,0,1.5s0,0.8,0,1c-2.2,0.1-4.2,0.2-5.9,0.3s-3.3,0.3-4.8,0.5
				c0.1,1.1,0.3,2.5,0.6,4.1s0.6,3.7,0.9,6.1c0.5,3.8,1,7,1.5,9.8s1.1,5,1.8,6.8c-5.1,0.5-9.7,1.1-13.7,1.8s-7.5,1.4-10.5,2.3
				l-4.6-4.6l0,0l0,0c-0.5-2.9-0.9-5.4-1.3-7.7s-0.6-4.2-0.7-5.6c0-0.6-0.1-1.1-0.1-1.7s-0.1-1.1-0.1-1.6c-0.1-1.5-0.3-3.1-0.4-4.5
				s-0.3-2.8-0.4-4.1s-0.2-2.4-0.3-3.3s-0.2-1.7-0.2-2.3c-0.1-1.4-0.6-4.9-1.4-10.5s-1.8-13.3-3.2-23.2c-0.2-1.6-0.3-3.1-0.4-4.5
				s-0.1-2.7-0.1-3.7c2.3-0.4,4.9-0.8,7.6-1.3s5.5-1,8.5-1.5s6-1.1,9.1-1.7s6.3-1.2,9.4-1.8s6.3-1.2,9.4-1.8
				c3.1-0.6,6.1-1.2,9.1-1.8L521.4,15.9L521.4,15.9z M518.6,19.2c-17.6,3.6-33.4,6.5-47.5,8.8c0,0.6,0.2,2.4,0.5,5.5
				c2.8,19.7,4.3,30.9,4.6,33.7s0.8,8.6,1.6,17.6c0.3,3,0.7,6.4,1.4,10c4.1-1.2,10.2-2.1,18.3-2.9c-0.6-1.5-1.3-6.1-2.2-13.8
				c-1.2-7.3-1.7-11.6-1.7-12.9c3.9-0.7,7.5-1.1,10.9-1.2c-0.1-8.8-0.2-13.9-0.2-15.4c-2.9,0.7-6.9,1.5-12.1,2.4
				c-0.1-2.6-0.2-5.1-0.4-7.6c6.6-1.8,15.2-3.4,25.7-4.8c0.2-2.1,0.6-8.5,1.1-19.1L518.6,19.2L518.6,19.2z"/>
		</g>
		<g class="st0">
			<path class="st1" d="M547.5,39.5l2.9,2.9l1.9,2.6c-0.2,0.4-0.3,0.7-0.5,1.1c-0.2,0.4-0.3,0.8-0.5,1.3c1.8-0.9,4.1-1.8,6.9-2.7
				c0.5-0.1,1.1-0.3,1.8-0.3c0.7-0.1,1.4-0.1,2.2-0.1v0.1l3.1,3.1c1.5,5.1,2.2,9.8,2.2,14.3c0,0.6,0,1.3,0,2c0,0.7-0.1,1.3-0.1,2
				c-0.1,2-0.4,4.1-1.2,6.3s-1.8,4.6-3.2,7.1c-0.7,1.1-1.6,2.3-2.7,3.5c-1.8,1.9-3.6,3.3-5.4,4.2l0,0c-2.4,1.2-4.7,1.8-7,1.8
				c-0.3,0-0.6,0-0.9,0s-0.6,0-0.9-0.1c-0.8-0.1-1.7-0.4-2.5-0.7c-0.8-0.3-1.6-0.8-2.4-1.3c-0.6-0.4-1.1-0.8-1.6-1.3l-2.3-2.3
				c-0.6-0.5-1.2-1.1-1.8-1.8c-0.6-0.7-1.1-1.6-1.7-2.5l0,0c-1.3-2.1-2.3-4.9-3.1-8.5c-0.3-1.1-0.5-2.3-0.7-3.6
				c-0.2-1.3-0.3-2.6-0.3-4c0-0.2,0-0.4,0-0.6c0-0.2,0-0.4,0-0.6c0-0.8,0.1-1.9,0.2-3.2s0.3-2.9,0.5-4.7c0.4-2.3,0.9-4.4,1.4-6.3
				c0.6-1.9,1.2-3.7,2-5.3c1.9-0.5,4-1,6.2-1.4s4.6-0.8,7.1-1.2L547.5,39.5z M547.6,41.1c-4.9,0.7-9,1.5-12.3,2.3
				c-1.2,2.5-2.1,5.9-2.9,10.2c-0.5,4.5-0.7,7.4-0.6,8.7c0.1,2.7,0.4,5.1,0.9,7.3c0.8,3.4,1.7,6,2.9,7.9c1.2,2,2.4,3.5,3.7,4.3
				c1.3,0.9,2.7,1.5,4,1.7c2.6,0.3,5.2-0.2,7.8-1.5c1.6-0.7,3.2-2,4.8-3.8c1-1.1,1.8-2.1,2.4-3.1c2.7-4.8,4.1-9,4.1-12.6
				c0.4-5.7-0.1-11.2-1.6-16.3c-0.5,0-1.2,0.1-2.1,0.3c-4.6,1.4-7.4,2.6-8.3,3.5c0.4,5.5,0.1,9.5-0.7,12.1c-0.6,1.7-1.7,2.5-3.1,2.5
				c-0.7,0-1.3-0.6-1.8-1.8c-0.5-1.4-0.8-3.5-0.8-6.5c0.1-1.3,0.2-2.4,0.3-3.2C545.2,48,546.2,44.1,547.6,41.1z"/>
			<path class="st1" d="M610.9,37.8L610.9,37.8L610.9,37.8l3.1,3.1c-0.2,1.2-0.4,2.4-0.6,3.7c-0.2,1.3-0.4,2.7-0.6,4.3l0,0
				c-0.3,3.2-0.7,6.5-1.1,9.9c-0.4,3.4-0.7,6.7-1.1,10.1s-0.7,6.7-1.1,10.1c-0.4,3.4-0.7,6.6-1,9.9c-3.2,1-6.7,2.8-10.4,5.4
				l-3.1-3.1c0,0,0,0-0.1,0c-1-2.7-2-5.3-3-8c-1-2.6-2.1-5.3-3.3-7.9c0,0.8-0.1,1.7-0.1,2.5s0,1.6-0.1,2.3c-0.5,0.2-1,0.5-1.8,0.8
				c-0.7,0.3-1.5,0.6-2.4,1s-1.8,0.7-2.8,1.1s-2,0.8-2.9,1.2s-1.9,0.8-2.9,1.1c-0.9,0.4-1.8,0.7-2.6,1l-3.1-3.1c0,0,0,0-0.1,0
				c0,0,0,0-0.1,0c0.1-1,0.2-2,0.4-3.1c0.1-1.1,0.2-2.2,0.4-3.3c0.1-1.1,0.2-2.2,0.3-3.4c0.1-1.1,0.2-2.2,0.3-3.2s0.2-2,0.2-3
				c0.1-0.9,0.1-1.8,0.2-2.5c0.1-1.1,0.1-2.4,0.2-4c0.1-1.6,0.2-3.3,0.4-5.2c0.1-1.9,0.3-3.9,0.4-6.1c0.2-2.2,0.3-4.4,0.5-6.6
				l13.1-6.1c0,0.1,0,0.1,0.1,0.2l3,3c0.6,1.5,1.4,3.1,2.2,4.8s1.6,3.5,2.5,5.2c0.1-1.3,0.3-2.7,0.4-4.1c0.2-1.4,0.3-2.8,0.4-4.2
				c2.6-1,5-2.1,7.2-3s4.2-2,6-2.9L610.9,37.8z M609.1,37.4c-3.6,1.9-7.7,3.8-12.4,5.6c-0.6,6-1.2,11-1.8,15.1
				c-0.8-1.4-1.7-2.9-2.7-4.6c-2.5-4.9-4.8-9.7-6.9-14.4L575,44c-0.8,9.6-1.3,16.5-1.5,20.8c-0.3,4.5-0.7,9.7-1.4,15.6
				c4.8-1.8,8.6-3.4,11.4-4.6l0.3-6.9l0.4-7.4c5,10.1,8.8,19,11.6,26.8c2.6-1.8,5.3-3.1,7.8-3.9l4.1-38.8
				C608.2,42.4,608.6,39.7,609.1,37.4z"/>
			<path class="st1" d="M640.9,38.5c4.4,0,8.1,1.1,11.1,3.4c0.5,0.4,0.9,0.7,1.3,1.1s0.8,0.8,1.2,1.2l2.3,2.3
				c0.7,0.7,1.4,1.5,1.9,2.3s0.9,1.6,1.2,2.4c0.1,0.4,0.3,0.8,0.4,1.3c0.1,0.4,0.2,0.8,0.3,1.2s0.2,0.7,0.2,1
				c0.1,0.3,0.1,0.5,0.1,0.7c0,2.9-0.6,5.8-1.7,8.8l0,0c-0.1,0.4-0.3,0.9-0.6,1.6s-0.7,1.5-1.1,2.4c-4.3,6.7-9.5,11.8-15.6,15.4
				l-3,1.8c-2.5,1.1-4.9,2-7.4,2.7s-4.9,1.2-7.5,1.5l-3.1-3.1l0,0l0,0l-0.6-9.1c-0.1-1-0.2-2-0.3-3.1s-0.2-2.2-0.3-3.3
				s-0.2-2.2-0.3-3.3c-0.1-1.1-0.2-2.1-0.3-3.1c-0.2-1.4-0.4-2.8-0.6-4.3s-0.4-3-0.7-4.5c-0.2-1.5-0.5-3-0.7-4.5s-0.4-2.9-0.6-4.3
				c1.7-1.1,3.4-2,5.2-2.9s3.5-1.6,5.1-2.3c1.9-0.9,4-1.7,6.4-2.2c2.4-0.6,5-1,7.8-1.2L640.9,38.5L640.9,38.5z M640.9,40.4
				c-5.5,0.4-10,1.6-13.6,3.3c-3.3,1.2-6.3,2.7-9,4.4l2.4,16.3c0.5,4.2,0.9,8.5,1.3,12.8l0.5,7.1c3.5-0.4,7.6-1.7,12.3-3.8l3-1.7
				c5.9-3.4,10.8-8.3,15-14.7c1.1-2.2,1.6-3.5,1.6-3.7c1.1-2.8,1.6-5.5,1.6-8.2c0-0.6-0.3-1.8-0.9-3.6c-0.7-1.9-2-3.7-4.1-5.3
				C648.2,41.4,644.9,40.4,640.9,40.4z M631.6,70.8c-1.3-4.3-2.2-9.1-2.6-14.5c2.9-2.8,6.8-4.1,11.8-3.9c2.5,0.6,4.1,2.2,4.7,4.7
				C645.8,60.8,641.1,65.3,631.6,70.8z M634,60.2c0.1,1.1,0.2,2.2,0.4,3.3c0.1,1.1,0.3,2.1,0.5,3.1c5.8-3.8,8.7-6.9,8.7-9.2H643
				C639.3,57.3,636.3,58.3,634,60.2z"/>
		</g>
		<g>
			<g>
				<path class="st2" d="M250.2,178.3h-6l-2.4-6.2H231l-2.2,6.2h-5.8l10.6-27.2h5.8L250.2,178.3z M240.1,167.5l-3.7-10.1l-3.7,10.1
					H240.1z"/>
				<path class="st2" d="M270.5,168.3l5.3,1.7c-0.8,3-2.2,5.2-4.1,6.6c-1.9,1.4-4.3,2.2-7.2,2.2c-3.6,0-6.6-1.2-8.9-3.7
					c-2.3-2.5-3.5-5.8-3.5-10.1c0-4.5,1.2-8,3.5-10.5c2.3-2.5,5.4-3.8,9.2-3.8c3.3,0,6,1,8.1,3c1.2,1.2,2.2,2.8,2.8,5l-5.4,1.3
					c-0.3-1.4-1-2.5-2-3.3s-2.3-1.2-3.7-1.2c-2,0-3.7,0.7-4.9,2.2c-1.3,1.4-1.9,3.8-1.9,7c0,3.4,0.6,5.9,1.9,7.3
					c1.2,1.5,2.8,2.2,4.8,2.2c1.5,0,2.7-0.5,3.8-1.4C269.3,171.8,270.1,170.3,270.5,168.3z"/>
				<path class="st2" d="M293.2,168.3v-4.6H305v10.8c-1.2,1.1-2.8,2.1-5,2.9c-2.2,0.8-4.4,1.3-6.6,1.3c-2.8,0-5.3-0.6-7.4-1.8
					c-2.1-1.2-3.7-2.9-4.8-5.1c-1.1-2.2-1.6-4.6-1.6-7.2c0-2.8,0.6-5.3,1.8-7.6c1.2-2.2,2.9-3.9,5.2-5.1c1.7-0.9,3.9-1.4,6.5-1.4
					c3.4,0,6,0.7,7.9,2.1c1.9,1.4,3.1,3.4,3.7,5.9l-5.5,1c-0.4-1.3-1.1-2.4-2.2-3.2c-1.1-0.8-2.4-1.2-4-1.2c-2.4,0-4.3,0.8-5.7,2.3
					c-1.4,1.5-2.1,3.8-2.1,6.8c0,3.2,0.7,5.7,2.2,7.3c1.4,1.6,3.3,2.4,5.6,2.4c1.2,0,2.3-0.2,3.5-0.7c1.2-0.5,2.1-1,3-1.6v-3.5
					H293.2z"/>
				<path class="st2" d="M310.2,178.3v-27.2h5.3l11.1,18.2v-18.2h5.1v27.2h-5.5l-11-17.7v17.7H310.2z"/>
				<path class="st2" d="M360.8,168.3v-4.6h11.8v10.8c-1.2,1.1-2.8,2.1-5,2.9c-2.2,0.8-4.4,1.3-6.6,1.3c-2.8,0-5.3-0.6-7.4-1.8
					c-2.1-1.2-3.7-2.9-4.8-5.1c-1.1-2.2-1.6-4.6-1.6-7.2c0-2.8,0.6-5.3,1.8-7.6c1.2-2.2,2.9-3.9,5.2-5.1c1.7-0.9,3.9-1.4,6.5-1.4
					c3.4,0,6,0.7,7.9,2.1c1.9,1.4,3.1,3.4,3.7,5.9l-5.5,1c-0.4-1.3-1.1-2.4-2.2-3.2c-1.1-0.8-2.4-1.2-4-1.2c-2.4,0-4.3,0.8-5.7,2.3
					c-1.4,1.5-2.1,3.8-2.1,6.8c0,3.2,0.7,5.7,2.2,7.3c1.4,1.6,3.3,2.4,5.6,2.4c1.2,0,2.3-0.2,3.5-0.7c1.2-0.5,2.1-1,3-1.6v-3.5
					H360.8z"/>
				<path class="st2" d="M381.5,164.6l-4.7-0.9c0.5-1.9,1.4-3.3,2.7-4.2c1.3-0.9,3.2-1.4,5.8-1.4c2.3,0,4.1,0.3,5.2,0.8
					c1.1,0.5,1.9,1.2,2.4,2.1c0.5,0.8,0.7,2.4,0.7,4.7l-0.1,6.1c0,1.7,0.1,3,0.3,3.8c0.2,0.8,0.5,1.7,0.9,2.6h-5.2
					c-0.1-0.3-0.3-0.9-0.5-1.5c-0.1-0.3-0.1-0.5-0.2-0.6c-0.9,0.9-1.8,1.5-2.9,1.9c-1,0.4-2.1,0.6-3.2,0.6c-2,0-3.6-0.5-4.8-1.7
					c-1.2-1.1-1.8-2.5-1.8-4.2c0-1.1,0.3-2.1,0.8-3c0.5-0.9,1.3-1.5,2.2-2c1-0.5,2.3-0.9,4.1-1.2c2.4-0.5,4.1-0.9,5.1-1.3v-0.5
					c0-1-0.2-1.7-0.7-2.1c-0.5-0.4-1.4-0.6-2.8-0.6c-0.9,0-1.7,0.2-2.2,0.5C382.3,163.1,381.8,163.7,381.5,164.6z M388.5,168.8
					c-0.7,0.2-1.7,0.5-3.2,0.8c-1.4,0.3-2.4,0.6-2.8,0.9c-0.7,0.5-1,1.1-1,1.8c0,0.7,0.3,1.4,0.8,1.9c0.5,0.5,1.2,0.8,2.1,0.8
					c0.9,0,1.8-0.3,2.7-0.9c0.6-0.5,1-1,1.2-1.7c0.1-0.4,0.2-1.3,0.2-2.5V168.8z"/>
				<path class="st2" d="M398.4,158.6h4.8v2.7c1.7-2.1,3.8-3.1,6.1-3.1c1.3,0,2.4,0.3,3.3,0.8s1.7,1.3,2.3,2.4
					c0.9-1.1,1.8-1.8,2.8-2.4s2.1-0.8,3.2-0.8c1.4,0,2.7,0.3,3.7,0.9c1,0.6,1.8,1.5,2.2,2.6c0.4,0.8,0.5,2.2,0.5,4.1v12.6h-5.2V167
					c0-2-0.2-3.2-0.5-3.8c-0.5-0.7-1.2-1.1-2.2-1.1c-0.7,0-1.4,0.2-2.1,0.7c-0.6,0.4-1.1,1.1-1.4,2c-0.3,0.9-0.4,2.2-0.4,4.1v9.5
					h-5.2v-10.8c0-1.9-0.1-3.2-0.3-3.7s-0.5-1-0.9-1.2c-0.4-0.3-0.9-0.4-1.6-0.4c-0.8,0-1.5,0.2-2.2,0.6c-0.6,0.4-1.1,1.1-1.4,1.9
					c-0.3,0.8-0.4,2.2-0.4,4.1v9.6h-5.2V158.6z"/>
				<path class="st2" d="M432.5,155.9v-4.8h5.2v4.8H432.5z M432.5,178.3v-19.7h5.2v19.7H432.5z"/>
				<path class="st2" d="M461,178.3h-5.2v-10.1c0-2.1-0.1-3.5-0.3-4.1c-0.2-0.6-0.6-1.1-1.1-1.5c-0.5-0.3-1.1-0.5-1.8-0.5
					c-0.9,0-1.7,0.2-2.4,0.7c-0.7,0.5-1.2,1.2-1.5,2c-0.3,0.8-0.4,2.3-0.4,4.5v8.9h-5.2v-19.7h4.8v2.9c1.7-2.2,3.9-3.3,6.5-3.3
					c1.2,0,2.2,0.2,3.2,0.6c1,0.4,1.7,0.9,2.2,1.6c0.5,0.6,0.8,1.4,1,2.2c0.2,0.8,0.3,2,0.3,3.5V178.3z"/>
				<path class="st2" d="M465.8,179.6l6,0.7c0.1,0.7,0.3,1.2,0.7,1.4c0.5,0.4,1.3,0.6,2.3,0.6c1.4,0,2.4-0.2,3.1-0.6
					c0.5-0.3,0.8-0.7,1-1.3c0.2-0.4,0.2-1.2,0.2-2.4v-2.9c-1.6,2.1-3.5,3.2-5.9,3.2c-2.6,0-4.7-1.1-6.3-3.4c-1.2-1.8-1.8-4-1.8-6.6
					c0-3.3,0.8-5.8,2.4-7.6c1.6-1.7,3.6-2.6,5.9-2.6c2.4,0,4.4,1.1,6,3.2v-2.8h4.9v17.7c0,2.3-0.2,4.1-0.6,5.2
					c-0.4,1.2-0.9,2.1-1.6,2.7c-0.7,0.7-1.6,1.2-2.8,1.5c-1.2,0.4-2.6,0.6-4.4,0.6c-3.3,0-5.7-0.6-7.1-1.7c-1.4-1.1-2.1-2.6-2.1-4.4
					C465.8,180.1,465.8,179.8,465.8,179.6z M470.5,168c0,2.1,0.4,3.6,1.2,4.6c0.8,1,1.8,1.5,3,1.5c1.3,0,2.3-0.5,3.2-1.5
					c0.9-1,1.3-2.5,1.3-4.4c0-2-0.4-3.6-1.3-4.5c-0.8-1-1.9-1.5-3.2-1.5c-1.3,0-2.3,0.5-3.1,1.5C470.9,164.6,470.5,166,470.5,168z"
					/>
				<path class="st2" d="M500.1,178.3v-27.2h8.8c3.3,0,5.5,0.1,6.5,0.4c1.6,0.4,2.9,1.3,3.9,2.7c1.1,1.4,1.6,3.1,1.6,5.3
					c0,1.7-0.3,3.1-0.9,4.2c-0.6,1.1-1.4,2-2.3,2.7c-0.9,0.6-1.9,1.1-2.8,1.3c-1.3,0.3-3.2,0.4-5.7,0.4h-3.6v10.3H500.1z
					 M505.6,155.7v7.7h3c2.2,0,3.6-0.1,4.3-0.4c0.7-0.3,1.3-0.7,1.7-1.3c0.4-0.6,0.6-1.3,0.6-2.1c0-1-0.3-1.8-0.9-2.4
					c-0.6-0.6-1.3-1-2.2-1.2c-0.7-0.1-2-0.2-4-0.2H505.6z"/>
				<path class="st2" d="M525.4,178.3v-27.2h5.2v27.2H525.4z"/>
				<path class="st2" d="M539.9,164.6l-4.7-0.9c0.5-1.9,1.4-3.3,2.7-4.2c1.3-0.9,3.2-1.4,5.8-1.4c2.3,0,4.1,0.3,5.2,0.8
					c1.1,0.5,1.9,1.2,2.4,2.1c0.5,0.8,0.7,2.4,0.7,4.7l-0.1,6.1c0,1.7,0.1,3,0.3,3.8c0.2,0.8,0.5,1.7,0.9,2.6H548
					c-0.1-0.3-0.3-0.9-0.5-1.5c-0.1-0.3-0.1-0.5-0.2-0.6c-0.9,0.9-1.8,1.5-2.9,1.9c-1,0.4-2.1,0.6-3.2,0.6c-2,0-3.6-0.5-4.8-1.7
					c-1.2-1.1-1.8-2.5-1.8-4.2c0-1.1,0.3-2.1,0.8-3c0.5-0.9,1.3-1.5,2.2-2c1-0.5,2.3-0.9,4.1-1.2c2.4-0.5,4.1-0.9,5.1-1.3v-0.5
					c0-1-0.2-1.7-0.7-2.1c-0.5-0.4-1.4-0.6-2.8-0.6c-0.9,0-1.7,0.2-2.2,0.5C540.6,163.1,540.2,163.7,539.9,164.6z M546.9,168.8
					c-0.7,0.2-1.7,0.5-3.2,0.8c-1.4,0.3-2.4,0.6-2.8,0.9c-0.7,0.5-1,1.1-1,1.8c0,0.7,0.3,1.4,0.8,1.9c0.5,0.5,1.2,0.8,2.1,0.8
					c0.9,0,1.8-0.3,2.7-0.9c0.6-0.5,1-1,1.2-1.7c0.1-0.4,0.2-1.3,0.2-2.5V168.8z"/>
				<path class="st2" d="M566.2,158.6v4.2h-3.6v7.9c0,1.6,0,2.5,0.1,2.8c0.1,0.3,0.2,0.5,0.5,0.7c0.2,0.2,0.5,0.3,0.9,0.3
					c0.5,0,1.2-0.2,2.1-0.5l0.4,4c-1.2,0.5-2.6,0.8-4.1,0.8c-0.9,0-1.8-0.2-2.5-0.5c-0.8-0.3-1.3-0.7-1.7-1.2
					c-0.4-0.5-0.6-1.2-0.7-2c-0.1-0.6-0.2-1.8-0.2-3.7v-8.6H555v-4.2h2.4v-3.9l5.2-3v7H566.2z"/>
				<path class="st2" d="M567.5,158.6h2.9v-1.5c0-1.7,0.2-2.9,0.5-3.7c0.4-0.8,1-1.5,1.9-2c0.9-0.5,2.1-0.8,3.6-0.8
					c1.5,0,2.9,0.2,4.4,0.7l-0.7,3.6c-0.8-0.2-1.6-0.3-2.4-0.3c-0.8,0-1.3,0.2-1.6,0.5c-0.3,0.4-0.5,1-0.5,2v1.4h3.9v4.1h-3.9v15.6
					h-5.2v-15.6h-2.9V158.6z"/>
				<path class="st2" d="M581.2,168.2c0-1.7,0.4-3.4,1.3-5c0.9-1.6,2.1-2.9,3.6-3.7c1.6-0.9,3.3-1.3,5.2-1.3c3,0,5.4,1,7.3,2.9
					c1.9,1.9,2.9,4.4,2.9,7.3c0,3-1,5.5-2.9,7.4c-1.9,2-4.3,2.9-7.3,2.9c-1.8,0-3.5-0.4-5.2-1.2c-1.6-0.8-2.9-2-3.7-3.6
					C581.7,172.4,581.2,170.4,581.2,168.2z M586.6,168.4c0,2,0.5,3.5,1.4,4.5s2.1,1.6,3.4,1.6c1.4,0,2.5-0.5,3.4-1.6
					c0.9-1,1.4-2.5,1.4-4.5c0-1.9-0.5-3.4-1.4-4.5c-0.9-1-2.1-1.6-3.4-1.6c-1.4,0-2.5,0.5-3.4,1.6S586.6,166.5,586.6,168.4z"/>
				<path class="st2" d="M610.6,178.3h-5.2v-19.7h4.8v2.8c0.8-1.3,1.6-2.2,2.2-2.6c0.7-0.4,1.4-0.6,2.3-0.6c1.2,0,2.3,0.3,3.4,1
					l-1.6,4.5c-0.9-0.6-1.7-0.9-2.4-0.9c-0.7,0-1.3,0.2-1.9,0.6c-0.5,0.4-0.9,1.1-1.2,2.2c-0.3,1.1-0.4,3.3-0.4,6.6V178.3z"/>
				<path class="st2" d="M620,158.6h4.8v2.7c1.7-2.1,3.8-3.1,6.1-3.1c1.3,0,2.4,0.3,3.3,0.8s1.7,1.3,2.3,2.4
					c0.9-1.1,1.8-1.8,2.8-2.4s2.1-0.8,3.2-0.8c1.4,0,2.7,0.3,3.7,0.9c1,0.6,1.8,1.5,2.2,2.6c0.4,0.8,0.5,2.2,0.5,4.1v12.6h-5.2V167
					c0-2-0.2-3.2-0.5-3.8c-0.5-0.7-1.2-1.1-2.2-1.1c-0.7,0-1.4,0.2-2.1,0.7c-0.6,0.4-1.1,1.1-1.4,2c-0.3,0.9-0.4,2.2-0.4,4.1v9.5
					H632v-10.8c0-1.9-0.1-3.2-0.3-3.7s-0.5-1-0.9-1.2c-0.4-0.3-0.9-0.4-1.6-0.4c-0.8,0-1.5,0.2-2.2,0.6c-0.6,0.4-1.1,1.1-1.4,1.9
					c-0.3,0.8-0.4,2.2-0.4,4.1v9.6H620V158.6z"/>
			</g>
		</g>
	</g>
	<g id="图层_2_1_">
		<g>
			
				<linearGradient id="SVGID_1_" gradientUnits="userSpaceOnUse" x1="98.75" y1="-396.9" x2="98.75" y2="-579.1" gradientTransform="matrix(1 0 0 -1 0 -388)">
				<stop  offset="0" style="stop-color:#FE99A9"/>
				<stop  offset="1" style="stop-color:#CE4A71"/>
			</linearGradient>
			<path class="st3" d="M148.9,191.1H48.6c-22.6,0-41-18.3-41-41V49.9c0-22.6,18.3-41,41-41h100.3c22.6,0,41,18.3,41,41v100.3
				C189.8,172.7,171.5,191.1,148.9,191.1z"/>
		</g>
		<g class="st4">
			<circle class="st5" cx="136.6" cy="99" r="11.3"/>
			<circle class="st5" cx="60.6" cy="99" r="11.3"/>
			<path class="st5" d="M114.2,126.4c-0.9,0-1.7,0.6-2,1.6c-0.7,2.6-3,4.4-5.8,4.4s-5.1-1.9-5.8-4.4c-0.2-0.9-1.1-1.6-2-1.6l0,0l0,0
				c-0.9,0-1.7,0.6-2,1.6c-0.7,2.6-3,4.4-5.8,4.4s-5.1-1.9-5.8-4.4c-0.2-0.9-1.1-1.6-2-1.6c-1.4,0-2.3,1.3-2,2.6
				c1.2,4.3,5.1,7.5,9.8,7.5c3.1,0,6-1.4,7.8-3.7c1.9,2.3,4.7,3.7,7.8,3.7c4.7,0,8.6-3.2,9.8-7.5
				C116.5,127.7,115.6,126.4,114.2,126.4z"/>
			<path class="st5" d="M186.7,127.5c-2.1-0.3-4.2-0.5-6.3-0.7c0.2-2.2,0.2-4.4,0.1-6.7c1.9,0,3.7,0,5.6,0.1
				c1.9,0.1,3.5-1.4,3.6-3.3l0,0c0.1-1.9-1.4-3.6-3.4-3.7c-2.2-0.1-4.4-0.1-6.7-0.1c-0.7-3.6-1.7-7.3-3.1-10.9l-6.7-16.6
				c-1.4-3.5-3.1-6.7-5-9.9c1.5-6.8,2.6-15.2,2.1-24.8c-0.3-6.8-1.3-12.8-2.5-17.9c-0.3-1.3-1.5-2.2-2.8-2.3c-0.6,0-1.3,0-2,0
				c-5,0-11.6,0.6-18.9,3.2c-7.8,2.7-14.4,7-19.1,10.8c-4.8-1.1-9.8-1.7-14.9-1.7H90.3c-5.1,0-10.1,0.6-14.9,1.7
				c-4.7-3.7-11.3-8-19.1-10.7c-7.3-2.5-13.9-3.2-18.9-3.2c-0.7,0-1.4,0-2,0c-1.3,0-2.5,1-2.8,2.3c-1.2,5.1-2.2,11.1-2.5,17.9
				c-0.4,9.6,0.6,18,2.1,24.8c-1.9,3.1-3.6,6.4-5,9.9l-6.7,16.6c-1.5,3.6-2.5,7.2-3.1,10.9c-2.2,0-4.4,0-6.7,0.1
				c-1.9,0.1-3.5,1.7-3.4,3.7l0,0c0.1,1.9,1.7,3.4,3.6,3.3s3.7-0.1,5.6-0.1c-0.1,2.2-0.1,4.5,0.1,6.7c-2.1,0.2-4.2,0.5-6.3,0.7
				c-1.9,0.2-3.3,2-3,4l0,0c0.3,1.9,2,3.2,3.9,3c2.1-0.3,4.2-0.5,6.4-0.7c0.6,2.7,1.3,5.4,2.3,7.9c-2.6,0.8-5.1,1.7-7.7,2.7
				c-1.8,0.7-2.7,2.9-1.9,4.7l0,0c0.8,1.7,2.7,2.5,4.5,1.8c2.6-1.1,5.3-2,8-2.8c9,17,26.7,29.1,48.2,29.1h55
				c21.5,0,39.3-12.1,48.2-29.1c2.7,0.8,5.4,1.8,8,2.8c1.7,0.7,3.7-0.1,4.5-1.8l0,0c0.8-1.8-0.1-3.9-1.9-4.7c-2.5-1-5.1-1.9-7.7-2.7
				c1-2.6,1.7-5.2,2.3-7.9c2.1,0.2,4.3,0.5,6.4,0.7c1.9,0.2,3.7-1.1,3.9-3l0,0C190,129.5,188.7,127.7,186.7,127.5z M143.2,40.6
				c4.9-1.7,10-2.6,15.2-2.8c0.9,4.4,1.5,9,1.7,13.5c0.3,5.5,0,11-0.8,16.5c-7.7-9.3-17.8-16.4-29.1-20.6
				C133.7,44.9,138.1,42.4,143.2,40.6z M37.1,51.3c0.2-4.5,0.8-9,1.7-13.5C44,38,49.1,38.9,54,40.6c5.1,1.8,9.5,4.2,13,6.6
				c-11.3,4.1-21.4,11.2-29.1,20.6C37.2,62.3,36.9,56.8,37.1,51.3z M167.5,125.8c-5.9-0.3-11.8-0.4-17.6-0.3c-1.9,0-3.5,1.7-3.4,3.6
				c0.1,1.9,1.7,3.4,3.6,3.4c5.4-0.1,10.9,0,16.4,0.3c-0.5,1.9-1.1,3.9-1.9,5.7c-2.9-0.5-5.9-1-8.8-1.3c-2-0.2-3.7,1.3-3.9,3.2l0,0
				c-0.1,1.9,1.2,3.5,3.1,3.7c2.1,0.2,4.1,0.5,6.2,0.9c-0.2,0.3-0.4,0.6-0.6,0.9c-7.8,11.6-20.4,18.3-34.4,18.3h-55
				c-14,0-26.6-6.7-34.4-18.3c-0.2-0.3-0.4-0.6-0.6-0.9c2-0.3,4.1-0.6,6.2-0.9c1.9-0.2,3.3-1.8,3.1-3.7l0,0c-0.1-2-1.9-3.4-3.9-3.2
				c-3,0.3-5.9,0.8-8.8,1.3c-0.8-1.9-1.4-3.8-1.9-5.7c5.4-0.3,10.9-0.4,16.4-0.3c1.9,0,3.5-1.5,3.6-3.4c0.1-1.9-1.5-3.6-3.4-3.6
				c-5.9-0.1-11.8,0-17.6,0.3c-0.1-1.8-0.1-3.5,0-5.3c4,0.2,8,0.6,11.9,1.1c1.9,0.2,3.6-1.1,3.9-3l0,0c0.3-1.9-1.1-3.7-3.1-4
				c-3.9-0.5-7.8-0.8-11.7-1.1c0.5-2.2,1.2-4.3,2-6.4l6.7-16.6C48,69.6,68,56.1,90.6,56.1h16.5c22.5,0,42.5,13.5,51,34.4l6.7,16.6
				c0.9,2.1,1.5,4.3,2,6.4c-3.9,0.2-7.8,0.6-11.7,1.1c-2,0.2-3.3,2-3.1,4l0,0c0.3,1.9,2,3.2,3.9,3c4-0.5,7.9-0.8,11.9-1.1
				C167.6,122.2,167.6,124,167.5,125.8z"/>
		</g>
		<g>
			<g class="st6">
				<g class="st0">
					<path class="st7" d="M77.4,88.6L77.4,88.6l-0.2-0.1L77,88.4c-0.1-0.1-0.2-0.1-0.2-0.1c-0.1,0-0.1,0-0.2-0.1
						c-0.2-0.1-0.3-0.2-0.4-0.2s-0.3-0.1-0.4-0.2c-0.3-0.1-0.5-0.2-0.8-0.3c-0.3-0.1-0.6-0.2-0.8-0.3c-1.2-0.4-2.4-0.6-3.4-0.6
						c-1.1-0.2-2.2-0.2-3.4-0.1c-1.1,0.1-2.2,0.3-3.3,0.5c-2.1,0.6-4,1.5-5.7,2.6c-1.7,1.3-3.1,2.7-4.1,4.2
						c-0.6,0.8-1.1,1.6-1.4,2.5c-0.3,0.9-0.7,1.7-0.9,2.6c-0.1,0.4-0.2,0.8-0.3,1.4c-0.1,0.2-0.1,0.4-0.1,0.6s-0.1,0.4-0.1,0.7
						c-0.1,0.4-0.1,0.9-0.1,1.3s0,0.9,0,1.3c0,0.9,0.1,1.7,0.2,2.5c0,0.3,0.1,0.7,0.2,1.2c0.1,0.2,0.1,0.4,0.2,0.6
						c0.1,0.2,0.1,0.4,0.2,0.6c0.5,1.4,1.2,2.8,2.1,4.1c0.1,0.2,0.2,0.3,0.4,0.4c0.1,0.1,0.3,0.3,0.4,0.4c0.3,0.3,0.6,0.6,0.7,0.8
						c0.5,0.5,1,1,1.6,1.4c0.5,0.4,1.1,0.8,1.6,1.1c0.6,0.3,1.1,0.6,1.7,0.8c0.3,0.2,0.6,0.3,0.9,0.4c0.3,0.1,0.6,0.2,0.9,0.3
						c0.5,0.2,1.1,0.4,1.8,0.5c0.1,0,0.2,0,0.2,0c0.1,0,0.1,0,0.2,0c0.2,0,0.4,0,0.5,0.1c0.4,0,0.7,0,1,0.1c0.3,0,0.6,0,1,0
						c0.3,0,0.6,0,1-0.1c1.3-0.1,2.6-0.3,3.9-0.9c0.7-0.3,1.4-0.6,2-1c0.7-0.4,1.3-0.8,2-1.3c0.3-0.3,0.6-0.5,1-0.8s0.6-0.5,1-0.8
						c0.2-0.2,0.3-0.4,0.5-0.6s0.4-0.4,0.6-0.6l-16.4-2.9c-1.5-0.3-2.8-1-3.6-2.3c-0.9-1.3-1.2-2.7-0.9-4.2c0.2-1.2,0.7-2.2,1.6-3
						c0.9-0.8,1.8-1.3,3-1.5l26-4.5c1.4-0.2,2.7-0.2,4,0.2c1.3,0.3,2.5,0.9,3.6,1.6s2,1.7,2.7,2.8c0.7,1.1,1.2,2.4,1.5,3.8
						c0.1,0.3,0.1,0.5,0.1,0.8c0,0.2,0,0.5,0,0.8c0.1,0.1,0.1,0.2,0.2,0.4c0.1,0.1,0.1,0.3,0.2,0.4l-0.2-0.4l0.5,2.9
						c0.3,2,0.4,4.1,0.3,6.1c-0.1,2.1-0.3,4.1-0.8,6.2c-0.4,2.2-1.1,4.2-1.9,6.1c-0.7,1.9-1.8,3.8-3,5.8c-1.2,1.9-2.6,3.6-4.1,5.2
						c-1.5,1.6-3.2,3.1-5,4.4c-1.9,1.4-3.8,2.6-5.9,3.5c-2,1-4.1,1.8-6.5,2.5c-1.1,0.3-2.3,0.6-3.4,0.8s-2.3,0.4-3.5,0.5
						c-0.3,0-0.5,0-0.8,0s-0.6,0-0.9,0h-3.4c-0.3-0.1-0.6-0.1-0.9-0.1c-0.3,0-0.6,0-0.8-0.1c-2.5-0.3-4.8-0.7-7-1.3
						c-1.1-0.4-2.2-0.8-3.3-1.2s-2.1-0.9-3.2-1.5c-2.1-1-4.1-2.2-5.9-3.7c-0.9-0.7-1.8-1.5-2.6-2.2c-0.9-0.7-1.7-1.6-2.5-2.5
						c-3.1-3.4-5.5-7.2-7.2-11.4c-1.8-4.2-2.8-8.5-3-12.9c-0.2-2.2-0.2-4.4,0-6.5c0.1-1.1,0.3-2.1,0.4-3.2c0.2-1.1,0.4-2.1,0.7-3.2
						c0.5-2.1,1.3-4.1,2.2-6c0.4-1,0.9-1.9,1.4-2.8c0.4-0.9,1-1.8,1.7-2.7c0.3-0.4,0.6-0.8,0.9-1.2s0.6-0.8,1-1.2
						c0.6-0.8,1.3-1.6,2.1-2.3c0.2-0.2,0.4-0.4,0.6-0.6c0.2-0.2,0.3-0.4,0.6-0.5c0.2-0.2,0.4-0.3,0.6-0.5c0.2-0.2,0.3-0.4,0.6-0.5
						l2.4-1.9c0.9-0.6,1.7-1.1,2.6-1.7c0.9-0.5,1.7-1,2.6-1.4c0.4-0.3,0.9-0.5,1.4-0.7s0.9-0.4,1.4-0.6l2.9-1
						c0.9-0.3,1.8-0.5,2.8-0.7s1.9-0.4,3-0.6c1.9-0.2,3.8-0.3,5.8-0.2c1.9,0.1,3.7,0.3,5.6,0.7c1.8,0.4,3.5,0.9,5.4,1.7
						c0.9,0.4,1.7,0.8,2.5,1.2c0.8,0.4,1.6,0.8,2.4,1.3c0.4,0.3,0.7,0.5,1.1,0.8c0.4,0.2,0.7,0.5,1.1,0.8c0.2,0.2,0.3,0.3,0.5,0.4
						s0.4,0.3,0.5,0.4l0.5,0.5l0.3,0.2l0.2,0.2c1.1,1,1.6,2.1,1.6,3.5s-0.4,2.6-1.3,3.6c-0.8,0.9-1.8,1.4-2.9,1.6
						C79.6,89.4,78.5,89.2,77.4,88.6L77.4,88.6z M50,118c0,0.6,0.2,1.1,0.6,1.5c0.4,0.4,0.9,0.6,1.5,0.6s1.1-0.2,1.5-0.6
						s0.6-0.9,0.6-1.5s-0.2-1.1-0.6-1.5c-0.4-0.4-0.9-0.6-1.5-0.6s-1.1,0.2-1.5,0.6C50.2,116.9,50,117.5,50,118z M76,81.7
						c0,0.6,0.2,1.1,0.6,1.5s0.9,0.6,1.5,0.6s1.1-0.2,1.5-0.6s0.6-0.9,0.6-1.5s-0.2-1.1-0.6-1.5s-0.9-0.6-1.5-0.6s-1.1,0.2-1.5,0.6
						S76,81.1,76,81.7z M90.9,99.9c0,0.6,0.2,1.1,0.6,1.5s0.9,0.6,1.5,0.6s1.1-0.2,1.5-0.6s0.6-0.9,0.6-1.5s-0.2-1.1-0.6-1.5
						s-0.9-0.6-1.5-0.6s-1.1,0.2-1.5,0.6S90.9,99.3,90.9,99.9z"/>
					<path class="st7" d="M127.8,73.6l14.3,54.8c0.6,2.2,0.7,4.4,0.4,6.5c-0.3,2.2-1,4.2-2.1,6s-2.5,3.4-4.2,4.8
						c-1.7,1.3-3.7,2.3-5.9,2.9c-2.2,0.6-4.4,0.7-6.5,0.4c-2.2-0.3-4.2-1-6-2.1s-3.4-2.5-4.8-4.2c-1.3-1.7-2.3-3.7-2.9-5.9
						c-0.5-1.8-0.6-3.7-0.5-5.5l4.6-56.4c0.1-1,0.3-1.8,0.8-2.6c0.5-0.8,1-1.5,1.7-2c0.7-0.6,1.4-1,2.3-1.3s1.8-0.4,2.7-0.4
						c1.5,0.1,2.9,0.6,4,1.6C126.7,71,127.5,72.2,127.8,73.6z M119.7,96.8l24.2-4.9c1.2-0.2,2.3-0.2,3.4,0c1.1,0.2,2.1,0.7,3,1.2
						c0.9,0.6,1.7,1.3,2.3,2.3c0.6,0.9,1.1,2,1.4,3.2c0.2,1.2,0.2,2.3,0,3.4s-0.6,2.1-1.2,3c-0.6,0.9-1.4,1.7-2.3,2.4
						c-0.9,0.7-2,1.1-3.2,1.3c-0.1,0-0.2,0-0.3,0s-0.2,0-0.3,0l-24.5,2.9c-1.1,0.2-2.1,0.1-3-0.2s-1.8-0.7-2.6-1.3
						c-0.7-0.6-1.4-1.3-1.9-2.2c-0.5-0.9-0.8-1.8-0.9-2.9c-0.3-2,0.2-3.8,1.4-5.4C116.3,98.1,117.8,97.1,119.7,96.8z M121.5,68.2
						l41.4,5c1.2,0.2,2.2,0.5,3.2,1.1s1.8,1.3,2.4,2.1c0.7,0.8,1.2,1.8,1.5,2.9s0.4,2.2,0.3,3.4c-0.2,1.2-0.5,2.2-1.1,3.2
						s-1.3,1.8-2.1,2.5c-0.9,0.7-1.8,1.2-2.9,1.5c-1.1,0.3-2.2,0.4-3.4,0.2c-0.4-0.1-0.7-0.2-1-0.2l-40.4-9.8
						c-1.7-0.4-2.9-1.3-3.8-2.7s-1.1-2.9-0.7-4.6c0.4-1.5,1.2-2.7,2.4-3.6C118.6,68.4,120,68,121.5,68.2z M135.4,114.5
						c-0.1-0.4-0.4-0.8-0.9-1s-0.9-0.3-1.4-0.2c-0.5,0.2-0.9,0.5-1.2,0.9c-0.2,0.5-0.3,0.9-0.2,1.3l3.8,15c0.1,0.4,0.4,0.8,0.9,1
						c0.5,0.3,0.9,0.3,1.4,0.2s0.9-0.4,1.1-0.8c0.3-0.5,0.3-0.9,0.2-1.3L135.4,114.5z M146.3,96.1c0,0.6,0.2,1.1,0.6,1.5
						c0.4,0.4,0.9,0.6,1.5,0.6s1.1-0.2,1.5-0.6s0.6-0.9,0.6-1.5s-0.2-1.1-0.6-1.5c-0.4-0.4-0.9-0.6-1.5-0.6s-1.1,0.2-1.5,0.6
						C146.5,95,146.3,95.5,146.3,96.1z M161,77.9c0,0.6,0.2,1.1,0.6,1.5c0.4,0.4,0.9,0.6,1.5,0.6s1.1-0.2,1.5-0.6s0.6-0.9,0.6-1.5
						s-0.2-1.1-0.6-1.5c-0.4-0.4-0.9-0.6-1.5-0.6s-1.1,0.2-1.5,0.6S161,77.3,161,77.9z"/>
				</g>
			</g>
			<g>
				<g class="st0">
					<path class="st8" d="M77.4,80.6L77.4,80.6l-0.2-0.1L77,80.4c-0.1-0.1-0.2-0.1-0.2-0.1c-0.1,0-0.1,0-0.2-0.1
						c-0.2-0.1-0.3-0.2-0.4-0.2s-0.3-0.1-0.4-0.2c-0.3-0.1-0.5-0.2-0.8-0.3c-0.3-0.1-0.6-0.2-0.8-0.3c-1.2-0.4-2.4-0.6-3.4-0.6
						c-1.1-0.2-2.2-0.2-3.4-0.1c-1.1,0.1-2.2,0.3-3.3,0.5c-2.1,0.6-4,1.5-5.7,2.6c-1.7,1.3-3.1,2.7-4.1,4.2
						c-0.6,0.8-1.1,1.6-1.4,2.5c-0.3,0.9-0.7,1.7-0.9,2.6c-0.1,0.4-0.2,0.8-0.3,1.4c-0.1,0.2-0.1,0.4-0.1,0.6s-0.1,0.4-0.1,0.7
						c-0.1,0.4-0.1,0.9-0.1,1.3s0,0.9,0,1.3c0,0.9,0.1,1.7,0.2,2.5c0,0.3,0.1,0.7,0.2,1.2c0.1,0.2,0.1,0.4,0.2,0.6
						c0.1,0.2,0.1,0.4,0.2,0.6c0.5,1.4,1.2,2.8,2.1,4.1c0.1,0.2,0.2,0.3,0.4,0.4c0.1,0.1,0.3,0.3,0.4,0.4c0.3,0.3,0.6,0.6,0.7,0.8
						c0.5,0.5,1,1,1.6,1.4c0.5,0.4,1.1,0.8,1.6,1.1c0.6,0.3,1.1,0.6,1.7,0.8c0.3,0.2,0.6,0.3,0.9,0.4c0.3,0.1,0.6,0.2,0.9,0.3
						c0.5,0.2,1.1,0.4,1.8,0.5c0.1,0,0.2,0,0.2,0c0.1,0,0.1,0,0.2,0c0.2,0,0.4,0,0.5,0.1c0.4,0,0.7,0,1,0.1c0.3,0,0.6,0,1,0
						c0.3,0,0.6,0,1-0.1c1.3-0.1,2.6-0.3,3.9-0.9c0.7-0.3,1.4-0.6,2-1c0.7-0.4,1.3-0.8,2-1.3c0.3-0.3,0.6-0.5,1-0.8s0.6-0.5,1-0.8
						c0.2-0.2,0.3-0.4,0.5-0.6s0.4-0.4,0.6-0.6l-16.4-2.9c-1.5-0.3-2.8-1-3.6-2.3c-0.9-1.3-1.2-2.7-0.9-4.2c0.2-1.2,0.7-2.2,1.6-3
						c0.9-0.8,1.8-1.3,3-1.5l26-4.5c1.4-0.2,2.7-0.2,4,0.2c1.3,0.3,2.5,0.9,3.6,1.6s2,1.7,2.7,2.8c0.7,1.1,1.2,2.4,1.5,3.8
						c0.1,0.3,0.1,0.5,0.1,0.8c0,0.2,0,0.5,0,0.8c0.1,0.1,0.1,0.2,0.2,0.4c0.1,0.1,0.1,0.3,0.2,0.4l-0.2-0.4l0.5,2.9
						c0.3,2,0.4,4.1,0.3,6.1c-0.1,2.1-0.3,4.1-0.8,6.2c-0.4,2.2-1.1,4.2-1.9,6.1c-0.7,1.9-1.8,3.8-3,5.8c-1.2,1.9-2.6,3.6-4.1,5.2
						s-3.2,3.1-5,4.4c-1.9,1.4-3.8,2.6-5.9,3.5c-2,1-4.1,1.8-6.5,2.5c-1.1,0.3-2.3,0.6-3.4,0.8s-2.3,0.4-3.5,0.5c-0.3,0-0.5,0-0.8,0
						s-0.6,0-0.9,0h-3.4c-0.3-0.1-0.6-0.1-0.9-0.1c-0.3,0-0.6,0-0.8-0.1c-2.5-0.3-4.8-0.7-7-1.3c-1.1-0.4-2.2-0.8-3.3-1.2
						s-2.1-0.9-3.2-1.5c-2.1-1-4.1-2.2-5.9-3.7c-0.9-0.7-1.8-1.5-2.6-2.2c-0.9-0.7-1.7-1.6-2.5-2.5c-3.1-3.4-5.5-7.2-7.2-11.4
						c-1.8-4.2-2.8-8.5-3-12.9c-0.2-2.2-0.2-4.4,0-6.5c0.1-1.1,0.3-2.1,0.4-3.2c0.2-1.1,0.4-2.1,0.7-3.2c0.5-2.1,1.3-4.1,2.2-6
						c0.4-1,0.9-1.9,1.4-2.8c0.4-0.9,1-1.8,1.7-2.7c0.3-0.4,0.6-0.8,0.9-1.2s0.6-0.8,1-1.2c0.6-0.8,1.3-1.6,2.1-2.3
						c0.2-0.2,0.4-0.4,0.6-0.6c0.2-0.2,0.3-0.4,0.6-0.5c0.2-0.2,0.4-0.3,0.6-0.5c0.2-0.2,0.3-0.4,0.6-0.5l2.4-1.9
						c0.9-0.6,1.7-1.1,2.6-1.7c0.9-0.5,1.7-1,2.6-1.4c0.4-0.3,0.9-0.5,1.4-0.7s0.9-0.4,1.4-0.6l2.9-1c0.9-0.3,1.8-0.5,2.8-0.7
						s1.9-0.4,3-0.6c1.9-0.2,3.8-0.3,5.8-0.2c1.9,0.1,3.7,0.3,5.6,0.7c1.8,0.4,3.5,0.9,5.4,1.7c0.9,0.4,1.7,0.8,2.5,1.2
						c0.8,0.4,1.6,0.8,2.4,1.3c0.4,0.3,0.7,0.5,1.1,0.8c0.4,0.2,0.7,0.5,1.1,0.8c0.2,0.2,0.3,0.3,0.5,0.4s0.4,0.3,0.5,0.4l0.5,0.5
						l0.3,0.2l0.2,0.2c1.1,1,1.6,2.1,1.6,3.5s-0.4,2.6-1.3,3.6c-0.8,0.9-1.8,1.4-2.9,1.6C79.6,81.4,78.5,81.2,77.4,80.6L77.4,80.6z
						 M50,110c0,0.6,0.2,1.1,0.6,1.5c0.4,0.4,0.9,0.6,1.5,0.6s1.1-0.2,1.5-0.6s0.6-0.9,0.6-1.5s-0.2-1.1-0.6-1.5
						c-0.4-0.4-0.9-0.6-1.5-0.6s-1.1,0.2-1.5,0.6C50.2,108.9,50,109.5,50,110z M76,73.7c0,0.6,0.2,1.1,0.6,1.5s0.9,0.6,1.5,0.6
						s1.1-0.2,1.5-0.6s0.6-0.9,0.6-1.5s-0.2-1.1-0.6-1.5s-0.9-0.6-1.5-0.6s-1.1,0.2-1.5,0.6S76,73.1,76,73.7z M90.9,91.9
						c0,0.6,0.2,1.1,0.6,1.5S92.4,94,93,94s1.1-0.2,1.5-0.6s0.6-0.9,0.6-1.5s-0.2-1.1-0.6-1.5s-0.9-0.6-1.5-0.6s-1.1,0.2-1.5,0.6
						S90.9,91.3,90.9,91.9z"/>
					<path class="st8" d="M127.8,65.6l14.3,54.8c0.6,2.2,0.7,4.4,0.4,6.5c-0.3,2.2-1,4.2-2.1,6s-2.5,3.4-4.2,4.8
						c-1.7,1.3-3.7,2.3-5.9,2.9c-2.2,0.6-4.4,0.7-6.5,0.4c-2.2-0.3-4.2-1-6-2.1s-3.4-2.5-4.8-4.2c-1.3-1.7-2.3-3.7-2.9-5.9
						c-0.5-1.8-0.6-3.7-0.5-5.5l4.6-56.4c0.1-1,0.3-1.8,0.8-2.6c0.5-0.8,1-1.5,1.7-2c0.7-0.6,1.4-1,2.3-1.3s1.8-0.4,2.7-0.4
						c1.5,0.1,2.9,0.6,4,1.6C126.7,63,127.5,64.2,127.8,65.6z M119.7,88.8l24.2-4.9c1.2-0.2,2.3-0.2,3.4,0c1.1,0.2,2.1,0.7,3,1.2
						c0.9,0.6,1.7,1.3,2.3,2.3c0.6,0.9,1.1,2,1.4,3.2c0.2,1.2,0.2,2.3,0,3.4s-0.6,2.1-1.2,3c-0.6,0.9-1.4,1.7-2.3,2.4
						c-0.9,0.7-2,1.1-3.2,1.3c-0.1,0-0.2,0-0.3,0s-0.2,0-0.3,0l-24.5,2.9c-1.1,0.2-2.1,0.1-3-0.2s-1.8-0.7-2.6-1.3
						c-0.7-0.6-1.4-1.3-1.9-2.2c-0.5-0.9-0.8-1.8-0.9-2.9c-0.3-2,0.2-3.8,1.4-5.4C116.3,90.1,117.8,89.1,119.7,88.8z M121.5,60.2
						l41.4,5c1.2,0.2,2.2,0.5,3.2,1.1s1.8,1.3,2.4,2.1c0.7,0.8,1.2,1.8,1.5,2.9s0.4,2.2,0.3,3.4c-0.2,1.2-0.5,2.2-1.1,3.2
						s-1.3,1.8-2.1,2.5c-0.9,0.7-1.8,1.2-2.9,1.5c-1.1,0.3-2.2,0.4-3.4,0.2c-0.4-0.1-0.7-0.2-1-0.2l-40.4-9.8
						c-1.7-0.4-2.9-1.3-3.8-2.7s-1.1-2.9-0.7-4.6c0.4-1.5,1.2-2.7,2.4-3.6C118.6,60.4,120,60,121.5,60.2z M135.4,106.5
						c-0.1-0.4-0.4-0.8-0.9-1s-0.9-0.3-1.4-0.2c-0.5,0.2-0.9,0.5-1.2,0.9c-0.2,0.5-0.3,0.9-0.2,1.3l3.8,15c0.1,0.4,0.4,0.8,0.9,1
						c0.5,0.3,0.9,0.3,1.4,0.2c0.5-0.1,0.9-0.4,1.1-0.8c0.3-0.5,0.3-0.9,0.2-1.3L135.4,106.5z M146.3,88.1c0,0.6,0.2,1.1,0.6,1.5
						c0.4,0.4,0.9,0.6,1.5,0.6s1.1-0.2,1.5-0.6s0.6-0.9,0.6-1.5s-0.2-1.1-0.6-1.5c-0.4-0.4-0.9-0.6-1.5-0.6s-1.1,0.2-1.5,0.6
						C146.5,87,146.3,87.5,146.3,88.1z M161,69.9c0,0.6,0.2,1.1,0.6,1.5c0.4,0.4,0.9,0.6,1.5,0.6s1.1-0.2,1.5-0.6s0.6-0.9,0.6-1.5
						s-0.2-1.1-0.6-1.5c-0.4-0.4-0.9-0.6-1.5-0.6s-1.1,0.2-1.5,0.6S161,69.3,161,69.9z"/>
				</g>
			</g>
		</g>
	</g>
</g>
</svg>
